<svg width="375" height="338" viewBox="0 0 375 338" fill="none" xmlns="http://www.w3.org/2000/svg">
<path fill-rule="evenodd" clip-rule="evenodd" d="M-360 0L-337.479 49.1236C-314.958 98.9805 -269.917 197.228 -224.875 225.089C-179.833 253.683 -134.792 211.158 -89.75 204.56C-44.7083 197.228 0.333313 225.089 45.375 189.896C90.4167 154.703 135.458 56.4555 180.5 56.4555C225.542 56.4555 270.583 154.703 315.625 162.035C360.667 169.367 405.708 84.3167 450.75 63.7874C495.792 42.5249 540.833 84.3167 585.875 84.3167C630.917 84.3167 675.958 42.5249 698.479 21.2625L721 0V338H698.479C675.958 338 630.917 338 585.875 338C540.833 338 495.792 338 450.75 338C405.708 338 360.667 338 315.625 338C270.583 338 225.542 338 180.5 338C135.458 338 90.4167 338 45.375 338C0.333313 338 -44.7083 338 -89.75 338C-134.792 338 -179.833 338 -224.875 338C-269.917 338 -314.958 338 -337.479 338H-360V0Z" fill="#F8F9FB"/>
</svg>
