<svg width="172" height="32" viewBox="0 0 172 32" fill="none" xmlns="http://www.w3.org/2000/svg">
<path d="M50.7718 12.777C49.5163 11.6561 47.8143 11.1367 45.6939 11.1367H38.7745V29.6719H41.6762V23.1655H45.6939C47.8143 23.1655 49.5442 22.6187 50.7997 21.5525C52.0831 20.4863 52.7527 18.9554 52.7527 17.1511C52.7248 15.3468 52.0831 13.8705 50.7718 12.777ZM45.9729 20.4863H41.6483V13.8705H45.9729C48.4281 13.8705 49.8232 15.0734 49.8232 17.1511C49.8232 19.9122 47.7306 20.4863 45.9729 20.4863ZM65.1964 29.6446H68.126V16.741H65.1964V29.6446ZM66.6472 11C65.6428 11 64.8337 11.8201 64.8337 12.8043C64.8337 13.7885 65.6428 14.5813 66.6472 14.5813C67.6517 14.5813 68.4887 13.7885 68.4887 12.8043C68.4887 11.8201 67.6796 11 66.6472 11ZM100.379 16.4403C96.5567 16.4403 93.7666 19.2835 93.7666 23.1655C93.7666 27.2388 96.6125 29.9453 100.853 29.9453C102.695 29.9453 104.453 29.4806 105.903 28.6058V25.8993C104.341 27.0201 102.751 27.5396 101.077 27.5396C98.7051 27.5396 96.9194 26.1727 96.6404 24.1496L96.6125 24.0129H106.573C106.629 23.7122 106.629 23.4388 106.629 23.0834C106.685 19.1741 104.09 16.4403 100.379 16.4403ZM96.6404 21.9899L96.6683 21.8532C96.8636 20.3223 98.2865 18.7093 100.323 18.7093C102.248 18.7093 103.616 19.9669 103.839 21.8532L103.867 21.9899H96.6404ZM112.711 13.8705H118.012V29.6446H121.081V13.8705H126.382V11.1367H112.711V13.8705ZM146.527 23.5755C146.527 25.8719 145.243 27.3755 143.29 27.3755C141.393 27.3755 140.249 26.0906 140.249 23.9583V16.741H137.32V24.5324C137.32 27.895 139.245 29.9453 142.314 29.9453C144.016 29.9453 145.411 29.2345 146.276 27.9223L146.527 27.6216V29.6719H149.456V16.741H146.527V23.5755ZM157.38 21.9353C155.929 21.6072 154.646 21.3065 154.646 20.295C154.646 19.4475 155.511 18.9007 156.906 18.9007C158.412 18.9007 159.947 19.4475 161.258 20.459V17.5612C159.919 16.8504 158.412 16.4403 157.017 16.4403C153.892 16.4403 151.8 18.0806 151.8 20.5683C151.8 23.3295 154.144 23.7942 156.208 24.2317C157.715 24.5324 158.998 24.8331 158.998 25.9266C158.998 26.9381 158.161 27.4849 156.627 27.4849C155.064 27.4849 153.362 26.8561 151.912 25.7626V28.7698C153.251 29.5626 154.869 29.9727 156.766 29.9727C159.305 29.9727 161.9 28.6604 161.9 25.7079C161.928 22.9468 159.5 22.4 157.38 21.9353ZM172 19.1468V16.7683H168.429V13.4878L162.876 19.1468H165.527V25.7353C165.527 28.4144 167.089 30 169.712 30C170.828 30 171.554 29.7813 172 29.5626V27.0748C171.637 27.2662 171.135 27.3755 170.633 27.3755C169.126 27.3755 168.429 26.6647 168.429 25.1611V19.1468H172ZM58.2492 19.0647H58.0818V16.7957H55.208V29.6993H58.1097V24.0129C58.1097 21.2245 59.6442 19.4201 61.9878 19.4201C62.239 19.4201 62.518 19.4475 62.6854 19.4748V16.5496C62.6017 16.5223 62.4343 16.495 62.2111 16.495C60.4812 16.495 58.9188 17.5885 58.2492 19.0647ZM130.428 19.0647H130.261V16.7957H127.387V29.6993H130.289V24.0129C130.289 21.2245 131.823 19.4201 134.167 19.4201C134.418 19.4201 134.697 19.4475 134.864 19.4748V16.5496C134.781 16.5223 134.613 16.495 134.39 16.495C132.66 16.495 131.098 17.5885 130.428 19.0647ZM86.7078 16.4403C84.1967 16.4403 82.8854 17.9439 82.3553 18.8187L82.2437 19.0101L82.1321 18.8187C81.4067 17.2878 79.9837 16.4676 78.1702 16.4676C76.5241 16.4676 75.1848 17.2331 74.4315 18.518H74.2083V16.823H71.2787V29.7266H74.2083V22.8374C74.2083 20.541 75.408 19.0647 77.2216 19.0647C78.9235 19.0647 79.9279 20.295 79.9279 22.4547V29.6993H82.8575V22.7281C82.8854 20.5137 84.0851 19.0921 85.8708 19.0921C87.5448 19.0921 88.5771 20.3223 88.5771 22.3453V29.6993H91.5067V21.7439C91.423 18.4086 89.6653 16.4403 86.7078 16.4403Z" fill="#004BE6"/>
<path d="M25.8497 19.737L15.9213 2L5.96533 19.737V19.7649L11.7134 30L15.9213 22.498L20.1567 30L25.8497 19.737ZM20.1567 24.4781L17.4889 19.7928L17.4339 19.7649L20.1292 15.0239L22.8519 19.7649L20.1567 24.4781ZM11.6859 24.4781L9.01812 19.7649L15.9213 7.60558L18.6165 12.2908L11.6859 24.4781Z" fill="#004BE6"/>
</svg>
