<svg width="1920" height="979" viewBox="0 0 1920 979" fill="none" xmlns="http://www.w3.org/2000/svg">
<path fill-rule="evenodd" clip-rule="evenodd" d="M-411.452 487.076C-411.452 487.076 -192.525 703.632 125.979 701.524C444.483 699.417 540.591 454.224 898.075 478.216C1255.56 502.207 1443.94 636.298 1752.9 654.563C2353.82 690.088 2776.07 555.291 2776.07 555.291L2616.21 803.556L-503.657 758.699L-411.452 487.076Z" fill="white" fill-opacity="0.21"/>
<path fill-rule="evenodd" clip-rule="evenodd" d="M2765.07 369.601C2765.07 369.601 2578.53 614.131 2260.57 632.905C1942.61 651.679 1932.15 508.899 1577.01 556.271C1221.86 603.643 1224.63 681.951 917.535 720.428C781.721 737.444 516.647 352.417 4.99291 576.966C-506.661 801.515 -1358.58 242.758 -1358.58 242.758L-633.332 732.556L2767.27 737.054L2765.07 369.601Z" fill="white" fill-opacity="0.2"/>
<path fill-rule="evenodd" clip-rule="evenodd" d="M-410.94 564.379C-410.94 564.379 -345.252 709.448 -64.4852 707.59C216.282 705.732 289.647 496.886 604.796 521.157C919.945 545.429 1086.11 679.667 1358.48 698.174C1888.23 734.17 2260.35 599.704 2260.35 599.704L2232.78 740.591L-438.837 731.269L-410.94 564.379Z" fill="white"/>
</svg>
