<svg width="1920" height="461" viewBox="0 0 1920 461" fill="none" xmlns="http://www.w3.org/2000/svg">
<path fill-rule="evenodd" clip-rule="evenodd" d="M0 0L40 67C80 135 160 269 240 307C320 346 400 288 480 279C560 269 640 307 720 259C800 211 880 77 960 77C1040 77 1120 211 1200 221C1280 231 1360 115 1440 87C1520 58 1600 115 1680 115C1760 115 1840 58 1880 29L1920 0V461H1880C1840 461 1760 461 1680 461C1600 461 1520 461 1440 461C1360 461 1280 461 1200 461C1120 461 1040 461 960 461C880 461 800 461 720 461C640 461 560 461 480 461C400 461 320 461 240 461C160 461 80 461 40 461H0V0Z" fill="#F8F9FB"/>
</svg>
