<svg width="512" height="512" fill="none" xmlns="http://www.w3.org/2000/svg"><path d="M183.874 460.8c14.567 0 18.54-5.745 18.54-12.82 0-6.334-.225-23.107-.338-45.333-75.474 16.077-91.392-35.768-91.392-35.768-12.344-30.772-30.188-39.004-30.188-39.004-24.575-16.528 1.9-16.19 1.9-16.19 27.249 1.854 41.559 27.474 41.559 27.474 24.192 40.765 63.514 28.989 79.027 22.18 2.442-17.255 9.431-28.99 17.183-35.656-60.257-6.671-123.592-29.599-123.592-131.753 0-29.102 10.517-52.884 27.925-71.542-3.052-6.737-12.211-33.848 2.375-70.569 0 0 22.723-7.147 74.614 27.336 21.709-5.924 44.769-8.862 67.835-9 23.066.132 46.126 3.076 67.835 9 51.553-34.483 74.276-27.336 74.276-27.336 14.582 36.721 5.427 63.832 2.713 70.569 17.296 18.653 27.812 42.44 27.812 71.542 0 102.426-63.421 124.969-123.796 131.528 9.497 8.002 18.314 24.351 18.314 49.336 0 35.682-.338 64.353-.338 73.011 0 6.989 3.021 12.662 18.652 12.662l-170.916.333z" fill="#212121"/></svg>