<svg width="512" height="512" viewBox="0 0 512 512" fill="none" xmlns="http://www.w3.org/2000/svg">
<path d="M183.874 460.8C198.441 460.8 202.414 455.055 202.414 447.98C202.414 441.646 202.189 424.873 202.076 402.647C126.602 418.724 110.684 366.879 110.684 366.879C98.3397 336.107 80.4965 327.875 80.4965 327.875C55.9205 311.347 82.396 311.685 82.396 311.685C109.645 313.539 123.955 339.159 123.955 339.159C148.147 379.924 187.469 368.148 202.982 361.339C205.424 344.084 212.413 332.349 220.165 325.683C159.908 319.012 96.5733 296.084 96.5733 193.93C96.5733 164.828 107.09 141.046 124.498 122.388C121.446 115.651 112.287 88.5402 126.873 51.8195C126.873 51.8195 149.596 44.672 201.487 79.1552C223.196 73.2314 246.256 70.2925 269.322 70.1542C292.388 70.2874 315.448 73.2314 337.157 79.1552C388.71 44.672 411.433 51.8195 411.433 51.8195C426.015 88.5402 416.86 115.651 414.146 122.388C431.442 141.041 441.958 164.828 441.958 193.93C441.958 296.356 378.537 318.899 318.162 325.458C327.659 333.46 336.476 349.809 336.476 374.794C336.476 410.476 336.138 439.147 336.138 447.805C336.138 454.794 339.159 460.467 354.79 460.467L183.874 460.8Z" fill="#212121"/>
</svg>
