<svg width="32" height="32" viewBox="0 0 32 32" fill="none" xmlns="http://www.w3.org/2000/svg">
<path d="M17.8912 23.0491C17.4603 23.1787 16.808 23.3749 16 23.3749C14.544 23.3749 13.1984 22.9776 12.0027 22.1944C10.8005 21.4063 9.88803 20.381 9.27307 19.1147L2.46186 7.17993L2.00105 8.00371C0.673605 10.378 0 13.0668 0 15.9956C0 19.9758 1.31468 23.498 3.90775 26.4636C6.49865 29.426 9.768 31.2233 13.6245 31.804L13.984 31.8583L19.3189 22.63L17.8912 23.0491Z" fill="white"/>
<path d="M8.78366 13.995C9.18581 12.4232 10.0872 11.0854 11.4631 10.0191C12.7565 9.01773 14.2407 8.53095 16.0002 8.53095H30.2231L29.7516 7.72794C28.4087 5.4379 26.5175 3.60587 23.9708 2.12577C21.5426 0.715026 18.8605 0 16.0002 0C13.5112 0 11.1554 0.536396 8.99862 1.59477C6.69943 2.72194 4.74635 4.31239 3.35168 6.19613L3.13837 6.48459L8.47065 15.2198L8.78366 13.995Z" fill="white"/>
<path d="M30.7853 9.9688L30.6408 9.66382H20.0291L20.9395 10.574C22.5144 12.149 23.3817 14.0738 23.3817 15.9954C23.3817 17.531 22.9449 18.9546 22.0632 20.2588L15.2504 32L16.187 31.9909C20.5422 31.9493 24.3064 30.3513 27.3763 27.2418C30.444 24.1323 31.9997 20.3483 31.9997 15.9954C31.9997 14.4139 31.789 12.0845 30.7853 9.9688Z" fill="white"/>
<path d="M9.60016 15.9951C9.60016 19.4635 12.5308 22.3933 16.0001 22.3933C19.4694 22.3933 22.4001 19.4635 22.4001 15.9951C22.4001 12.5268 19.4694 9.59692 16.0001 9.59692C12.5308 9.59692 9.60016 12.5268 9.60016 15.9951Z" fill="white"/>
</svg>
