<svg width="48" height="48" viewBox="0 0 48 48" fill="none" xmlns="http://www.w3.org/2000/svg">
<path fill-rule="evenodd" clip-rule="evenodd" d="M34.8351 24.8997V29.1467C34.8351 31.5515 32.8857 33.501 30.4809 33.501V33.501C28.076 33.501 26.1266 31.5515 26.1266 29.1467V25.0085C26.1266 20.1988 22.2275 16.2997 17.4178 16.2997C12.608 16.2997 8.70898 20.1988 8.70898 25.0085V29.1465C8.70898 31.5514 6.75941 33.501 4.35449 33.501V33.501C1.94957 33.501 0 31.5514 0 29.1465L0 24.8997L0 24.8995C0 15.3999 7.79811 7.69888 17.4176 7.69888C27.037 7.69888 34.8351 15.3999 34.8351 24.8995V24.8997Z" fill="#212A5E"/>
<path fill-rule="evenodd" clip-rule="evenodd" d="M47.8234 30.7774V26.5301C47.8234 24.1253 45.8739 22.1758 43.4691 22.1758V22.1758C41.0643 22.1758 39.1148 24.1253 39.1148 26.5301V30.6677C39.1148 35.4774 35.2158 39.3765 30.4061 39.3765C25.5963 39.3765 21.6973 35.4774 21.6973 30.6677V26.5303C21.6973 24.1254 19.7477 22.1758 17.3428 22.1758V22.1758C14.9379 22.1758 12.9883 24.1254 12.9883 26.5303V30.7774V30.7778C12.9883 40.2775 20.7864 47.9784 30.4059 47.9784C40.0253 47.9784 47.8234 40.2775 47.8234 30.7778V30.7774Z" fill="#212A5E"/>
<path d="M48 0H39.2163V24.8664H48V0Z" fill="#212A5E"/>
<path fill-rule="evenodd" clip-rule="evenodd" d="M17.5707 8.13624C17.7762 7.97926 17.6762 7.64722 17.4176 7.64722V7.64722C7.79831 7.64722 0.000315222 15.3479 0 24.8473L0 24.8479L0 29.0937C0 31.4987 1.94957 33.4482 4.35449 33.4482V33.4482C6.75941 33.4482 8.70898 31.4987 8.70898 29.0937V24.9549C8.70898 23.139 9.26475 21.453 10.2155 20.0575C10.6858 19.3672 11.0673 18.6119 11.2607 17.7993C12.1893 13.8987 14.4624 10.51 17.5707 8.13624Z" fill="#212A5E"/>
<path fill-rule="evenodd" clip-rule="evenodd" d="M31.2078 47.9816C30.942 47.9935 30.6746 47.9995 30.4059 47.9995C20.7864 47.9995 12.9883 40.2985 12.9883 30.7988V30.7986V22.1973H21.6973V30.6899C21.6973 32.9652 22.5698 35.0367 23.9986 36.588C24.7476 41.2902 27.4258 45.3597 31.2078 47.9816Z" fill="#212A5E"/>
</svg>
