<svg width="48" height="48" viewBox="0 0 48 48" fill="none" xmlns="http://www.w3.org/2000/svg">
<path fill-rule="evenodd" clip-rule="evenodd" d="M22.9076 41.6402C22.1794 41.8975 21.5657 42.4039 21.175 43.07C20.7841 43.7361 20.6415 44.5189 20.772 45.28C20.9025 46.0411 21.298 46.7315 21.8884 47.2293C22.4789 47.7271 23.2263 48 23.9985 48C24.7707 48 25.5182 47.7271 26.1086 47.2293C26.6989 46.7315 27.0944 46.0411 27.2251 45.28C27.3556 44.5189 27.2129 43.7361 26.8219 43.07C26.4312 42.4039 25.8175 41.8975 25.0895 41.6402V33.8189C25.0786 33.5368 24.9588 33.2699 24.7554 33.0742C24.5521 32.8785 24.2808 32.7694 23.9985 32.7694C23.7163 32.7694 23.445 32.8785 23.2415 33.0742C23.0381 33.2699 22.9183 33.5368 22.9076 33.8189V41.6402ZM23.9993 45.818C23.7833 45.8183 23.5721 45.7545 23.3924 45.6347C23.2126 45.515 23.0723 45.3447 22.9894 45.1452C22.9066 44.9456 22.8848 44.7261 22.9267 44.5143C22.9687 44.3023 23.0725 44.1078 23.2252 43.9549C23.3777 43.8021 23.5723 43.698 23.7841 43.6556C23.9959 43.6134 24.2156 43.6349 24.415 43.7175C24.6146 43.8001 24.7852 43.9399 24.9053 44.1195C25.0253 44.2991 25.0895 44.5102 25.0895 44.7263C25.0895 45.0155 24.9746 45.293 24.7703 45.4977C24.5658 45.7023 24.2886 45.8175 23.9993 45.818ZM5.45256 32.9129C4.72444 33.1702 4.11076 33.6766 3.71996 34.3427C3.32916 35.0089 3.1864 35.7916 3.31698 36.5527C3.44753 37.3139 3.84299 38.0042 4.43342 38.502C5.02384 38.9998 5.7712 39.2728 6.54347 39.2728C7.31573 39.2728 8.06311 38.9998 8.65353 38.502C9.24396 38.0042 9.63942 37.3139 9.76997 36.5527C9.90053 35.7916 9.75777 35.0089 9.36698 34.3427C8.97619 33.6766 8.36251 33.1702 7.63439 32.9129V30.5454H15.2718C15.5538 30.5344 15.8207 30.4147 16.0163 30.2113C16.212 30.008 16.3214 29.7367 16.3214 29.4544C16.3214 29.1722 16.212 28.9009 16.0163 28.6976C15.8207 28.4941 15.5538 28.3745 15.2718 28.3635H7.63439C7.34779 28.3634 7.064 28.4196 6.7992 28.5291C6.53437 28.6388 6.2938 28.7994 6.09115 29.0021C5.88849 29.2047 5.7278 29.4453 5.61821 29.7101C5.50865 29.9749 5.45235 30.2587 5.45256 30.5454V32.9129ZM40.3626 32.9129C39.6344 33.1702 39.0207 33.6766 38.63 34.3427C38.2392 35.0089 38.0963 35.7916 38.227 36.5527C38.3575 37.3139 38.753 38.0042 39.3434 38.502C39.9339 38.9998 40.6813 39.2728 41.4536 39.2728C42.2258 39.2728 42.9732 38.9998 43.5636 38.502C44.1541 38.0042 44.5496 37.3139 44.6801 36.5527C44.8106 35.7916 44.6679 35.0089 44.2771 34.3427C43.8862 33.6766 43.2725 33.1702 42.5445 32.9129V30.5454C42.5447 30.2587 42.4884 29.9749 42.3788 29.7101C42.2693 29.4453 42.1084 29.2047 41.9059 29.0021C41.7032 28.7994 41.4627 28.6388 41.1979 28.5291C40.9329 28.4196 40.6491 28.3634 40.3626 28.3635H32.7269C32.58 28.3578 32.4336 28.3818 32.2962 28.4341C32.159 28.4864 32.0335 28.5658 31.9278 28.6678C31.8218 28.7696 31.7376 28.8916 31.6801 29.0269C31.6226 29.1621 31.5929 29.3075 31.5929 29.4544C31.5929 29.6013 31.6226 29.7468 31.6801 29.8818C31.7376 30.0171 31.8218 30.1393 31.9278 30.2411C32.0335 30.343 32.159 30.4225 32.2962 30.4746C32.4336 30.5269 32.58 30.5511 32.7269 30.5454H40.3626V32.9145V32.9129ZM6.54268 37.0908C6.32674 37.0908 6.11561 37.0267 5.93608 36.9067C5.75654 36.7867 5.61666 36.6163 5.53403 36.4168C5.4514 36.2172 5.42976 35.9978 5.4719 35.7861C5.51402 35.5743 5.61798 35.3797 5.77067 35.227C5.92335 35.0744 6.11791 34.9704 6.32968 34.9282C6.54146 34.8862 6.76099 34.9078 6.96047 34.9904C7.15996 35.0731 7.33047 35.213 7.45043 35.3926C7.5704 35.572 7.63439 35.7832 7.63439 35.9991C7.6346 36.1425 7.60651 36.2845 7.55171 36.417C7.49692 36.5496 7.41651 36.6701 7.31509 36.7714C7.21367 36.8729 7.09327 36.9533 6.96071 37.008C6.82815 37.0629 6.68611 37.0909 6.54268 37.0908ZM41.4527 37.0908C41.2367 37.0908 41.0257 37.0267 40.8461 36.9067C40.6667 36.7867 40.5267 36.6163 40.4441 36.4168C40.3615 36.2172 40.3398 35.9978 40.3818 35.7861C40.424 35.5743 40.528 35.3797 40.6807 35.227C40.8334 35.0744 41.0279 34.9704 41.2396 34.9282C41.4514 34.8862 41.6709 34.9078 41.8705 34.9904C42.07 35.0731 42.2404 35.213 42.3604 35.3926C42.4805 35.572 42.5445 35.7832 42.5445 35.9991C42.5445 36.2886 42.4294 36.5663 42.2246 36.7709C42.02 36.9757 41.7423 37.0908 41.4527 37.0908ZM24.5583 16.5192C24.3891 16.4167 24.1954 16.3626 23.9977 16.3626C23.8001 16.3626 23.6062 16.4167 23.4372 16.5192L17.9833 19.7911C17.8213 19.8876 17.6872 20.0246 17.594 20.1885C17.501 20.3524 17.4519 20.5379 17.4521 20.7264V27.2718C17.4516 27.4603 17.5005 27.6459 17.5937 27.8099C17.6867 27.9739 17.821 28.1108 17.9833 28.2071L23.4372 31.4806C23.6062 31.583 23.8001 31.6371 23.9977 31.6371C24.1954 31.6371 24.3891 31.583 24.5583 31.4806L30.0138 28.2071C30.1756 28.1105 30.3095 27.9736 30.4024 27.8095C30.4953 27.6456 30.5438 27.4602 30.5434 27.2718V20.7264C30.5434 20.538 30.4946 20.3528 30.4017 20.1888C30.309 20.0249 30.1753 19.8879 30.0138 19.7911L24.5583 16.5192ZM6.36015 25.09H15.275C15.4219 25.0957 15.5683 25.0716 15.7057 25.0193C15.843 24.9672 15.9682 24.8876 16.0741 24.7858C16.18 24.684 16.2643 24.5617 16.3219 24.4265C16.3794 24.2914 16.4091 24.1459 16.4091 23.9991C16.4091 23.8521 16.3794 23.7068 16.3219 23.5715C16.2643 23.4363 16.18 23.3143 16.0741 23.2124C15.9682 23.1104 15.843 23.0311 15.7057 22.9788C15.5683 22.9264 15.4219 22.9025 15.275 22.9082H6.36015C6.1028 22.18 5.5963 21.5664 4.93021 21.1756C4.26414 20.7849 3.48137 20.6421 2.72023 20.7727C1.95909 20.9032 1.2686 21.2986 0.770822 21.889C0.273046 22.4795 0 23.2268 0 23.9991C0 24.7713 0.273046 25.5187 0.770822 26.1091C1.2686 26.6996 1.95909 27.0949 2.72023 27.2254C3.48137 27.3561 4.26414 27.2133 4.93021 26.8226C5.5963 26.4317 6.1028 25.818 6.36015 25.09ZM41.645 22.9082H32.7252C32.4357 22.9082 32.158 23.0232 31.9532 23.2279C31.7485 23.4326 31.6335 23.7104 31.6335 23.9999C31.6335 24.2895 31.7485 24.5671 31.9532 24.7718C32.158 24.9766 32.4357 25.0916 32.7252 25.0916H41.6401C41.8976 25.8195 42.4042 26.433 43.0703 26.8237C43.7365 27.2143 44.5191 27.3569 45.2801 27.2262C46.0412 27.0955 46.7316 26.7001 47.2293 26.1097C47.7271 25.5194 48 24.7721 48 23.9999C48 23.2277 47.7271 22.4805 47.2293 21.89C46.7316 21.2996 46.0412 20.9042 45.2801 20.7735C44.5191 20.6428 43.7365 20.7855 43.0703 21.1761C42.4042 21.5667 41.8976 22.1802 41.6401 22.9082H41.645ZM3.27392 22.9082C3.48985 22.9082 3.70091 22.9722 3.88045 23.0922C4.05999 23.2121 4.19993 23.3827 4.28256 23.5821C4.36519 23.7816 4.38683 24.0011 4.34471 24.2129C4.30258 24.4247 4.19862 24.6191 4.04594 24.7718C3.89326 24.9245 3.6987 25.0286 3.48691 25.0706C3.27515 25.1128 3.05562 25.0912 2.85612 25.0085C2.65664 24.9259 2.48613 24.786 2.36617 24.6064C2.24621 24.4268 2.18214 24.2158 2.18214 23.9999C2.18212 23.712 2.29586 23.4358 2.49849 23.2313C2.70113 23.0268 2.97628 22.9108 3.26413 22.9082H3.27392ZM44.7296 22.9082C44.9457 22.9079 45.1567 22.9716 45.3366 23.0913C45.5163 23.2111 45.6565 23.3815 45.7394 23.581C45.8222 23.7804 45.844 23.9999 45.8022 24.2119C45.7603 24.4237 45.6565 24.6185 45.5038 24.7713C45.3511 24.9241 45.1567 25.0283 44.9449 25.0705C44.733 25.1128 44.5134 25.0913 44.3138 25.0087C44.1142 24.9261 43.9436 24.7861 43.8235 24.6066C43.7035 24.427 43.6395 24.2158 43.6395 23.9999C43.6393 23.7115 43.7536 23.4348 43.9569 23.2302C44.1603 23.0257 44.4363 22.9098 44.7247 22.9082H44.7296ZM40.3659 15.0869V17.4561H32.7252C32.5784 17.4504 32.4319 17.4744 32.2946 17.5267C32.1574 17.579 32.0319 17.6583 31.9261 17.7603C31.8202 17.8622 31.736 17.9844 31.6785 18.1195C31.6209 18.2547 31.5913 18.4 31.5913 18.547C31.5913 18.6938 31.6209 18.8393 31.6785 18.9744C31.736 19.1097 31.8202 19.2319 31.9261 19.3337C32.0319 19.4355 32.1574 19.5151 32.2946 19.5672C32.4319 19.6195 32.5784 19.6436 32.7252 19.6379H40.361C40.6476 19.6381 40.9313 19.5819 41.1961 19.4722C41.4611 19.3627 41.7016 19.2019 41.9043 18.9994C42.1068 18.7966 42.2675 18.5561 42.3771 18.2912C42.4866 18.0264 42.543 17.7426 42.5429 17.4561V15.0885C43.2709 14.8312 43.8846 14.3247 44.2753 13.6586C44.6662 12.9926 44.809 12.2098 44.6785 11.4487C44.5478 10.6875 44.1523 9.99708 43.5619 9.49932C42.9716 9.00156 42.2241 8.72856 41.4519 8.72856C40.6795 8.72856 39.9323 9.00156 39.3419 9.49932C38.7514 9.99708 38.3559 10.6875 38.2254 11.4487C38.0949 12.2098 38.2376 12.9926 38.6284 13.6586C39.0191 14.3247 39.6329 14.8312 40.361 15.0885L40.3659 15.0869ZM5.45582 15.0869V17.4561C5.45561 17.7426 5.5119 18.0264 5.62147 18.2912C5.73105 18.5561 5.89175 18.7966 6.09441 18.9994C6.29705 19.2019 6.53765 19.3627 6.80246 19.4722C7.06726 19.5819 7.35105 19.6381 7.63765 19.6379H15.275C15.5571 19.627 15.8239 19.5072 16.0196 19.3039C16.2153 19.1005 16.3246 18.8292 16.3246 18.547C16.3246 18.2648 16.2153 17.9935 16.0196 17.79C15.8239 17.5866 15.5571 17.467 15.275 17.4561H7.63765V15.0869C8.36577 14.8296 8.97944 14.3231 9.37024 13.657C9.76104 12.9909 9.9038 12.2082 9.77323 11.447C9.64268 10.6859 9.24722 9.99545 8.65679 9.49769C8.06636 8.99993 7.319 8.72693 6.54674 8.72693C5.77448 8.72693 5.0271 8.99993 4.43667 9.49769C3.84625 9.99545 3.45079 10.6859 3.32023 11.447C3.18968 12.2082 3.33244 12.9909 3.72322 13.657C4.11402 14.3231 4.7277 14.8296 5.45582 15.0869ZM22.9109 6.35964V14.1809C22.9109 14.4705 23.0257 14.7481 23.2306 14.9529C23.4352 15.1576 23.713 15.2726 24.0026 15.2726C24.2922 15.2726 24.5698 15.1576 24.7747 14.9529C24.9793 14.7481 25.0944 14.4705 25.0944 14.1809V6.35964C25.8222 6.10213 26.4358 5.59555 26.8263 4.92947C27.2171 4.2634 27.3597 3.4807 27.229 2.71967C27.0983 1.95864 26.7028 1.26827 26.1125 0.7706C25.5221 0.272925 24.7748 0 24.0026 0C23.2304 0 22.4831 0.272925 21.8928 0.7706C21.3022 1.26827 20.9068 1.95864 20.7761 2.71967C20.6455 3.4807 20.788 4.2634 21.1787 4.92947C21.5693 5.59555 22.1828 6.10213 22.9109 6.35964ZM6.54752 10.9106C6.76353 10.9106 6.97471 10.9747 7.15429 11.0947C7.33386 11.2148 7.47374 11.3854 7.55634 11.585C7.63892 11.7845 7.66049 12.0041 7.61822 12.2159C7.57597 12.4277 7.47183 12.6223 7.31898 12.7749C7.16614 12.9275 6.97145 13.0314 6.75957 13.0733C6.54769 13.1152 6.32808 13.0934 6.12862 13.0105C5.92917 12.9276 5.75876 12.7874 5.63899 12.6077C5.51922 12.4279 5.45551 12.2167 5.45582 12.0007C5.45582 11.712 5.57016 11.4351 5.77384 11.2305C5.97753 11.0259 6.25397 10.9103 6.54268 10.909L6.54752 10.9106ZM41.4576 10.9106C41.6735 10.9106 41.8847 10.9747 42.0643 11.0947C42.2438 11.2148 42.3838 11.3854 42.4664 11.585C42.5491 11.7845 42.5706 12.0041 42.5282 12.2159C42.486 12.4277 42.3819 12.6223 42.229 12.7749C42.0762 12.9275 41.8815 13.0314 41.6696 13.0733C41.4576 13.1152 41.2381 13.0934 41.0387 13.0105C40.8391 12.9276 40.6688 12.7874 40.549 12.6077C40.4293 12.4279 40.3655 12.2167 40.3659 12.0007C40.3659 11.712 40.4801 11.4351 40.6838 11.2305C40.8875 11.0259 41.164 10.9103 41.4527 10.909L41.4576 10.9106ZM24.0026 2.18339C24.2185 2.18339 24.4297 2.24746 24.6093 2.36748C24.7888 2.48752 24.9288 2.65813 25.0114 2.85772C25.0939 3.05729 25.1154 3.2769 25.0732 3.48871C25.031 3.70054 24.9268 3.89503 24.774 4.04764C24.6212 4.20025 24.4264 4.3041 24.2146 4.34604C24.0026 4.38798 23.7831 4.36615 23.5837 4.28327C23.3842 4.20038 23.2138 4.06019 23.094 3.88045C22.9742 3.7007 22.9105 3.4895 22.9109 3.2735C22.9109 2.98481 23.0252 2.70786 23.2289 2.50327C23.4326 2.29867 23.709 2.18305 23.9977 2.18175L24.0026 2.18339Z" fill="#212A5E"/>
</svg>
