<svg width="225" height="226" viewBox="0 0 225 226" fill="none" xmlns="http://www.w3.org/2000/svg">
<path d="M2.04279 86.8698L0.766335 91.9429M2.04279 86.8698L3.93924 83.4007M2.04279 86.8698L4.5994 89.9659M2.04279 86.8698L18.4179 83.811M0.766335 91.9429V96.1953L4.81453 99.0676M0.766335 91.9429L6.60157 92.3905M0.766335 91.9429L2.51691 95.0238M0.766335 91.9429L4.44983 90.043M4.81453 99.0676L9.77448 103.245M4.81453 99.0676L6.60157 92.3905M4.81453 99.0676L2.51691 95.0238M4.81453 99.0676L10.1392 99.1795M9.77448 103.245L11.8168 102.723M9.77448 103.245L10.1392 99.1795M11.8168 102.723L18.272 101.828M11.8168 102.723L16.1932 99.1795M18.272 101.828L18.3159 101.823M18.272 101.828L19.3661 100.261M27.0614 100.895L29.0307 98.1351L29.979 92.5024M27.0614 100.895L18.3159 101.823M27.0614 100.895L18.4179 90.6M27.0614 100.895L20.6426 100.366M27.0614 100.895L22.1379 99.6271L20.6426 100.366M29.979 92.5024L36.2154 74.5227M29.979 92.5024L26.6345 85.4425M29.979 92.5024L25.712 91.8003M29.979 92.5024L21.7183 84.8182M29.979 92.5024L27.8272 84.4078M29.979 92.5024V89.7047M36.2154 74.5227L38.2577 70.7179L39.2424 68.7036M36.2154 74.5227L33.0789 78.2903M36.2154 74.5227L36.1328 74.55M39.2424 68.7036L43.0718 67.1369M39.2424 68.7036L38.7683 66.1297M39.2424 68.7036L32.0213 69.7107M43.0718 67.1369L44.9682 64.7495M43.0718 67.1369L39.5706 63.6678M44.9682 64.7495L47.5941 65.3837L51.1317 62.1384M44.9682 64.7495L39.753 53.8946M44.9682 64.7495L33.0885 56.472M51.1317 62.1384L52.1529 60.4971M51.1317 62.1384L49.4905 60.9074M52.1529 60.4971L58.5716 54.7525M52.1529 60.4971L49.4905 60.9074M52.1529 60.4971L47.0835 57.2891M58.5716 54.7525L61.3069 62.6979M58.5716 54.7525L51.4964 56.6923M58.5716 54.7525L58.4592 54.8287M61.3069 62.6979L60.7963 66.652M61.3069 62.6979L62.5469 67.3607L64.0422 47.7397M60.7963 66.652L61.3069 67.3607M60.7963 66.652L75.275 62.9217L73.7738 66.9566M60.7963 66.652L73.7068 67.1369M60.7963 66.652L61.3931 67.1807M61.3069 67.3607L58.0975 73.8886M61.3069 67.3607L61.3931 67.1807M58.0975 73.8886L45.7706 86.6087L40.1542 93.0246M58.0975 73.8886L61.9634 76.9474L60.0669 82.9903M58.0975 73.8886L60.0669 82.9903M58.0975 73.8886L64.881 70.2703M40.1542 93.0246L41.613 93.3604M40.1542 93.0246L46.6459 89.5182M40.1542 93.0246L50.4752 95.9342M41.613 93.3604L38.9506 98.1351M41.613 93.3604L43.5459 90.3389M38.9506 98.1351C38.9506 98.1351 40.3288 108.616 41.2118 115.331M38.9506 98.1351L42.9624 100.895M38.9506 98.1351L63.641 109.624M41.2118 115.331C38.4488 117.24 34.1366 120.218 34.1366 120.218M41.2118 115.331C47.3076 108.98 56.8211 99.0676 56.8211 99.0676M41.2118 115.331C49.9709 113.103 63.641 109.624 63.641 109.624M41.2118 115.331L42.9624 100.895M41.2118 115.331C46.4246 116.016 54.5599 117.085 54.5599 117.085M41.2118 115.331L49.9282 121.897M41.2118 115.331L40.7742 121.001M34.1366 120.218L32.7142 121.598M34.1366 120.218L36.3248 122.493L40.7742 121.001M34.1366 120.218L40.7742 121.001M32.7142 121.598L28.1919 122.493L29.906 123.239M32.7142 121.598L28.1919 127.268M32.7142 121.598L34.1366 122.904M32.7142 121.598L29.906 123.239M29.906 123.239L28.1919 127.268M28.1919 127.268L28.9892 129.861M28.1919 127.268L34.1366 122.904M32.0578 139.839L38.4036 139.018M32.0578 139.839L33.1519 132.453M32.0578 139.839L29.7865 132.453M38.4036 139.018L36.3248 143.718H38.4036M38.4036 139.018L33.1519 132.453M38.4036 139.018L48.1776 139.317M38.4036 139.018V143.718M38.4036 139.018L45.2965 141.592M38.4036 143.718L38.8777 150.134M38.4036 143.718L45.2965 141.592M38.4036 143.718L52.554 148.456M38.4036 143.718L48.8705 144.39M38.8777 150.134L44.5671 150.992M38.8777 150.134L45.0673 149.375M44.5671 150.992L41.1753 154.834M44.5671 150.992L45.0673 149.375M44.5671 150.992L47.5211 155.431L41.1753 154.834M44.5671 150.992L52.554 148.456M41.1753 154.834L41.2918 155.127M41.1753 154.834L49.5211 160.803M48.8705 163.451L51.4599 164.309M48.8705 163.451L49.5211 160.803M48.8705 163.451L48.6517 163.358M51.4599 164.309L58.8269 168.823L58.2069 164.011M51.4599 164.309L58.2069 164.011M58.2069 164.011L52.554 148.456M58.2069 164.011L49.5211 160.803M52.554 148.456L52.0435 144.054L51.2411 137.601L48.1776 139.317M52.554 148.456L48.8705 144.39M52.554 148.456L45.0673 149.375M52.554 148.456L49.5211 160.803M52.554 148.456L48.1776 139.317M48.1776 139.317L46.0259 135.773M48.1776 139.317L45.2965 141.592M48.1776 139.317L47.5211 151.477L45.0673 149.375M48.1776 139.317L45.0673 149.375M48.1776 139.317L42.16 137.601M46.0259 135.773L52.0435 133.274M46.0259 135.773L42.16 137.601M46.0259 135.773L43.7282 132.005M52.0435 133.274L53.9399 128.798M52.0435 133.274L43.7282 132.005M52.0435 133.274L49.9282 127.902M53.9399 128.798L59.2281 122.307M53.9399 128.798L52.0435 122.307M53.9399 128.798L49.9282 127.902M59.2281 122.307L61.7081 124.918M59.2281 122.307L62.5142 118.539M61.7081 124.918L62.5142 118.539M61.7081 124.918L62.8217 128.163M61.7081 124.918L65.7638 127.641M61.7081 124.918L65.7638 119.185M63.641 132.005V130.551L62.8217 128.163M63.641 132.005L64.7351 140.921L65.2092 143.718M63.641 132.005L71.0973 131.222M65.2092 143.718H66.1939L64.4069 152.783M65.2092 143.718V135.064M65.2092 143.718L69.3303 144.39M65.2092 143.718L71.0973 131.222M64.4069 152.783L62.7292 163.19M64.4069 152.783L69.3303 144.39M64.4069 152.783H73.5609M64.4069 152.783L75.202 159.982M62.7292 163.19L61.2704 171.136L61.4528 171.31M62.7292 163.19L75.202 159.982M62.7292 163.19L73.1597 170.24M62.7292 163.19L68.0539 175.351M72.2844 180.61L70.7891 180.424L67.9809 175.5L66.0845 174.12L65.9386 175.612L61.4528 171.31M72.2844 180.61L73.1597 170.24M72.2844 180.61L79.3961 169.196M72.2844 180.61L74.8738 181.197M77.062 181.692L80.4173 183.184M77.062 181.692L74.8738 181.197M77.062 181.692L70.7891 175.052L68.0539 175.351M80.4173 183.184L76.7338 184.378L78.3385 185.348M80.4173 183.184L83.4808 184.527M80.4173 183.184L82.6055 182.177M80.4173 183.184L78.3385 185.348M80.4173 183.184L81.6573 186.318M78.3385 185.348L81.6573 186.318M81.6573 186.318L83.4808 184.527M83.4808 184.527L83.0067 183.744L83.9184 182.438L82.6055 182.177M82.6055 182.177L79.3961 169.196M79.3961 169.196L84.9396 168.972M79.3961 169.196L73.1597 170.24M79.3961 169.196L74.8738 181.197M79.3961 169.196L83.2255 160.84M79.3961 169.196L75.202 159.982M79.3961 169.196L86.289 164.421M84.9396 168.972L91.3219 177.253M84.9396 168.972L86.289 164.421M84.9396 168.972L94.1867 172.112M91.3219 177.253L94.9324 180.871M91.3219 177.253L104.925 180.61M91.3219 177.253L94.276 172.143M91.3219 177.253L95.6801 181.468M94.9324 180.871L90.4466 185.348M94.9324 180.871L104.925 180.61M94.9324 180.871L100.038 176.036M94.9324 180.871L104.305 174.679M90.4466 185.348L93.2183 187.138M90.4466 185.348L100.038 185.683M93.2183 187.138L100.038 185.683M93.2183 187.138L100.038 176.036M100.038 185.683L112.62 180.871M100.038 185.683L110.906 172.963L112.62 180.871M100.038 185.683L95.6801 181.468M112.62 180.871L119.295 187.138M112.62 180.871L127.573 174.94M119.295 187.138L125.896 198.665M119.295 187.138L127.573 174.94M125.896 198.665L140.374 212.914L127.573 174.94M125.896 198.665L127.573 174.94M127.573 174.94L143.11 198.254M127.573 174.94L189.755 169.942M127.573 174.94L158.354 156.252M127.573 174.94L129.094 165.459M143.11 198.254L144.97 225L150.878 208.736L143.11 198.254ZM143.11 198.254L189.755 169.942M189.755 169.942V142.45M189.755 169.942L185.342 159.572M189.755 169.942L183.956 194.599M189.755 169.942L208.282 165.093L183.956 194.599M189.755 169.942L224.001 167.331M189.755 169.942L209.996 179.827L224.001 167.331M189.755 169.942L158.354 156.252M189.755 169.942L219.515 187.138M189.755 142.45L181.257 131.334M189.755 142.45L200.514 132.789L204.708 138.384L189.755 142.45ZM189.755 142.45L166.815 133.423M189.755 142.45L224.001 167.331M181.257 131.334L186.108 124.359L160.652 129.506M181.257 131.334L204.708 129.506L179.543 124.918M181.257 131.334L179.543 124.359M181.257 131.334L166.815 133.423M181.257 131.334L160.652 129.506M181.257 131.334L168.383 144.949M181.257 131.334L185.342 159.572M160.652 129.506L151.862 121.934M160.652 129.506L168.383 144.949M160.652 129.506L145.444 134.393M151.862 121.934L141.614 114.138L138.587 90.3016M151.862 121.934L128.813 127.044M151.862 121.934L141.906 118.427L129.141 120.852H122.759M138.587 90.3016L140.228 85.2285L140.238 84.8555M138.587 90.3016L130.345 117.551M138.587 90.3016L120.881 107.75M138.587 90.3016L130.783 84.557M138.587 90.3016L118.784 89.0333M138.587 90.3016L147.304 91.3833L146.611 88.3246L138.952 90.3016M140.775 64.2646L104.159 54.9764M140.775 64.2646L140.238 84.8555M140.775 64.2646L108.463 67.2115M104.159 54.9764L108.463 67.2115M104.159 54.9764L120.881 74.0659M104.159 54.9764L129.069 71.837M108.463 67.2115L100.877 50.3509M108.463 67.2115L84.0643 75.7537M108.463 67.2115L111.417 97.9485M108.463 67.2115L105.691 85.6015M108.463 67.2115L108.126 66.9566M100.877 50.3509L105.582 48.3191M100.877 50.3509L124.765 47.2548M100.877 50.3509L110.359 56.0581L114.262 54.9764M100.877 50.3509L100.366 50.3963M105.801 48.2246L99.0171 38.153M105.801 48.2246L105.582 48.3191M105.801 48.2246L124.765 47.2548M99.0171 38.153L96.9018 37.78L95.6254 36.0824M99.0171 38.153L79.9067 62.9217M99.0171 38.153L74.7279 38.9737M99.0171 38.153L96.3183 30.6553L88.696 35.9895M99.0171 38.153L94.3124 26.8505M99.0171 38.153L87.0549 51.5818M99.0171 38.153L96.9018 37.7096M99.0171 38.153L95.9536 57.7367M99.0171 38.153L95.1512 45.3524M99.0171 38.153L112.11 43.0396M83.2984 19.6884L84.196 20.8821M84.196 20.8821L90.7803 29.6388M84.196 20.8821L83.809 20.7873M79.3232 19.6884L69.3668 31.1402M79.3232 19.6884L88.696 35.9895M79.3232 19.6884L90.6499 29.7367M79.3232 19.6884L94.3124 26.8505M79.3232 19.6884L83.809 20.7873M79.3232 19.6884L62.3281 16.4983M79.3232 19.6884C79.9067 19.798 70.6919 19.2864 66.0115 19.017M79.3232 19.6884L55.3079 20.9353M79.3232 19.6884L75.822 15.9955M30.6354 10.5494L18.6367 15.4733M30.6354 10.5494L33.626 15.6598M30.6354 10.5494L49.3082 16.4804M30.6354 10.5494L35.0848 7.5652L41.54 4.58102L35.8871 7.97552L30.6354 10.5494ZM30.6354 10.5494L62.3281 16.4983M18.6367 15.4733L15.5732 11.4073H12.1815M18.6367 15.4733L16.4485 27.9695M18.6367 15.4733L22.5755 21.367M18.6367 15.4733L33.1519 20.248M18.6367 15.4733L25.3473 14.7272M18.6367 15.4733L49.3082 16.4804M12.1815 11.4073L8.53449 15.4733M12.1815 11.4073L11.8898 22.2996M12.1815 11.4073L14.625 18.5321M12.1815 11.4073L13.458 6.85645L14.625 18.5321M8.53449 15.4733V18.5321L9.11801 24.9853M8.53449 15.4733L14.625 18.5321M8.53449 15.4733L11.8898 22.2996M9.11801 24.9853L9.6286 30.3196M9.11801 24.9853L16.4485 27.9695M9.11801 24.9853L14.625 18.5321M9.6286 30.3196L9.11801 36.6236H11.598M9.6286 30.3196L16.4485 27.9695M9.6286 30.3196L11.8898 22.2996M9.6286 30.3196L11.1239 31.0345M11.598 36.6236L8.53449 42.6666M11.598 36.6236L16.7768 37.5935M11.598 36.6236L16.4485 27.9695M8.53449 42.6666L6.27334 45.427M8.53449 42.6666L16.7768 37.5935M8.53449 42.6666L21.6273 41.5102M8.53449 42.6666L14.7709 44.0841M8.53449 42.6666L5.25217 42.2563M8.53449 42.6666L8.63801 42.7075M6.27334 45.427L2.91808 55.5732M6.27334 45.427L8.42508 52.2533M2.91808 55.5732L4.34042 68.7036M2.91808 55.5732L6.9298 57.1026M2.91808 55.5732L1.98622 51.6565M4.34042 68.7036L3.93924 83.4007M4.34042 68.7036V64.1154M4.34042 68.7036L8.82625 76.9474M4.34042 68.7036L22.9402 63.6678M3.93924 83.4007L18.4179 90.6M3.93924 83.4007L8.82625 76.9474M3.93924 83.4007L6.55323 92.332M3.93924 83.4007L8.2792 69.1885L4.34042 64.1154M6.60157 92.3905L2.51691 95.0238M6.60157 92.3905L10.1392 99.1795M6.60157 92.3905L6.55323 92.332M6.60157 92.3905L18.4179 94.181M6.60157 92.3905L10.5039 96.1953L18.4179 94.181M6.60157 92.3905L8.82625 76.9474M4.5994 89.9659L6.55323 92.332M4.5994 89.9659L4.44983 90.043M10.1392 99.1795L18.4179 94.181M10.1392 99.1795H16.1932M10.1392 99.1795L18.4179 90.6M6.55323 92.332L18.4179 83.811M6.55323 92.332L18.4179 90.6M18.4179 83.811L4.44983 90.043M18.4179 83.811V90.6M18.4179 83.811L11.598 70.0092M18.4179 83.811L8.82625 76.9474M18.4179 83.811L22.9402 63.6678M18.4179 83.811L22.8078 90.7654M18.4179 90.6L23.6696 75.6045M18.4179 90.6L22.4661 91.2661M18.4179 90.6L21.7183 84.8182M18.4179 94.181L16.1932 99.1795M16.1932 99.1795L18.3159 101.823M16.1932 99.1795H19.5485L19.3661 100.261M19.3661 100.261L20.6426 100.366M8.82625 76.9474L4.34042 64.1154M8.82625 76.9474L22.9402 63.6678M8.82625 76.9474L23.6696 75.6045M8.82625 76.9474L11.5523 70.1235M11.598 70.0092L22.6849 53.8946M11.598 70.0092L4.34042 64.1154M11.598 70.0092L23.6696 75.6045M11.598 70.0092L11.5523 70.1235M11.598 70.0092L25.712 72.3592M4.34042 64.1154L6.9298 57.1026M4.34042 64.1154L12.6556 59.4505M4.34042 64.1154L22.6849 63.6739M6.9298 57.1026L8.42508 52.2533M6.9298 57.1026L12.6556 59.4505M6.9298 57.1026L22.9402 63.6678M8.42508 52.2533L15.6462 57.774M8.42508 52.2533L13.6768 49.8659M8.42508 52.2533L6.63804 50.4628M8.42508 52.2533V38.0784M15.6462 57.774L12.6556 59.4505M15.6462 57.774L22.6849 53.8946M15.6462 57.774L22.9402 63.6678M22.6849 53.8946L22.9402 63.6678M22.6849 53.8946L20.4602 49.6421M22.6849 53.8946L24.6543 46.7699M22.6849 53.8946L39.5706 63.6678M22.6849 53.8946L28.9213 48.2246M22.6849 53.8946L29.906 51.358L20.4602 49.6421M22.6849 53.8946L33.0885 56.472M22.9402 63.6678L22.8078 90.7654M22.9402 63.6678L39.522 63.817M22.9402 63.6678L32.0213 69.7107M22.9402 63.6678L33.0885 56.472M22.9402 63.6678L30.1249 54.0811M22.9402 63.6678L22.6849 63.6739M23.6696 75.6045L26.5508 81.7967L24.399 80.122M23.6696 75.6045L25.712 72.3592M23.6696 75.6045L36.1328 74.55M11.5523 70.1235L24.399 80.122M11.5523 70.1235L44.9682 56.5057M24.399 80.122L21.7183 84.8182M26.6345 85.4425L26.5508 85.2658L27.8272 84.4078M26.6345 85.4425L25.712 91.8003M26.6345 85.4425C26.5727 85.3122 24.2386 88.6727 22.8078 90.7654M25.712 91.8003L22.4661 91.2661M22.4661 91.2661C22.5723 91.1102 22.6868 90.9423 22.8078 90.7654M27.8272 84.4078L29.979 89.7047M27.8272 84.4078L32.9836 78.4013M29.979 89.7047L33.0789 78.2903M33.0789 78.2903L28.4108 80.603L29.5413 78.2903M33.0789 78.2903H29.5413M33.0789 78.2903L31.5837 76.0521M33.0789 78.2903L32.9836 78.4013M29.5413 78.2903L31.5837 76.0521M31.5837 76.0521L36.1328 74.55M32.9836 78.4013L34.3189 73.8886L34.7201 72.7322L33.4436 71.5012M33.4436 71.5012L27.9731 74.5227L25.712 72.3592M33.4436 71.5012L25.712 72.3592M33.4436 71.5012L32.0213 69.7107M25.712 72.3592L36.1328 74.55M25.712 72.3592L33.2248 56.5057M44.9682 56.5057L44.7925 56.472M44.9682 56.5057L43.0718 59.0221M44.9682 56.5057L48.8341 51.358M39.5706 63.6678L39.522 63.817M39.5706 63.6678L43.0718 59.0221M39.5706 63.6678L49.4905 60.9074M38.7683 66.1297L39.522 63.817M38.7683 66.1297L32.0213 69.7107M13.6768 49.8659L20.4602 49.6421M13.6768 49.8659L17.4513 46.1874M13.6768 49.8659L7.62274 45.7627M20.4602 49.6421L17.5426 46.0984M17.5426 46.0984L21.6273 41.5102M17.5426 46.0984L17.4513 46.1874M21.6273 41.5102L28.739 44.3825M21.6273 41.5102L31.9119 39.6078L32.6048 42.6666M21.6273 41.5102L32.6048 42.6666M21.6273 41.5102L16.7768 37.5935M21.6273 41.5102L22.3932 25.3211M21.6273 41.5102L7.62274 45.7627M21.6273 41.5102L39.9353 35.9895M28.739 44.3825L17.4513 46.1874M28.739 44.3825L31.6931 37.7427M28.739 44.3825L24.6543 46.7699M28.739 44.3825L28.9213 48.2246M28.739 44.3825L32.6048 42.6666M17.4513 46.1874L24.6543 46.7699M17.4513 46.1874L14.7709 44.0841M17.4513 46.1874L8.63801 42.7075M32.6048 42.6666L33.4072 44.3825L37.5648 40.6523M32.6048 42.6666L37.5648 40.6523M32.6048 42.6666L28.9213 48.2246M16.7768 37.5935L20.2779 35.608M20.4602 35.5046L27.5355 33.2664M20.4602 35.5046L20.2779 35.608M20.4602 35.5046L16.4485 27.9695M20.4602 35.5046L20.4459 35.4916M27.5355 33.2664L31.6931 37.7427M27.5355 33.2664L26.2955 31.4386M27.5355 33.2664L38.4401 27.7084M27.5355 33.2664L39.9353 35.9895M31.6931 37.7427L20.2779 35.608M31.6931 37.7427L38.4401 27.7084M31.6931 37.7427L37.5648 40.6523M31.6931 37.7427L44.6035 38.9737L41.9678 39.6023M20.2779 35.608L20.4459 35.4916M22.3932 25.3211L26.2955 31.4386M22.3932 25.3211L22.302 25.4282M22.3932 25.3211L22.5755 21.367M26.2955 31.4386H15.9744M26.2955 31.4386L20.4459 35.4916M15.9744 31.4386L18.965 29.3497M15.9744 31.4386L16.4485 27.9695M15.9744 31.4386L20.4459 35.4916M18.965 29.3497L16.4485 27.9695M18.965 29.3497L14.625 18.5321M18.965 29.3497L22.2108 25.5354M7.62274 45.7627L6.63804 50.4628M7.62274 45.7627L14.4062 47.2548L14.7709 44.0841M7.62274 45.7627L14.7709 44.0841M7.62274 45.7627L5.25217 42.2563M7.62274 45.7627L0.583984 46.0984M7.62274 45.7627L4.33854 46.7512M7.62274 45.7627L8.42508 38.0784M6.63804 50.4628L3.35572 53.447L1.98622 51.6565M6.63804 50.4628L4.33854 46.7512M16.4485 27.9695L22.5755 21.367M20.4459 35.4916L11.1239 31.0345M14.625 18.5321L22.302 25.4282M14.625 18.5321L22.5755 21.367M22.5755 21.367L33.1519 20.248M22.5755 21.367L39.9353 35.9895M39.522 63.817L32.0213 69.7107M32.0213 69.7107L33.2248 56.5057M33.2248 56.5057L33.0885 56.472M33.0885 56.472L34.6836 54.5287M33.0885 56.472L39.753 53.8946M33.0885 56.472L43.0718 59.0221M33.0885 56.472H44.7925M34.6836 54.5287L36.7989 52.5517M34.6836 54.5287L33.0885 52.5517M34.6836 54.5287L44.7925 56.472M36.7989 52.5517H33.0885M36.7989 52.5517L39.753 53.8946M36.7989 52.5517L44.3847 51.5445M36.7989 52.5517L38.2212 50.6493M36.7989 52.5517L35.2672 50.6493M33.0885 52.5517L35.2672 50.6493M44.9682 56.472L44.3847 51.5445M44.3847 51.5445L39.753 53.8946M44.3847 51.5445L42.3059 48.0008M44.3847 51.5445L36.7989 47.1429L33.2248 49.6421L44.3847 51.5445ZM42.3059 48.0008L38.4401 45.0167M42.3059 48.0008L37.273 48.7842L38.4401 45.0167M42.3059 48.0008L40.2636 49.3251M38.2212 50.6493H35.2672M38.2212 50.6493L40.2636 49.3251M38.2212 50.6493L40.2271 47.3667L40.2636 49.3251M38.4401 45.0167L26.4049 49.6421L30.1249 54.0811M38.4401 45.0167L30.1249 54.0811M38.4401 45.0167L42.3059 47.7397L48.8341 51.358M38.4401 45.0167L50.5482 43.0263M30.1249 54.0811L36.9448 59.0221L22.6849 63.6739M49.4905 60.9074L47.0835 57.2891M49.4905 60.9074L44.7925 56.472M49.4905 60.9074L43.0718 59.0221M49.4905 60.9074L51.4964 56.6923M49.4905 60.9074L58.4592 54.8287M47.0835 57.2891L51.4964 56.6923M44.7925 56.472L58.4592 54.8287M44.7925 56.472L51.2776 56.6851M51.4964 56.6923L51.2776 56.6851M58.4592 54.8287L64.0422 47.7397M58.4592 54.8287L71.1538 46.8072M58.4592 54.8287L56.3469 41.6595M58.4592 54.8287L84.0643 75.7537M64.0422 47.7397L71.1538 46.8072M64.0422 47.7397L61.6351 45.0167M64.0422 47.7397L66.6167 43.6831M64.0422 47.7397L56.3469 46.8072H71.1538M71.1538 46.8072L66.7409 43.4873M71.1538 46.8072L74.7279 38.9737M71.1538 46.8072L62.5469 53.7827M71.1538 46.8072L64.881 70.2703M71.1538 46.8072L73.7738 66.9566M71.1538 46.8072L79.7851 62.6979M71.1538 46.8072L61.3931 67.1807M66.7409 43.4873H58.0975M66.7409 43.4873L61.6351 45.0167M66.7409 43.4873L62.3281 35.5419M66.7409 43.4873L54.2317 38.9737M66.7409 43.4873L66.6167 43.6831M66.7409 43.4873L74.7279 38.9737M58.0975 43.4873L61.6351 45.0167M58.0975 43.4873L56.3469 41.6595M58.0975 43.4873L48.8341 51.358M58.0975 43.4873L62.3281 35.5419M38.4401 27.7084L22.2108 25.5354M38.4401 27.7084H48.1047M38.4401 27.7084L39.9353 35.9895M38.4401 27.7084L47.0835 21.367M38.4401 27.7084L51.2776 35.9895H47.0835M38.4401 27.7084L34.0509 21.5162M22.2108 25.5354L22.302 25.4282M33.1519 20.248L22.302 25.4282M33.1519 20.248L25.3473 14.7272M33.1519 20.248L33.626 15.6598M33.1519 20.248L49.3082 16.4804M33.1519 20.248L53.6117 12.5637L54.0128 16.4804L33.626 15.6598M33.1519 20.248L45.6976 21.5162H34.0509M33.1519 20.248L34.0509 21.5162M25.3473 14.7272L33.626 15.6598M25.3473 14.7272L42.7435 10.5494L33.626 15.6598M33.626 15.6598L53.6117 7.78901L67.8715 12.1161L33.626 15.6598ZM11.8898 22.2996L11.1239 31.0345M39.9353 35.9895L37.5648 40.6523M39.9353 35.9895L48.1047 27.7084M39.9353 35.9895H47.0835M39.9353 35.9895L41.9678 39.6023M37.5648 40.6523L43.6918 42.6666M37.5648 40.6523L41.9678 39.6023M43.6918 42.6666L41.9678 39.6023M43.6918 42.6666L50.6941 41.2491L49.3811 40.6523M48.1047 27.7084L47.0835 35.9895M48.1047 27.7084L47.8884 26.3655M47.0835 35.9895L45.807 39.3467L49.3811 40.6523M47.0835 36.176L49.3811 40.6523M49.3811 40.6523L42.3788 39.6078L41.9678 39.6023M47.0835 21.367L60.2128 11.6311L57.8458 19.6138M47.0835 21.367L54.8152 29.8346M47.0835 21.367L47.1075 21.5162M54.8152 29.8346L54.8733 29.6388M54.8152 29.8346L55.2965 23.7862M47.8884 26.3655L49.3082 25.5822L47.1075 21.5162M47.8884 26.3655L47.1075 21.5162M5.25217 42.2563L0.583984 45.7627L1.05435 47.7397M5.25217 42.2563L5.1561 42.3818M5.25217 42.2563L10.2121 38.638L8.42508 38.0784M1.05435 47.7397L1.98622 51.6565M1.05435 47.7397L4.33854 46.7512M1.05435 47.7397L5.1561 42.3818M1.98622 51.6565L4.33854 46.7512M8.63801 42.7075L5.5804 40.2047L5.1561 42.3818M5.1561 42.3818L8.42508 38.0784M48.8341 51.358L50.6941 43.0023M50.6941 43.0023L56.3469 41.6595M50.6941 43.0023L50.5482 43.0263M56.3469 41.6595L50.6941 42.6666L51.2776 56.6851M62.3281 35.5419L59.0093 30.6553M62.3281 35.5419L54.2317 38.9737M62.3281 35.5419L69.3668 31.1402M62.3281 35.5419L68.4909 35.9817M54.2317 38.9737L59.0093 30.6553M59.0093 30.6553L69.3668 31.1402M69.3668 31.1402L88.696 35.9895M69.3668 31.1402L74.7279 38.9737M69.3668 31.1402L66.1767 19.6138M68.6009 35.9895L66.6167 43.6831M68.6009 35.9895L74.3997 38.8138M68.6009 35.9895L68.4909 35.9817M74.7279 38.9737L73.7738 66.9566M74.7279 38.9737L79.9067 62.9217M74.7279 38.9737L74.3997 38.8138M74.7279 38.9737L90.6499 29.7367M74.7279 38.9737L87.0549 51.5818M62.5469 53.7827L50.5482 43.0263M62.5469 53.7827L64.881 70.2703M64.881 70.2703L61.9634 77.1712M64.881 70.2703L61.3931 67.1807M73.7068 67.1369L73.7738 66.9566M73.7068 67.1369L60.0669 82.9903M73.7068 67.1369L79.9067 62.9217M73.7068 67.1369L77.7914 82.9903M84.0643 75.7537L89.936 81.0133M84.0643 75.7537L77.7914 82.9903M84.0643 75.7537L79.3232 89.0333M84.0643 75.7537L83.7361 75.7748M61.9634 77.1712L73.7738 66.9566M61.9634 77.1712L83.7361 75.7748M61.9634 77.1712L79.3232 89.0333M61.9634 77.1712L61.3931 67.1807M60.0669 82.9903L45.5153 86.6087L46.6459 89.5182M60.0669 82.9903L56.8211 99.0676M60.0669 82.9903L79.3232 89.0333M60.0669 82.9903L46.6459 89.5182M60.0669 82.9903L77.5361 82.6919M79.9067 62.9217L95.9536 57.7367M79.9067 62.9217L79.7851 62.6979M79.9067 62.9217L77.7914 82.9903M74.3997 38.8138L88.696 35.9895M88.696 35.9895L66.0115 19.017M88.696 35.9895L94.3124 26.8505M88.696 35.9895L96.9018 37.7096M68.4909 35.9817L90.5195 29.8346M90.5195 29.8346L90.6499 29.7367M90.5195 29.8346L94.3124 26.8505M90.7803 29.6388L90.6499 29.7367M90.7803 29.6388L95.6254 36.0824M90.7803 29.6388L101.716 32.222M90.6499 29.7367L57.8458 19.6138M66.0115 19.017L55.3079 20.9353M66.0115 19.017L62.3281 16.4983M66.0115 19.017L66.1767 19.6138M66.0115 19.017L60.2128 18.5112M94.3124 26.8505L101.716 32.222M94.3124 26.8505L111.709 31.4759M94.3124 26.8505L98.5794 24.1274H114.262L94.3124 26.8505ZM94.3124 26.8505L93.583 22.7845L83.809 20.7873M95.6254 36.0824C96.4642 34.808 98.2293 32.1698 98.5794 31.8117L102.044 35.057M95.6254 36.0824L102.044 35.057M95.6254 36.0824L87.0549 51.5818M102.044 35.057L115.319 35.6538L110.031 36.5863L102.044 35.057ZM101.716 32.222L111.709 31.4759M111.709 31.4759L115.319 27.7084L126.151 29.8346L111.709 31.4759ZM87.0549 51.5818L100.877 42.7039M87.0549 51.5818L95.9536 57.7367M87.0549 51.5818L100.366 50.3963M100.877 42.7039L96.9018 37.7096M100.877 42.7039L129.069 40.615L112.11 43.0396M100.877 42.7039L112.11 43.0396M95.9536 57.7367L108.126 66.9566M105.582 48.3191L95.1512 45.3524M95.1512 45.3524L112.11 43.0396M112.11 43.0396L124.765 47.2548M112.11 43.0396L128.558 45.7627M54.8733 29.6388L79.3232 27.7084L55.3258 23.4187L55.2965 23.7862M54.8733 29.6388L57.8458 19.6138M49.5386 20.248L47.3753 19.6138L38.7683 22.8964L53.3564 21.367L49.5386 20.248ZM49.5386 20.248L55.3258 16.4804L55.3193 18.0844M49.5386 20.248L55.2965 23.7862M55.2965 23.7862L55.3079 20.9353M55.3193 18.0844L55.3079 20.9353M55.3193 18.0844L60.2128 18.5112M62.3281 16.4983L68.6009 18.5694L66.1767 19.6138M62.3281 16.4983L76.6244 13.2724L60.2128 18.5112M62.3281 16.4983L60.2128 18.5112M62.3281 16.4983L75.822 15.9955M79.7851 62.6979L89.8167 80.7981M89.936 81.0133L77.7914 82.9903M89.936 81.0133L93.5101 82.9903M89.936 81.0133L89.8167 80.7981M77.7914 82.9903L75.9314 99.0676M79.3232 89.0333L100.512 111.004M79.3232 89.0333L56.8211 99.0676M79.3232 89.0333L46.6459 89.5182M79.3232 89.0333L75.9314 99.0676M100.512 111.004L98.2147 91.3833M100.512 111.004L105.691 85.6015M100.512 111.004L111.417 97.9485M100.512 111.004L114.262 117.831M100.512 111.004L112.037 118.689M100.512 111.004L101.45 116.152M100.512 111.004L56.8211 99.0676M100.512 111.004L75.9314 99.0676M100.512 111.004L88.3678 117.085M100.512 111.004L79.8338 109.997M100.512 111.004L121 107.873M100.512 111.004L104.269 99.9256M98.2147 91.3833L87.3466 86.8154M98.2147 91.3833L89.8167 80.7981M98.2147 91.3833L104.269 99.9256M98.2147 91.3833L89.936 84.8555L104.269 99.9256M77.5361 82.6919L75.275 92.9873L75.9314 99.0676M77.5361 82.6919L87.3466 86.8154M77.5361 82.6919L50.4752 95.9342M75.9314 99.0676L87.3466 86.8154M75.9314 99.0676L105.363 85.7518M75.9314 99.0676L46.6459 89.5182M75.9314 99.0676L63.641 109.624M75.9314 99.0676H56.8211M75.9314 99.0676L50.4752 95.9342M75.9314 99.0676L85.2678 99.8996M75.9314 99.0676L79.8338 109.997M75.9314 99.0676L78.8126 114.175M75.9314 99.0676L111.417 97.9485M83.7361 75.7748L87.3466 86.8154M87.3466 86.8154L93.5101 82.9903M87.3466 86.8154L85.5596 99.9256M93.5101 82.9903L111.417 97.9485M105.691 85.6015L105.363 85.7518M105.691 85.6015L118.784 89.0333M105.691 85.6015L111.47 98.3216M111.417 97.9485L108.126 66.9566M111.417 97.9485L130.345 106.752M111.417 97.9485L122.759 120.852M111.417 97.9485L120.881 107.75M111.417 97.9485L118.784 89.0333M111.417 97.9485L128.631 95.8596M111.417 97.9485L111.47 98.3216M105.363 85.7518L129.069 75.7748M129.069 75.7748L108.126 66.9566M129.069 75.7748V71.837M129.069 75.7748L139.703 84.557M129.069 75.7748L115.283 72.4338L129.069 71.837M129.069 75.7748L138.113 73.4783L134.32 103.32M129.069 75.7748L134.32 103.32M108.126 66.9566L120.881 74.0659M114.262 117.831L122.759 120.852M114.262 117.831L112.037 118.689M114.262 117.831L130.345 106.752M114.262 117.831L111.47 98.3216M112.037 118.689L105.691 121.225M112.037 118.689L106.767 117.551M112.037 118.689V122.755M112.037 118.689L122.759 126.373M101.497 116.413L97.0112 121.71M101.497 116.413L101.45 116.152M101.497 116.413L106.767 117.551M97.0112 121.71L105.363 121.243M97.0112 121.71H94.9689M97.0112 121.71L98.543 133.498M105.691 121.225L101.45 116.152M105.691 121.225L105.363 121.243M112.037 122.755L105.363 121.243M112.037 122.755L114.262 123.505M106.767 117.551L110.906 128.648M106.767 117.551L117.273 126.373M110.906 128.648L119.623 132.789L119.203 130.215M110.906 128.648L101.971 124.694L88.149 126.336M110.906 128.648L111.563 129.069M118.784 127.641L117.273 126.373M118.784 127.641L123.999 137.041M118.784 127.641L119.203 130.215M122.759 126.373L114.262 123.505M122.759 126.373V120.852M122.759 126.373L128.813 127.044M122.759 126.373L125.932 132.117L128.813 127.044M122.759 126.373L121.957 132.117M122.759 126.373H117.273M122.759 120.852L114.262 123.505M122.759 120.852L130.345 106.752M122.759 120.852L128.813 127.044M130.345 106.752L130.069 104.999M130.345 106.752L120.881 107.75M130.345 106.752L134.32 103.32M130.345 106.752L129.141 119.733M130.345 117.551L140.666 113.504L132.278 105.26L130.345 117.551ZM130.345 117.551L121 107.873M120.881 107.75L130.655 84.8555M120.881 107.75L121 107.873M120.881 107.75L128.631 95.8596M120.881 107.75L130.069 104.999M130.783 84.557L140.238 84.8555M130.783 84.557L130.655 84.8555M118.784 89.0333L128.631 95.8596M128.631 95.8596L140.238 84.8555M128.631 95.8596L130.016 104.663M140.238 84.8555L126.333 82.2443L135.56 68.3306M140.238 84.8555L135.56 68.3306M140.238 84.8555L139.703 84.557M140.238 84.8555L149.31 73.1799L129.069 71.837M135.56 68.3306L130.655 84.8555M139.703 84.557L129.069 71.837M139.703 84.557L120.881 74.0659M129.069 71.837L120.881 74.0659M46.6459 89.5182L56.8211 99.0676M56.8211 99.0676L63.641 109.624M56.8211 99.0676L42.9624 100.895M56.8211 99.0676L54.5599 117.085M56.8211 99.0676L79.8338 109.997M43.5459 90.3389L42.9624 100.895M43.5459 90.3389L50.4752 95.9342M42.9624 100.895L52.0435 122.307M63.641 109.624L50.4752 95.9342M63.641 109.624L42.3424 111.004L50.4752 95.9342M63.641 109.624L54.5599 117.085M63.641 109.624L79.8338 109.997M63.641 109.624L78.8126 114.175M63.641 109.624L70.6068 113.69M63.641 109.624L65.8657 115.257M63.641 109.624L62.5142 118.539M54.5599 117.085L62.5142 118.539M54.5599 117.085C54.5599 117.085 51.737 120.017 49.9282 121.897M54.5599 117.085L40.7742 121.001M79.8338 109.997L84.0643 116.094M79.8338 109.997L85.8112 114.961M85.5596 99.9256L95.6983 102.499M85.5596 99.9256L85.2678 99.8996M95.6983 102.499L94.0207 119.733M95.6983 102.499L68.1998 115.742M94.0207 119.733L94.9689 121.71M94.0207 119.733L85.2678 99.8996M94.0207 119.733L75.3844 117.681M94.0207 119.733L87.1643 117.227M94.9689 121.71L98.543 133.498M88.3678 117.085L87.1643 117.227M88.3678 117.085L85.8112 114.961M78.8126 114.175L80.9643 114.961M70.6068 113.69L65.8657 115.257M70.6068 113.69L79.2502 115.033L73.8162 116.227M70.6068 113.69L73.8162 116.227M65.8657 115.257L68.1998 115.742M65.8657 115.257L62.5142 118.539M65.8657 115.257L70.4244 116.749L62.5142 118.539M68.1998 115.742L65.7638 127.641M68.1998 115.742L65.7638 119.185M124.765 47.2548L128.558 45.7627M124.765 47.2548L149.31 51.8057L128.558 45.7627M114.262 54.9764L100.366 50.3963M114.262 54.9764L147.679 60.3832M114.262 54.9764L112.475 56.0581L147.377 60.4225M147.377 60.4225L179.434 72.4338L157.698 59.0796L147.679 60.3832M147.377 60.4225L147.679 60.3832M130.069 104.999L130.016 104.663M130.016 104.663L134.32 103.32M130.016 104.663L133.299 98.7692M134.32 103.32L151.06 100.485M133.554 98.7692L151.06 100.485M151.06 100.485L159.485 88.9587L160.98 90.3016L151.06 100.485ZM52.0435 122.307L62.5142 118.539M52.0435 122.307L51.8246 125.105L49.1623 123.239L52.0435 122.307ZM49.9282 121.897L50.7305 123.724L48.1776 125.59V122.904M49.9282 121.897L48.1776 122.904M33.1519 132.453L42.16 137.601M33.1519 132.453L37.966 131.564M38.4036 131.483L42.16 137.601M38.4036 131.483L40.7742 127.268M38.4036 131.483L35.6319 125.59M38.4036 131.483L37.966 131.564M42.16 137.601L43.7282 132.005M42.16 137.601L40.7742 127.268M43.7282 132.005L49.9282 127.902M43.7282 132.005L40.7742 127.268M49.9282 127.902L40.7742 127.268M40.7742 127.268L35.6319 125.59M40.7742 127.268L36.3248 122.904L32.7142 123.724L40.7742 127.268ZM40.7742 127.268V121.001M40.7742 127.268L48.1776 122.904M35.6319 125.59L29.7865 132.453M29.7865 132.453L37.966 131.564M29.7865 132.453L28.9892 129.861M37.966 131.564L31.0001 130.242M28.9892 129.861L31.0001 130.242M34.1366 122.904L31.0001 130.242M40.7742 121.001L48.1776 122.904M45.2965 141.592L48.8705 144.39M48.8705 144.39L45.0673 149.375M49.5211 160.803L46.3906 161.25L45.2965 153.939L49.5211 160.803ZM41.2918 155.127L43.7282 161.25L48.6517 163.358M41.2918 155.127L48.6517 163.358M53.2834 167.368L47.1929 168.151L46.6823 166.324L53.2834 167.368ZM53.2834 167.368L48.1776 170.651L52.8093 171.732M53.2834 167.368L52.8093 171.732M52.8093 171.732L54.0493 169.905L55.7269 172.59L52.8093 171.732ZM75.822 15.9955L97.85 17.0027L102.518 19.6138L75.822 15.9955ZM166.815 133.423L128.813 127.044M168.383 144.949L185.342 159.572M168.383 144.949L145.444 134.393M185.342 159.572L158.354 156.252M183.956 194.599L219.515 186.318V187.138M183.956 194.599L219.515 193.629V187.138M158.354 156.252L150.878 151.477M158.354 156.252V151.477H150.878M158.354 156.252L129.141 165.764M145.444 134.393L150.878 151.477M145.444 134.393L130.016 142.45M145.444 134.393L141.614 118.689M145.444 134.393L145.152 134.313M150.878 151.477L160.652 136.668M150.878 151.477L125.896 144.949M150.878 151.477L129.141 165.764M160.652 136.668L141.614 118.689M160.652 136.668L129.141 119.733M160.652 136.668L127.573 129.506M141.614 118.689L130.016 142.45M130.016 142.45L114.832 145.048M130.016 142.45L125.896 144.949M130.016 142.45L129.141 138.347M130.016 142.45L125.004 140.324L129.141 138.347M130.016 142.45L125.494 141.928L123.999 137.041M130.016 142.45L123.999 137.041M129.141 119.733L128.573 123.277M127.573 129.506L145.152 134.313M127.573 129.506L128.573 123.277M125.896 144.949L129.094 165.459M125.896 144.949H115.028M125.896 144.949L128.449 134.281M125.896 144.949L123.16 141.779M129.141 165.764L129.094 165.459M129.094 165.459L119.003 169.718L113.824 167.331M129.094 165.459L113.824 167.331M129.094 165.459L115.028 144.949M104.925 180.61L104.305 174.679M104.925 180.61L100.184 175.798M100.184 175.798L100.038 176.036M100.184 175.798L99.0171 172.963M100.184 175.798L94.1867 172.112M100.184 175.798L103.138 172.112M104.305 174.679L103.138 172.112M104.305 174.679L99.0171 172.963M104.305 174.679L95.6801 181.468M113.824 167.331L115.028 144.949M113.824 167.331L91.3219 156.923M113.824 167.331L99.0171 169.196M115.028 144.949L113.168 141.182M115.028 144.949L117.726 137.862M115.028 144.949L114.832 145.048M115.028 144.949L110.177 142.935L113.168 141.182M115.028 144.949L103.891 137.041M91.3219 156.923L94.6407 136.668M91.3219 156.923L80.6726 139.727M91.3219 156.923L82.0949 158.826M91.3219 156.923L91.392 157.035M91.3219 156.923L100.399 134.803M91.3219 156.923L114.832 145.048M99.0171 169.196L91.392 157.035M99.0171 169.196L96.5736 170.427M99.0171 169.196L103.138 172.112M94.6407 136.668L100.476 134.617M94.6407 136.668L80.6726 139.727M94.6407 136.668L88.149 126.336M100.476 134.617L88.149 126.336M100.476 134.617L109.995 137.489M100.476 134.617L100.399 134.803M100.476 134.617L113.168 141.182M100.476 134.617L103.891 137.041M80.6726 139.727L82.0949 158.826M80.6726 139.727L78.4114 145.807L65.2092 135.064M80.6726 139.727L77.5726 150.619M80.6726 139.727L77.5726 143.383M80.6726 139.727L75.6032 138.198M80.6726 139.727L75.202 146.255M80.6726 139.727L82.9337 133.721M80.6726 139.727L71.0973 131.222M82.0949 158.826L77.5726 150.619M82.0949 158.826L73.5609 152.783M82.0949 158.826L90.0089 165.428M82.0949 158.826L79.4326 159.162L83.2255 160.84M82.0949 158.826L83.2255 160.84M65.2092 135.064L75.6032 138.198M65.2092 135.064L69.3303 144.39M77.5726 150.619L69.3303 144.39M77.5726 150.619V143.383M77.5726 150.619L73.5609 152.783M69.3303 144.39L77.5726 143.383M69.3303 144.39L71.1174 131.073M69.3303 144.39L74.6915 133.721M69.3303 144.39L73.5609 152.783M69.3303 144.39L75.202 146.255M75.202 146.255L75.6032 138.198M75.202 146.255L73.5609 152.783M75.6032 138.198L74.6915 133.721M75.6032 138.198L82.9337 133.721M74.6915 133.721H82.9337M74.6915 133.721L84.1008 127.641M74.6915 133.721L79.2502 121.449M74.6915 133.721L71.1174 131.073M82.9337 133.721L82.569 132.789M82.9337 133.721L71.1174 131.073M82.569 132.789L84.1008 127.641M82.569 132.789L81.1467 125.59M84.1008 127.641L83.7361 124.433M84.1008 127.641L79.2502 121.449M84.1008 127.641L71.0973 131.222M83.7361 124.433L81.1467 125.59M83.7361 124.433L87.1643 117.227M83.7361 124.433L84.0643 116.094M81.1467 125.59L71.0973 131.222M79.2502 121.449L75.3844 117.681M79.2502 121.449L72.6856 122.307M79.2502 121.449L80.9643 114.961M79.2502 121.449L87.1643 117.227M73.5609 152.783L75.202 159.982M75.202 159.982L83.2255 160.84M71.0973 131.222L62.8217 128.163M71.0973 131.222L72.6856 122.307M71.0973 131.222L65.7638 127.641M73.1597 170.24L68.0539 175.351M73.1597 170.24L61.4528 171.31M86.289 164.421L90.7019 167.144M86.289 164.421L90.0089 165.428M90.7019 167.144L90.0089 165.428M90.7019 167.144L96.5736 170.427M90.7019 167.144L94.1867 172.112M90.0089 165.428L91.392 157.035M94.276 172.143L94.1867 172.112M94.276 172.143L99.0171 172.963M94.1867 172.112L96.5736 170.427M96.5736 170.427L103.138 172.112M99.0171 172.963L103.138 172.143M145.152 134.313L128.573 123.277M128.573 123.277L126.844 129.693M72.6856 122.307L62.8217 128.163M72.6856 122.307L67.6162 119.509L73.1232 115.257L72.6856 122.307ZM72.6856 122.307L75.3844 117.681M73.8162 116.227L75.3844 117.681M75.3844 117.681L70.2421 119.509L69.6586 117.681H75.3844ZM62.8348 116.003L65.7638 119.185M80.9643 114.961L84.0643 116.094M87.1643 117.227L86.3619 116.934M84.0643 116.094L86.3619 116.934M85.8112 114.961L86.3619 116.934M98.543 133.498L90.1184 120.852L102.956 130.439M98.543 133.498L102.956 130.439M102.956 130.439L109.995 137.489M102.956 130.439L100.399 134.803M102.956 130.439L111.563 129.069M102.956 130.439L116.559 134.467M109.995 137.489L116.559 134.467M109.995 137.489L114.043 138.461M109.995 137.489L109.593 131.409L103.891 137.041M109.995 137.489L103.913 137.057L103.891 137.041M117.726 137.862L123.16 141.779M117.726 137.862L114.189 138.496M117.726 137.862L123.999 137.041M123.16 141.779L114.832 145.048M123.16 141.779L128.449 134.281M129.141 138.347L128.449 134.467M129.141 138.347L123.999 137.041M123.999 137.041L121.957 132.117M123.999 137.041L123.817 136.924M123.999 137.041L125.932 135.842M121.957 132.117L117.75 137.859L113.715 135.661L114.189 138.496M121.957 132.117L126.844 129.693M121.957 132.117L128.449 134.281M121.957 132.117L125.932 135.842M114.189 138.496L116.559 134.467M114.189 138.496L114.043 138.461M116.559 134.467L111.563 129.069M114.043 138.461L107.588 140.137L112.073 142.45L114.043 138.461ZM128.449 134.281L126.844 129.693M128.449 134.281L125.932 135.842M119.203 130.215L123.817 136.924M123.817 136.924L111.563 129.069M54.0128 1.29842L66.4127 3.38734L60.2128 1L54.0128 1.29842ZM87.8572 91.9429L99.7465 84.557L101.497 86.3848L87.8572 91.9429ZM135.56 29.2005L136.764 32.9307L149.893 18.1963L135.56 29.2005ZM68.4909 13.9812L73.7432 8.46045H81.1467L68.4909 13.9812ZM85.5596 7.37868L94.3124 6.78185L105.582 8.46045L85.5596 7.37868ZM97.4853 14.8018L98.5794 13.9812L108.135 15.9955L97.4853 14.8018ZM108.135 18.0844L112.11 18.5112L112.475 16.4983L108.135 18.0844ZM109.666 20.9353L119.805 14.8018H121.155L109.666 20.9353ZM85.5596 14.8018L90.5195 15.3241L92.2336 13.2724L85.5596 14.8018ZM163.569 31.4759L187.275 30.6553L184.029 31.9609L163.569 31.4759ZM55.1799 178.074L60.4316 179.827V174.567L55.1799 178.074ZM155.801 76.3505L164.554 78.7379L174.693 77.5069L155.801 76.3505Z" stroke="white" stroke-width="0.2"/>
<ellipse cx="0.839418" cy="96.3074" rx="0.692934" ry="0.708743" fill="white"/>
<ellipse cx="4.85016" cy="98.9929" rx="0.692934" ry="0.708743" fill="white"/>
<ellipse cx="9.81012" cy="102.798" rx="0.692934" ry="0.708743" fill="white"/>
<ellipse cx="18.272" cy="101.754" rx="0.692934" ry="0.708743" fill="white"/>
<ellipse cx="11.9253" cy="102.574" rx="0.474113" ry="0.484929" fill="white"/>
<ellipse cx="26.8788" cy="100.709" rx="0.619994" ry="0.634138" fill="white"/>
<ellipse cx="28.994" cy="98.0238" rx="0.619994" ry="0.634138" fill="white"/>
<ellipse cx="30.2343" cy="92.6517" rx="0.619994" ry="0.634138" fill="white"/>
<ellipse cx="29.6503" cy="78.1791" rx="0.619994" ry="0.634138" fill="white"/>
<ellipse cx="36.1415" cy="74.5238" rx="0.619994" ry="0.634138" fill="white"/>
<ellipse cx="39.2782" cy="68.7045" rx="0.619994" ry="0.634138" fill="white"/>
<ellipse cx="43.1444" cy="67.0629" rx="0.619994" ry="0.634138" fill="white"/>
<ellipse cx="39.6434" cy="63.6302" rx="0.619994" ry="0.634138" fill="white"/>
<ellipse cx="38.8039" cy="66.1302" rx="0.437643" ry="0.447627" fill="white"/>
<ellipse cx="33.3341" cy="56.5062" rx="0.437643" ry="0.447627" fill="white"/>
<ellipse cx="34.7193" cy="54.715" rx="0.583523" ry="0.596836" fill="white"/>
<ellipse cx="38.44" cy="45.0168" rx="0.583523" ry="0.596836" fill="white"/>
<ellipse cx="44.8944" cy="64.8246" rx="0.619994" ry="0.634138" fill="white"/>
<ellipse cx="47.7391" cy="65.4212" rx="0.619994" ry="0.634138" fill="white"/>
<ellipse cx="52.0428" cy="60.5716" rx="0.619994" ry="0.634138" fill="white"/>
<ellipse cx="58.5341" cy="54.6781" rx="0.619994" ry="0.634138" fill="white"/>
<ellipse cx="18.3456" cy="90.638" rx="0.619994" ry="0.634138" fill="white"/>
<ellipse cx="6.74695" cy="92.2787" rx="0.619994" ry="0.634138" fill="white"/>
<ellipse cx="0.619994" cy="92.055" rx="0.619994" ry="0.634138" fill="white"/>
<ellipse cx="1.85925" cy="87.1322" rx="0.619994" ry="0.634138" fill="white"/>
<ellipse cx="10.5389" cy="96.2328" rx="0.619994" ry="0.634138" fill="white"/>
<ellipse cx="3.90222" cy="83.2513" rx="0.619994" ry="0.634138" fill="white"/>
<ellipse cx="8.78894" cy="76.9105" rx="0.619994" ry="0.634138" fill="white"/>
<ellipse cx="18.3456" cy="83.849" rx="0.619994" ry="0.634138" fill="white"/>
<ellipse cx="23.6698" cy="75.642" rx="0.619994" ry="0.634138" fill="white"/>
<ellipse cx="26.368" cy="81.6107" rx="0.619994" ry="0.634138" fill="white"/>
<ellipse cx="22.7209" cy="90.7129" rx="0.547053" ry="0.559534" fill="white"/>
<ellipse cx="11.5614" cy="70.1214" rx="0.619994" ry="0.634138" fill="white"/>
<ellipse cx="4.55847" cy="64.3021" rx="0.619994" ry="0.634138" fill="white"/>
<ellipse cx="4.48523" cy="68.8539" rx="0.619994" ry="0.634138" fill="white"/>
<ellipse cx="2.80847" cy="55.723" rx="0.619994" ry="0.634138" fill="white"/>
<ellipse cx="8.4237" cy="52.0677" rx="0.619994" ry="0.634138" fill="white"/>
<ellipse cx="13.6398" cy="49.8666" rx="0.437643" ry="0.447627" fill="white"/>
<ellipse cx="20.2776" cy="49.6431" rx="0.656464" ry="0.67144" fill="white"/>
<ellipse cx="17.5061" cy="46.2105" rx="0.656464" ry="0.67144" fill="white"/>
<ellipse cx="14.296" cy="47.18" rx="0.437643" ry="0.447627" fill="white"/>
<ellipse cx="14.7345" cy="44.1967" rx="0.437643" ry="0.447627" fill="white"/>
<ellipse cx="7.54938" cy="45.8005" rx="0.692934" ry="0.708743" fill="white"/>
<ellipse cx="22.5393" cy="53.8951" rx="0.656464" ry="0.67144" fill="white"/>
<ellipse cx="28.5197" cy="44.4205" rx="0.656464" ry="0.67144" fill="white"/>
<ellipse cx="32.677" cy="42.5552" rx="0.656464" ry="0.67144" fill="white"/>
<ellipse cx="33.3706" cy="44.234" rx="0.474113" ry="0.484929" fill="white"/>
<ellipse cx="21.6997" cy="41.6226" rx="0.474113" ry="0.484929" fill="white"/>
<ellipse cx="8.57049" cy="42.667" rx="0.547053" ry="0.559534" fill="white"/>
<ellipse cx="0.619319" cy="46.0244" rx="0.547053" ry="0.559534" fill="white"/>
<ellipse cx="5.72576" cy="40.205" rx="0.547053" ry="0.559534" fill="white"/>
<ellipse cx="8.42461" cy="37.967" rx="0.401172" ry="0.410325" fill="white"/>
<ellipse cx="10.1756" cy="38.7883" rx="0.401172" ry="0.410325" fill="white"/>
<ellipse cx="9.1532" cy="36.4007" rx="0.619994" ry="0.634138" fill="white"/>
<ellipse cx="20.3143" cy="35.7289" rx="0.619994" ry="0.634138" fill="white"/>
<ellipse cx="9.51941" cy="30.0589" rx="0.619994" ry="0.634138" fill="white"/>
<ellipse cx="16.0839" cy="31.3265" rx="0.619994" ry="0.634138" fill="white"/>
<ellipse cx="26.2948" cy="31.3265" rx="0.619994" ry="0.634138" fill="white"/>
<ellipse cx="27.535" cy="33.3421" rx="0.619994" ry="0.634138" fill="white"/>
<ellipse cx="38.4764" cy="27.8207" rx="0.619994" ry="0.634138" fill="white"/>
<ellipse cx="66.704" cy="43.7865" rx="0.619994" ry="0.634138" fill="white"/>
<ellipse cx="74.7274" cy="38.7132" rx="0.619994" ry="0.634138" fill="white"/>
<ellipse cx="71.0812" cy="46.7705" rx="0.547053" ry="0.559534" fill="white"/>
<ellipse cx="95.8079" cy="57.7365" rx="0.765874" ry="0.783347" fill="white"/>
<ellipse cx="79.8333" cy="63.258" rx="0.765874" ry="0.783347" fill="white"/>
<ellipse cx="75.0184" cy="62.8849" rx="0.401172" ry="0.410325" fill="white"/>
<ellipse cx="73.7056" cy="67.0623" rx="0.692934" ry="0.708743" fill="white"/>
<ellipse cx="61.0151" cy="66.8384" rx="0.474113" ry="0.484929" fill="white"/>
<ellipse cx="62.0718" cy="77.0216" rx="0.583523" ry="0.596836" fill="white"/>
<ellipse cx="60.1763" cy="82.9162" rx="0.583523" ry="0.596836" fill="white"/>
<ellipse cx="45.661" cy="86.6463" rx="0.510583" ry="0.522232" fill="white"/>
<ellipse cx="46.7916" cy="89.5935" rx="0.692934" ry="0.708743" fill="white"/>
<ellipse cx="39.0591" cy="98.3962" rx="0.692934" ry="0.708743" fill="white"/>
<ellipse cx="56.9293" cy="99.0681" rx="0.692934" ry="0.708743" fill="white"/>
<ellipse cx="75.9673" cy="98.6951" rx="0.692934" ry="0.708743" fill="white"/>
<ellipse cx="85.3775" cy="100.113" rx="0.692934" ry="0.708743" fill="white"/>
<ellipse cx="95.8072" cy="102.649" rx="0.692934" ry="0.708743" fill="white"/>
<ellipse cx="78.7388" cy="114.063" rx="0.692934" ry="0.708743" fill="white"/>
<ellipse cx="41.9781" cy="137.489" rx="0.692934" ry="0.708743" fill="white"/>
<ellipse cx="48.1041" cy="139.355" rx="0.692934" ry="0.708743" fill="white"/>
<ellipse cx="52.5174" cy="148.494" rx="0.510583" ry="0.522232" fill="white"/>
<ellipse cx="51.4954" cy="164.309" rx="0.875285" ry="0.895254" fill="white"/>
<ellipse cx="58.7541" cy="168.749" rx="0.547053" ry="0.559534" fill="white"/>
<ellipse cx="55.7629" cy="172.554" rx="0.547053" ry="0.559534" fill="white"/>
<ellipse cx="54.0493" cy="169.905" rx="0.364702" ry="0.373022" fill="white"/>
<ellipse cx="52.8451" cy="171.733" rx="0.255291" ry="0.261116" fill="white"/>
<ellipse cx="48.1411" cy="170.651" rx="0.364702" ry="0.373022" fill="white"/>
<ellipse cx="47.1928" cy="168.189" rx="0.364702" ry="0.373022" fill="white"/>
<ellipse cx="53.3556" cy="167.405" rx="0.547053" ry="0.559534" fill="white"/>
<ellipse cx="55.1052" cy="167.779" rx="0.182351" ry="0.186511" fill="white"/>
<ellipse cx="46.5727" cy="166.361" rx="0.474113" ry="0.484929" fill="white"/>
<ellipse cx="60.4302" cy="174.494" rx="0.474113" ry="0.484929" fill="white"/>
<ellipse cx="55.2163" cy="177.963" rx="0.364702" ry="0.373022" fill="white"/>
<ellipse cx="60.4678" cy="179.827" rx="0.218821" ry="0.223813" fill="white"/>
<ellipse cx="58.2065" cy="163.936" rx="0.364702" ry="0.373022" fill="white"/>
<ellipse cx="49.5258" cy="160.728" rx="0.364702" ry="0.373022" fill="white"/>
<ellipse cx="48.7973" cy="163.414" rx="0.364702" ry="0.373022" fill="white"/>
<ellipse cx="46.4265" cy="161.214" rx="0.182351" ry="0.186511" fill="white"/>
<ellipse cx="45.3327" cy="153.977" rx="0.182351" ry="0.186511" fill="white"/>
<ellipse cx="51.2771" cy="137.601" rx="0.291762" ry="0.298418" fill="white"/>
<ellipse cx="52.007" cy="133.275" rx="0.437643" ry="0.447627" fill="white"/>
<ellipse cx="43.6915" cy="132.081" rx="0.437643" ry="0.447627" fill="white"/>
<ellipse cx="28.9582" cy="129.917" rx="0.437643" ry="0.447627" fill="white"/>
<ellipse cx="28.045" cy="127.268" rx="0.328232" ry="0.33572" fill="white"/>
<ellipse cx="29.8325" cy="123.277" rx="0.583523" ry="0.596836" fill="white"/>
<ellipse cx="28.1179" cy="122.494" rx="0.182351" ry="0.186511" fill="white"/>
<ellipse cx="32.5675" cy="121.598" rx="0.328232" ry="0.33572" fill="white"/>
<ellipse cx="32.8595" cy="123.837" rx="0.328232" ry="0.33572" fill="white"/>
<ellipse cx="36.2877" cy="122.793" rx="0.692934" ry="0.708743" fill="white"/>
<ellipse cx="40.7003" cy="121.039" rx="0.437643" ry="0.447627" fill="white"/>
<ellipse cx="29.8318" cy="132.454" rx="0.291762" ry="0.298418" fill="white"/>
<ellipse cx="53.9034" cy="128.798" rx="0.218821" ry="0.223813" fill="white"/>
<ellipse cx="43.6548" cy="161.214" rx="0.474113" ry="0.484929" fill="white"/>
<ellipse cx="41.2844" cy="154.836" rx="0.656464" ry="0.67144" fill="white"/>
<ellipse cx="44.493" cy="151.104" rx="0.510583" ry="0.522232" fill="white"/>
<ellipse cx="47.5939" cy="155.47" rx="0.328232" ry="0.33572" fill="white"/>
<ellipse cx="47.5202" cy="151.44" rx="0.182351" ry="0.186511" fill="white"/>
<ellipse cx="45.114" cy="149.352" rx="0.182351" ry="0.186511" fill="white"/>
<ellipse cx="38.9128" cy="150.098" rx="0.182351" ry="0.186511" fill="white"/>
<ellipse cx="48.8699" cy="144.39" rx="0.291762" ry="0.298418" fill="white"/>
<ellipse cx="38.4761" cy="143.756" rx="0.474113" ry="0.484929" fill="white"/>
<ellipse cx="36.434" cy="143.681" rx="0.255291" ry="0.261116" fill="white"/>
<ellipse cx="38.3299" cy="138.982" rx="0.401172" ry="0.410325" fill="white"/>
<ellipse cx="32.1297" cy="139.728" rx="0.401172" ry="0.410325" fill="white"/>
<ellipse cx="33.0785" cy="132.492" rx="0.255291" ry="0.261116" fill="white"/>
<ellipse cx="38.2941" cy="131.409" rx="0.437643" ry="0.447627" fill="white"/>
<ellipse cx="35.6681" cy="125.74" rx="0.437643" ry="0.447627" fill="white"/>
<ellipse cx="40.8462" cy="127.306" rx="0.583523" ry="0.596836" fill="white"/>
<ellipse cx="48.0679" cy="122.904" rx="0.583523" ry="0.596836" fill="white"/>
<ellipse cx="49.8911" cy="128.052" rx="0.583523" ry="0.596836" fill="white"/>
<ellipse cx="93.9464" cy="119.622" rx="0.437643" ry="0.447627" fill="white"/>
<ellipse cx="58.2072" cy="73.9642" rx="0.437643" ry="0.447627" fill="white"/>
<ellipse cx="57.0754" cy="46.7705" rx="0.547053" ry="0.559534" fill="white"/>
<ellipse cx="50.6578" cy="43.0398" rx="0.692934" ry="0.708743" fill="white"/>
<ellipse cx="51.0578" cy="35.9154" rx="0.437643" ry="0.447627" fill="white"/>
<ellipse cx="54.1945" cy="38.7504" rx="0.437643" ry="0.447627" fill="white"/>
<ellipse cx="39.7157" cy="35.9535" rx="0.619994" ry="0.634138" fill="white"/>
<ellipse cx="31.4012" cy="37.6681" rx="0.401172" ry="0.410325" fill="white"/>
<ellipse cx="31.8387" cy="39.6086" rx="0.401172" ry="0.410325" fill="white"/>
<ellipse cx="22.7938" cy="63.6302" rx="0.619994" ry="0.634138" fill="white"/>
<ellipse cx="25.7118" cy="72.2103" rx="0.619994" ry="0.634138" fill="white"/>
<ellipse cx="32.0575" cy="69.5248" rx="0.619994" ry="0.634138" fill="white"/>
</svg>
