<svg width="63" height="63" viewBox="0 0 63 63" fill="none" xmlns="http://www.w3.org/2000/svg">
<path d="M50.8065 29.4677V5.08065C50.8065 2.27903 48.5274 0 45.7258 0H5.08065C2.27903 0 0 2.27903 0 5.08065V29.4677C0 32.2694 2.27903 34.5484 5.08065 34.5484H45.7258C48.5274 34.5484 50.8065 32.2694 50.8065 29.4677ZM48.7742 13.2097H2.03226V8.12903H48.7742V13.2097ZM5.08065 2.03226H45.7258C47.4065 2.03226 48.7742 3.39991 48.7742 5.08065V6.09677H2.03226V5.08065C2.03226 3.39991 3.39991 2.03226 5.08065 2.03226Z" fill="white"/>
<path d="M40.6452 18.2903C39.7674 18.2903 38.9159 18.4822 38.1048 18.8633C37.2951 18.4822 36.4423 18.2903 35.5645 18.2903C32.2022 18.2903 29.4677 21.0248 29.4677 24.3871C29.4677 27.7494 32.2022 30.4839 35.5645 30.4839C36.4423 30.4839 37.2951 30.292 38.1048 29.9109C38.9159 30.292 39.7673 30.4839 40.6452 30.4839C44.0074 30.4839 46.7419 27.7494 46.7419 24.3871C46.7419 21.0248 44.0074 18.2903 40.6452 18.2903ZM40.6452 28.4516C39.9452 28.4516 39.2621 28.2606 38.616 27.8846L38.1048 27.587L37.5936 27.8846C36.9476 28.2606 36.2657 28.4516 35.5644 28.4516C33.323 28.4516 31.4999 26.6285 31.4999 24.3871C31.4999 22.1457 33.323 20.3226 35.5644 20.3226C36.2658 20.3226 36.9475 20.5136 37.5936 20.8896L38.1048 21.1872L38.616 20.8896C39.262 20.5136 39.9451 20.3226 40.6452 20.3226C42.8866 20.3226 44.7097 22.1457 44.7097 24.3871C44.7097 26.6285 42.8866 28.4516 40.6452 28.4516Z" fill="white"/>
<path d="M49.7903 36.5806C45.7054 36.5806 42.0482 38.4451 39.624 41.3678C37.1254 38.353 33.4275 36.5806 29.4677 36.5806C22.1842 36.5806 16.2581 42.5068 16.2581 49.7903C16.2581 57.0738 22.1842 63 29.4677 63C33.4275 63 37.1254 61.2276 39.624 58.2128C42.0482 61.1355 45.7054 63 49.7903 63C57.0738 63 63 57.0738 63 49.7903C63 42.5068 57.0738 36.5806 49.7903 36.5806ZM29.4677 60.9677C23.3048 60.9677 18.2903 55.9533 18.2903 49.7903C18.2903 43.6274 23.3048 38.6129 29.4677 38.6129C33.0101 38.6129 36.2972 40.2954 38.4065 43.1215C37.2543 45.0816 36.5806 47.3566 36.5806 49.7903C36.5806 52.224 37.2543 54.499 38.4065 56.4591C36.2972 59.2853 33.0101 60.9677 29.4677 60.9677Z" fill="white"/>
<path d="M47.7581 44.7097H51.8226C52.9435 44.7097 53.8548 45.621 53.8548 46.7419H55.8871C55.8871 44.5005 54.064 42.6774 51.8226 42.6774H50.8064V40.6452H48.7742V42.6774H47.7581C45.5167 42.6774 43.6935 44.5005 43.6935 46.7419C43.6935 48.9833 45.5167 50.8065 47.7581 50.8065H51.8226C52.9435 50.8065 53.8548 51.7178 53.8548 52.8387C53.8548 53.9596 52.9435 54.871 51.8226 54.871H47.7581C46.6371 54.871 45.7258 53.9596 45.7258 52.8387H43.6935C43.6935 55.0801 45.5167 56.9032 47.7581 56.9032H48.7742V58.9355H50.8064V56.9032H51.8226C54.064 56.9032 55.8871 55.0801 55.8871 52.8387C55.8871 50.5973 54.064 48.7742 51.8226 48.7742H47.7581C46.6371 48.7742 45.7258 47.8628 45.7258 46.7419C45.7258 45.621 46.6371 44.7097 47.7581 44.7097Z" fill="#182057"/>
<path d="M52.8387 22.3548C52.8387 21.7936 53.2936 21.3387 53.8548 21.3387C54.416 21.3387 54.871 21.7936 54.871 22.3548C54.871 22.916 54.416 23.371 53.8548 23.371C53.2936 23.371 52.8387 22.916 52.8387 22.3548Z" fill="white"/>
<path d="M56.9032 22.3548C56.9032 21.7936 58.2132 21.5122 58.7744 21.5122C59.3356 21.5122 58.7744 20.951 58.7744 21.5122C58.7744 22.0734 58.4805 23.371 57.9193 23.371C57.3582 23.371 56.9032 22.916 56.9032 22.3548Z" fill="white"/>
<path d="M56.9032 26.4194C56.9032 25.8582 57.3582 25.4032 57.9193 25.4032C58.4805 25.4032 58.9355 25.8582 58.9355 26.4194C58.9355 26.9805 58.4805 27.4355 57.9193 27.4355C57.3582 27.4355 56.9032 26.9805 56.9032 26.4194Z" fill="white"/>
<path d="M56.9032 30.4839C56.9032 29.9227 57.3582 29.4677 57.9193 29.4677C58.4805 29.4677 58.9355 29.9227 58.9355 30.4839C58.9355 31.0451 58.4805 31.5 57.9193 31.5C57.3582 31.5 56.9032 31.0451 56.9032 30.4839Z" fill="white"/>
<path d="M56.9032 34.5484C56.9032 33.9872 57.3582 33.5323 57.9193 33.5323C58.4805 33.5323 58.9355 33.9872 58.9355 34.5484C58.9355 35.1096 58.4805 35.5645 57.9193 35.5645C57.3582 35.5645 56.9032 35.1096 56.9032 34.5484Z" fill="white"/>
<path d="M6.09677 37.5968C6.09677 37.0356 6.55171 36.5806 7.1129 36.5806C7.6741 36.5806 8.12903 37.0356 8.12903 37.5968C8.12903 38.158 7.6741 38.6129 7.1129 38.6129C6.55171 38.6129 6.09677 38.158 6.09677 37.5968Z" fill="white"/>
<path d="M6.09677 41.6613C6.09677 41.1001 6.55171 40.6452 7.1129 40.6452C7.6741 40.6452 8.12903 41.1001 8.12903 41.6613C8.12903 42.2225 7.6741 42.6774 7.1129 42.6774C6.55171 42.6774 6.09677 42.2225 6.09677 41.6613Z" fill="white"/>
<path d="M6.09677 45.7258C6.09677 45.1646 6.55171 44.7097 7.1129 44.7097C7.6741 44.7097 8.12903 45.1646 8.12903 45.7258C8.12903 46.287 7.6741 46.7419 7.1129 46.7419C6.55171 46.7419 6.09677 46.287 6.09677 45.7258Z" fill="white"/>
<path d="M6.09677 49.7903C6.09677 49.2291 6.55171 48.7742 7.1129 48.7742C7.6741 48.7742 8.12903 49.2291 8.12903 49.7903C8.12903 50.3515 7.6741 50.8065 7.1129 50.8065C6.55171 50.8065 6.09677 50.3515 6.09677 49.7903Z" fill="white"/>
<path d="M6.09677 53.8548C6.09677 53.2936 6.55171 52.8387 7.1129 52.8387C7.6741 52.8387 8.12903 53.2936 8.12903 53.8548C8.12903 54.416 7.6741 54.871 7.1129 54.871C6.55171 54.871 6.09677 54.416 6.09677 53.8548Z" fill="white"/>
<path d="M6.53049 58.3902C6.53049 57.829 6.55171 56.9032 7.1129 56.9032C7.6741 56.9032 8.12903 57.3582 8.12903 57.9193C8.12903 58.4805 7.09168 58.3902 6.53049 58.3902C5.9693 58.3902 6.53049 58.9514 6.53049 58.3902Z" fill="white"/>
<path d="M10.1613 57.9193C10.1613 57.3582 10.6162 56.9032 11.1774 56.9032C11.7386 56.9032 12.1935 57.3582 12.1935 57.9193C12.1935 58.4805 11.7386 58.9355 11.1774 58.9355C10.6162 58.9355 10.1613 58.4805 10.1613 57.9193Z" fill="white"/>
<path d="M14.2258 57.9193C14.2258 57.3582 14.6807 56.9032 15.2419 56.9032C15.8031 56.9032 16.2581 57.3582 16.2581 57.9193C16.2581 58.4805 15.8031 58.9355 15.2419 58.9355C14.6807 58.9355 14.2258 58.4805 14.2258 57.9193Z" fill="white"/>
<path d="M34.2825 46.5171C34.1141 44.8403 32.6953 44.2709 30.9075 44.1014L30.8925 41.7767L29.5083 41.7695L29.523 44.033C29.1591 44.0311 28.7872 44.0364 28.4177 44.042L28.4032 41.7636L27.0198 41.7562L27.0342 44.0803C26.7345 44.0849 26.4403 44.0891 26.1533 44.0877L26.1531 44.0805L24.2439 44.0697L24.254 45.5811C24.254 45.5811 25.276 45.5666 25.2592 45.5857C25.8198 45.5889 26.0044 45.9226 26.0594 46.21L26.0765 48.8584C26.1152 48.8588 26.1657 48.8607 26.2229 48.869C26.1768 48.8688 26.1274 48.8682 26.0766 48.8684L26.1001 52.5785C26.0767 52.7588 25.9748 53.0458 25.5831 53.0444C25.6009 53.0606 24.5769 53.0388 24.5769 53.0388L24.3127 54.7273L26.114 54.7368C26.4492 54.739 26.7791 54.7465 27.1029 54.7504L27.1186 57.1016L28.5013 57.1091L28.4863 54.7828C28.8661 54.7928 29.2335 54.7979 29.5922 54.7994L29.6064 57.115L30.9906 57.1222L30.976 54.7752C33.3023 54.6511 34.9272 54.0604 35.1151 51.8274C35.2668 50.0294 34.4339 49.2223 33.1108 48.891C33.9107 48.4775 34.4077 47.7441 34.2825 46.5171ZM32.3782 51.5343C32.3903 53.2913 29.446 53.0759 28.5079 53.0718L28.4882 49.9566C29.4266 49.9618 32.3666 49.7016 32.3782 51.5343ZM31.7062 47.1357C31.716 48.7343 29.2604 48.5347 28.479 48.5306L28.461 45.7053C29.2424 45.7094 31.6953 45.4684 31.7062 47.1357Z" fill="white"/>
</svg>
