<svg width="67" height="57" viewBox="0 0 67 57" fill="none" xmlns="http://www.w3.org/2000/svg">
<path d="M57.3746 9.79345C57.3746 9.79363 57.3744 9.79373 57.3743 9.79362C53.3625 6.86012 48.5264 5.2793 43.5619 5.2793C38.5973 5.2793 33.7612 6.86021 29.7492 9.79388V9.79388C28.2808 10.8693 26.3519 11.1541 24.6144 10.6122C19.4082 8.98871 13.6974 9.67881 8.98172 12.6121C3.39716 16.0849 0 22.2078 0 28.7989C0 35.3904 3.39716 41.5134 8.98172 44.9857C13.6194 47.8699 19.2182 48.5853 24.3533 47.0652C26.2546 46.5024 28.354 46.8154 29.9725 47.9608V47.9608C33.9419 50.7925 38.6915 52.3138 43.5619 52.3138C48.4324 52.3138 53.1817 50.7925 57.1513 47.9608C61.2015 45.0676 64.2303 40.9582 65.8 36.2251C67.3702 31.492 67.4001 26.3813 65.8857 21.6297C64.3709 16.8788 61.3905 12.734 57.375 9.79327C57.3748 9.79317 57.3746 9.79327 57.3746 9.79345V9.79345ZM26.8128 28.8383C26.8128 29.455 26.3129 29.9585 25.6962 29.9585V29.9585C25.0795 29.9585 24.5796 29.455 24.5796 28.8383V28.8383C24.5796 28.2216 25.0795 27.718 25.6962 27.718V27.718C26.3129 27.718 26.8128 28.2216 26.8128 28.8383V28.8383ZM42.4453 10.9141C42.4453 10.2975 42.9452 9.79388 43.5619 9.79388V9.79388C44.1786 9.79388 44.6785 10.2975 44.6785 10.9141V10.9141C44.6785 11.5308 44.1786 12.0344 43.5619 12.0344V12.0344C42.9452 12.0344 42.4453 11.5308 42.4453 10.9141V10.9141ZM30.1378 15.3755C30.5763 14.9356 31.289 14.9369 31.7258 15.3784V15.3784C32.1584 15.8155 32.1571 16.5199 31.723 16.9555V16.9555C31.2868 17.3931 30.5785 17.3943 30.1407 16.9583V16.9583C29.7027 16.5221 29.7014 15.8133 30.1378 15.3755V15.3755ZM31.7258 42.2977C31.289 42.7391 30.5763 42.7404 30.1378 42.3006V42.3006C29.7014 41.8627 29.7027 41.154 30.1407 40.7177V40.7177C30.5785 40.2817 31.2868 40.283 31.723 40.7206V40.7206C32.1571 41.1562 32.1584 41.8605 31.7258 42.2977V42.2977ZM44.6784 46.7619C44.6784 47.3786 44.1785 47.8822 43.5618 47.8822V47.8822C42.9451 47.8822 42.4452 47.3786 42.4452 46.7619V46.7619C42.4452 46.1452 42.9451 45.6417 43.5618 45.6417V45.6417C44.1785 45.6417 44.6784 46.1452 44.6784 46.7619V46.7619ZM43.5618 41.1608C43.5618 41.1607 43.5617 41.1606 43.5616 41.1606C41.0907 41.1591 38.6776 40.4099 36.6378 39.0106C35.0364 37.9124 33.7234 36.4538 32.7981 34.7599C32.4312 34.0884 32.9528 33.3188 33.718 33.3188V33.3188C34.0078 33.3188 34.2857 33.4344 34.4899 33.6401L37.1855 36.3543C37.1856 36.3545 37.1857 36.3545 37.1859 36.3545V36.3545C37.1861 36.3545 37.1862 36.3546 37.1863 36.3547C37.3967 36.5646 37.6822 36.6811 37.9787 36.6796V36.6796C39.4372 36.6796 40.6734 37.7913 41.9483 38.4996C42.1504 38.6119 42.3654 38.7039 42.5906 38.7731C43.6065 39.0847 44.7092 38.8952 45.5631 38.2615C46.417 37.6274 46.921 36.6252 46.921 35.5595C46.921 34.4937 46.4171 33.4915 45.5631 32.8574C44.7092 32.2237 43.6065 32.0342 42.5906 32.3458C41.9771 32.5342 41.4393 32.8922 41.0317 33.3675C40.5461 33.9336 39.9139 34.4393 39.1681 34.4393V34.4393C38.6997 34.4393 38.2507 34.2524 37.9207 33.9201L35.4215 31.4036C35.2112 31.1936 34.9255 31.077 34.6289 31.0785H31.9817C31.6979 31.0785 31.4534 30.878 31.4117 30.5972V30.5972C31.3611 30.2564 31.6316 29.9583 31.9762 29.9583H40.5267C43.0625 29.9583 45.2297 32.1548 47.6061 33.0394V33.0394C48.9769 33.5495 50.5098 33.354 51.7101 32.5163C52.9104 31.6786 53.6258 30.3049 53.6258 28.838C53.6258 27.3712 52.9105 25.9973 51.7101 25.1597C50.5097 24.3222 48.9769 24.1265 47.6061 24.6366V24.6366C45.2297 25.5213 43.0625 27.7178 40.5268 27.7178H31.9526C31.6115 27.7178 31.3384 27.439 31.3965 27.1029V27.1029C31.4473 26.8088 31.7083 26.5975 32.0068 26.5975H34.6289C34.9255 26.599 35.2112 26.4825 35.4215 26.2724L37.9207 23.7559C38.2507 23.4236 38.6998 23.2367 39.1681 23.2367V23.2367C39.9139 23.2367 40.5462 23.7424 41.0317 24.3085C41.4394 24.7838 41.9771 25.1417 42.5906 25.3303C43.6065 25.6418 44.7092 25.4523 45.5631 24.8186C46.417 24.1845 46.921 23.1823 46.921 22.1166C46.921 21.0509 46.4171 20.0486 45.5631 19.4145C44.7092 18.7809 43.6065 18.5913 42.5906 18.9029C42.3654 18.9721 42.1504 19.0641 41.9482 19.1764C40.6733 19.8847 39.4372 20.9964 37.9787 20.9964V20.9964C37.6821 20.9949 37.3965 21.1115 37.1861 21.3215L34.4904 24.0359C34.2862 24.2416 34.0083 24.3572 33.7184 24.3572V24.3572C32.953 24.3572 32.4313 23.5874 32.7982 22.9157C33.9706 20.7696 35.7602 19.011 37.9503 17.8807C40.6137 16.5059 43.6853 16.1549 46.5885 16.8935C49.4911 17.6317 52.025 19.409 53.7138 21.8906C55.4021 24.3717 56.129 27.3869 55.7571 30.3681C55.3853 33.3498 53.9407 36.0919 51.6945 38.0793C49.4488 40.0672 46.5567 41.163 43.562 41.161C43.5619 41.161 43.5618 41.1609 43.5618 41.1608V41.1608ZM56.9858 42.3006C56.5474 42.7404 55.8347 42.7391 55.3979 42.2977V42.2977C54.9653 41.8605 54.9666 41.1562 55.4007 40.7206V40.7206C55.8369 40.283 56.5452 40.2817 56.983 40.7177V40.7177C57.421 41.154 57.4222 41.8627 56.9858 42.3006V42.3006ZM56.983 16.9581C56.5452 17.3941 55.8369 17.3928 55.4007 16.9552V16.9552C54.9666 16.5196 54.9653 15.8153 55.3979 15.3781V15.3781C55.8347 14.9367 56.5474 14.9354 56.9858 15.3752V15.3752C57.4222 15.8131 57.421 16.5218 56.983 16.9581V16.9581ZM62.5441 28.838C62.5441 29.4547 62.0442 29.9583 61.4275 29.9583V29.9583C60.8108 29.9583 60.3109 29.4547 60.3109 28.838V28.838C60.3109 28.2213 60.8108 27.7178 61.4275 27.7178V27.7178C62.0442 27.7178 62.5441 28.2213 62.5441 28.838V28.838Z" fill="white"/>
<path d="M59.7515 51.6362L58.4565 49.8213C54.1067 52.9286 48.9 54.5979 43.5603 54.5979C38.2206 54.5979 33.0143 52.9286 28.6641 49.8213L27.3691 51.6362C32.0923 55.0245 37.7536 56.8459 43.5606 56.8459C49.3675 56.8459 55.0282 55.0244 59.752 51.6362H59.7515Z" fill="white"/>
<path d="M28.4649 8.01333C32.8441 4.81361 38.1216 3.08969 43.5385 3.08969C48.9553 3.08969 54.2339 4.81361 58.612 8.01333L59.9295 6.19838V6.19888C55.1595 2.71954 49.4135 0.845703 43.516 0.845703C37.6184 0.845703 31.8724 2.71967 27.1025 6.19888L28.4649 8.01333Z" fill="white"/>
<path d="M20.1127 17.6362C20.1127 19.4921 18.6128 20.9969 16.7629 20.9969C14.913 20.9969 13.4131 19.4921 13.4131 17.6362C13.4131 15.7803 14.913 14.2754 16.7629 14.2754C18.6128 14.2754 20.1127 15.7803 20.1127 17.6362Z" fill="white"/>
<path d="M17.239 29.016V30.8256C17.239 31.1946 16.9421 31.4936 16.5759 31.4936H15.4427C15.0764 31.4936 14.7796 31.1946 14.7796 30.8256V29.0161C14.7796 27.6477 13.6785 26.5385 12.3202 26.5385C10.9619 26.5385 9.86077 27.6477 9.86077 29.0161V30.8256C9.86077 31.1946 9.5639 31.4936 9.19769 31.4936H8.06445C7.69824 31.4936 7.40137 31.1946 7.40137 30.8256V29.016C7.40137 26.2794 9.60359 24.0609 12.3202 24.0609C15.0368 24.0609 17.239 26.2794 17.239 29.016Z" fill="#1A2761"/>
<path d="M20.9282 30.7089L20.9282 21.8428C20.562 21.8428 18.4085 21.8428 18.4085 21.8428L18.4471 30.7089C18.4471 32.0772 17.346 33.1865 15.9877 33.1865C14.6294 33.1865 13.5283 32.0772 13.5283 30.7089V28.8993C13.5283 28.5304 13.2314 28.2313 12.8652 28.2313H11.732C11.3657 28.2313 11.0689 28.5304 11.0689 28.8993V30.7089C11.0689 33.4456 13.276 35.6641 15.9986 35.6641C18.7211 35.6641 20.9282 33.4456 20.9282 30.7089Z" fill="#1A2761"/>
<path d="M12.3643 24.1857C12.4226 24.1404 12.3939 24.0453 12.3202 24.0453C9.60364 24.0453 7.40142 26.2638 7.40142 29.0005V30.81C7.40142 31.179 7.69829 31.478 8.0645 31.478H9.19774C9.56395 31.478 9.86082 31.179 9.86082 30.81V29.0005C9.86082 28.4245 10.0559 27.8945 10.3831 27.4737C10.4638 27.3701 10.5228 27.2503 10.5487 27.1212C10.7871 25.9337 11.447 24.9001 12.3643 24.1857Z" fill="#1A2761"/>
<path d="M16.2139 35.6648C16.1389 35.6682 16.0635 35.67 15.9877 35.67C13.2711 35.67 11.0689 33.4515 11.0689 30.7148V28.2373H13.5283V30.7148C13.5283 31.3634 13.7756 31.9537 14.1805 32.3953C14.3946 33.7444 15.1494 34.9118 16.2139 35.6648Z" fill="#1A2761"/>
</svg>
