<svg width="334" height="333" viewBox="0 0 334 333" fill="none" xmlns="http://www.w3.org/2000/svg">
<path d="M179.356 60.1994L196.336 43.8637V26.1987C198.539 25.8211 200.222 23.9099 200.222 21.6055C200.222 19.0336 198.13 16.9336 195.55 16.9336C192.978 16.9336 190.878 19.0257 190.878 21.6055C190.878 23.9099 192.561 25.829 194.763 26.1987V43.203L177.783 59.5309V96.717H176.391V118.102H180.748V96.717H179.356V60.1994V60.1994ZM192.459 21.5976C192.459 19.8909 193.851 18.4987 195.558 18.4987C197.265 18.4987 198.657 19.8909 198.657 21.5976C198.657 23.3043 197.265 24.6964 195.558 24.6964C193.843 24.6964 192.459 23.3043 192.459 21.5976Z" fill="#3451A3"/>
<path d="M156.13 59.5309L139.149 43.1951V26.1987C141.351 25.8211 143.034 23.9099 143.034 21.6055C143.034 19.0336 140.942 16.9336 138.362 16.9336C135.79 16.9336 133.69 19.0257 133.69 21.6055C133.69 23.9099 135.374 25.829 137.576 26.1987V43.8715L154.557 60.2073V96.7249H153.164V118.11H157.522V96.7249H156.13V59.5309V59.5309ZM135.263 21.5976C135.263 19.8909 136.656 18.4987 138.362 18.4987C140.069 18.4987 141.461 19.8909 141.461 21.5976C141.461 23.3043 140.069 24.6964 138.362 24.6964C136.648 24.6964 135.263 23.3043 135.263 21.5976Z" fill="#3451A3"/>
<path d="M166.952 0C164.38 0 162.28 2.09211 162.28 4.67186C162.28 6.97633 163.963 8.89541 166.166 9.27294V96.7248H164.774V118.11H169.131V96.7248H167.739V9.26507C169.941 8.88755 171.624 6.97633 171.624 4.664C171.624 2.09211 169.532 0 166.952 0ZM166.952 7.76284C165.245 7.76284 163.853 6.37072 163.853 4.664C163.853 2.95727 165.245 1.56515 166.952 1.56515C168.659 1.56515 170.051 2.95727 170.051 4.664C170.051 6.37072 168.659 7.76284 166.952 7.76284Z" fill="#3451A3"/>
<path d="M211.752 54.3945C209.18 54.3945 207.08 56.4866 207.08 59.0664C207.08 60.081 207.41 61.0169 207.961 61.7877L189.462 79.8853V96.7166H187.999V118.102H192.356V96.7166H191.035V80.5459L209.077 62.8888C209.833 63.4158 210.753 63.7304 211.744 63.7304C214.316 63.7304 216.416 61.6383 216.416 59.0585C216.423 56.4945 214.323 54.3945 211.752 54.3945ZM211.752 62.1574C210.045 62.1574 208.653 60.7653 208.653 59.0585C208.653 57.3518 210.045 55.9597 211.752 55.9597C213.458 55.9597 214.85 57.3518 214.85 59.0585C214.85 60.7653 213.458 62.1574 211.752 62.1574Z" fill="#3451A3"/>
<path d="M144.521 79.8863L126.022 61.7887C126.573 61.0179 126.903 60.082 126.903 59.0674C126.903 56.4955 124.811 54.3955 122.231 54.3955C119.66 54.3955 117.56 56.4876 117.56 59.0674C117.56 61.6393 119.652 63.7392 122.231 63.7392C123.222 63.7392 124.143 63.4246 124.898 62.8977L142.94 80.5548V96.7254H141.548V118.111H145.905V96.7254H144.513V79.8863H144.521ZM122.231 62.1583C120.525 62.1583 119.133 60.7662 119.133 59.0595C119.133 57.3528 120.525 55.9607 122.231 55.9607C123.938 55.9607 125.33 57.3528 125.33 59.0595C125.33 60.7662 123.938 62.1583 122.231 62.1583Z" fill="#3451A3"/>
<path d="M141.551 96.7125V118.098H145.908V96.7125H141.551Z" fill="white"/>
<path d="M153.162 96.7066V118.092H157.519V96.7066H153.162Z" fill="white"/>
<path d="M164.773 96.7096V118.095H169.131V96.7096H164.773Z" fill="white"/>
<path d="M176.386 96.7125V118.098H180.743V96.7125H176.386Z" fill="white"/>
<path d="M187.997 96.7076V118.093H192.354V96.7076H187.997Z" fill="white"/>
<path d="M96.7176 145.418H118.103V141.061H96.7176V142.453H80.547L62.8899 124.41C63.4168 123.655 63.7314 122.735 63.7314 121.744C63.7314 119.172 61.6393 117.072 59.0596 117.072C56.4877 117.072 54.3877 119.164 54.3877 121.744C54.3877 124.316 56.4798 126.416 59.0596 126.416C60.0742 126.416 61.0101 126.086 61.7809 125.535L79.8784 144.034H96.7097V145.418H96.7176ZM62.1584 121.736C62.1584 123.443 60.7663 124.835 59.0596 124.835C57.3528 124.835 55.9607 123.443 55.9607 121.736C55.9607 120.03 57.3528 118.637 59.0596 118.637C60.7741 118.637 62.1584 120.03 62.1584 121.736Z" fill="#3451A3"/>
<path d="M96.7171 157.027H118.102V152.669H96.7171V154.061H60.1995L43.8637 137.081H26.1987C25.8212 134.878 23.91 133.195 21.5976 133.195C19.0258 133.195 16.9258 135.287 16.9258 137.867C16.9258 140.439 19.0179 142.539 21.5976 142.539C23.9021 142.539 25.8212 140.856 26.1987 138.654H43.203L59.5388 155.634H96.725V157.027H96.7171ZM24.6965 137.867C24.6965 139.574 23.3044 140.966 21.5976 140.966C19.8909 140.966 18.4988 139.574 18.4988 137.867C18.4988 136.16 19.8909 134.768 21.5976 134.768C23.3044 134.768 24.6965 136.16 24.6965 137.867Z" fill="#3451A3"/>
<path d="M16.9258 195.055C16.9258 197.627 19.0179 199.727 21.5976 199.727C23.9021 199.727 25.8212 198.044 26.1987 195.841H43.8716L60.2074 178.861H96.725V180.253H118.11V175.896H96.725V177.288H59.5388L43.203 194.268H26.1987C25.8212 192.066 23.91 190.383 21.5976 190.383C19.0258 190.391 16.9258 192.483 16.9258 195.055ZM18.4988 195.055C18.4988 193.348 19.8909 191.956 21.5976 191.956C23.3044 191.956 24.6965 193.348 24.6965 195.055C24.6965 196.762 23.3044 198.154 21.5976 198.154C19.8909 198.154 18.4988 196.762 18.4988 195.055Z" fill="#3451A3"/>
<path d="M0 166.457C0 169.029 2.09212 171.129 4.67186 171.129C6.97633 171.129 8.89542 169.446 9.26507 167.244H96.717V168.636H118.102V164.278H96.717V165.671H9.26507C8.88755 163.468 6.97633 161.785 4.67186 161.785C2.09212 161.793 0 163.885 0 166.457ZM1.57302 166.457C1.57302 164.75 2.96514 163.358 4.67186 163.358C6.37859 163.358 7.77071 164.75 7.77071 166.457C7.77071 168.164 6.37859 169.556 4.67186 169.556C2.95727 169.556 1.57302 168.164 1.57302 166.457Z" fill="#3451A3"/>
<path d="M54.3955 211.256C54.3955 213.828 56.4876 215.928 59.0674 215.928C61.6393 215.928 63.7392 213.836 63.7392 211.256C63.7392 210.265 63.4246 209.345 62.8977 208.59L80.5548 190.548H96.7254V191.869H118.111V187.512H96.7254V188.975H79.8941L61.7966 207.473C61.0258 206.923 60.0898 206.592 59.0752 206.592C56.4876 206.585 54.3955 208.685 54.3955 211.256ZM55.9685 211.256C55.9685 209.55 57.3606 208.158 59.0674 208.158C60.7741 208.158 62.1662 209.55 62.1662 211.256C62.1662 212.963 60.7741 214.355 59.0674 214.355C57.3606 214.355 55.9685 212.963 55.9685 211.256Z" fill="#3451A3"/>
<path d="M118.04 141.061H96.6553V145.418H118.04V141.061Z" fill="white"/>
<path d="M118.04 152.67H96.6553V157.027H118.04V152.67Z" fill="white"/>
<path d="M118.04 164.278H96.6553V168.636H118.04V164.278Z" fill="white"/>
<path d="M118.04 175.896H96.6553V180.253H118.04V175.896Z" fill="white"/>
<path d="M118.04 187.504H96.6553V191.861H118.04V187.504Z" fill="white"/>
<path d="M236.575 144.025H253.406L271.504 125.526C272.274 126.077 273.21 126.407 274.225 126.407C276.797 126.407 278.897 124.315 278.897 121.735C278.897 119.163 276.805 117.063 274.225 117.063C271.653 117.063 269.553 119.156 269.553 121.735C269.553 122.726 269.868 123.647 270.395 124.402L252.737 142.444H236.567V141.052H215.182V145.409H236.567V144.025H236.575ZM274.225 118.636C275.932 118.636 277.324 120.029 277.324 121.735C277.324 123.442 275.932 124.834 274.225 124.834C272.518 124.834 271.126 123.442 271.126 121.735C271.126 120.029 272.518 118.636 274.225 118.636Z" fill="#3451A3"/>
<path d="M236.575 155.634H273.761L290.096 138.654H307.101C307.478 140.856 309.39 142.539 311.702 142.539C314.274 142.539 316.374 140.447 316.374 137.867C316.374 135.295 314.282 133.195 311.702 133.195C309.397 133.195 307.478 134.878 307.101 137.081H289.428L273.092 154.061H236.582V152.669H215.197V157.027H236.582V155.634H236.575ZM311.694 134.768C313.401 134.768 314.793 136.16 314.793 137.867C314.793 139.574 313.401 140.966 311.694 140.966C309.987 140.966 308.595 139.574 308.595 137.867C308.595 136.16 309.987 134.768 311.694 134.768Z" fill="#3451A3"/>
<path d="M311.694 190.39C309.39 190.39 307.471 192.073 307.093 194.275H290.089L273.753 177.294H236.567V175.902H215.182V180.26H236.567V178.867H273.077L289.412 195.848H307.085C307.463 198.05 309.374 199.734 311.686 199.734C314.258 199.734 316.358 197.641 316.358 195.062C316.366 192.482 314.266 190.39 311.694 190.39ZM311.694 198.153C309.987 198.153 308.595 196.761 308.595 195.054C308.595 193.347 309.987 191.955 311.694 191.955C313.401 191.955 314.793 193.347 314.793 195.054C314.793 196.761 313.401 198.153 311.694 198.153Z" fill="#3451A3"/>
<path d="M328.628 161.792C326.323 161.792 324.404 163.475 324.034 165.677H236.575V164.285H215.189V168.642H236.575V167.25H324.027C324.404 169.453 326.315 171.136 328.62 171.136C331.192 171.136 333.292 169.044 333.292 166.464C333.292 163.884 331.199 161.792 328.628 161.792ZM328.628 169.555C326.921 169.555 325.529 168.163 325.529 166.456C325.529 164.749 326.921 163.357 328.628 163.357C330.334 163.357 331.726 164.749 331.726 166.456C331.719 168.163 330.334 169.555 328.628 169.555Z" fill="#3451A3"/>
<path d="M274.225 206.584C273.21 206.584 272.274 206.914 271.503 207.465L253.406 188.966H236.575V187.503H215.189V191.86H236.575V190.539H252.745L270.402 208.581C269.875 209.336 269.561 210.257 269.561 211.248C269.561 213.819 271.653 215.919 274.233 215.919C276.805 215.919 278.904 213.827 278.904 211.248C278.897 208.684 276.805 206.584 274.225 206.584ZM274.225 214.354C272.518 214.354 271.126 212.962 271.126 211.255C271.126 209.549 272.518 208.157 274.225 208.157C275.931 208.157 277.324 209.549 277.324 211.255C277.324 212.962 275.931 214.354 274.225 214.354Z" fill="#3451A3"/>
<path d="M236.575 141.061H215.189V145.418H236.575V141.061Z" fill="white"/>
<path d="M236.575 152.67H215.189V157.027H236.575V152.67Z" fill="white"/>
<path d="M236.575 164.278H215.189V168.636H236.575V164.278Z" fill="white"/>
<path d="M236.575 175.896H215.189V180.253H236.575V175.896Z" fill="white"/>
<path d="M236.575 187.504H215.189V191.861H236.575V187.504Z" fill="white"/>
<path d="M179.356 236.275H180.748V214.89H176.391V236.275H177.783V273.461L194.763 289.797V306.801C192.561 307.179 190.878 309.09 190.878 311.402C190.878 313.974 192.97 316.074 195.55 316.074C198.122 316.074 200.222 313.982 200.222 311.402C200.222 309.098 198.539 307.179 196.336 306.801V289.128L179.356 272.792V236.275V236.275ZM195.55 308.295C197.257 308.295 198.649 309.688 198.649 311.394C198.649 313.101 197.257 314.493 195.55 314.493C193.843 314.493 192.451 313.101 192.451 311.394C192.451 309.688 193.843 308.295 195.55 308.295Z" fill="#3451A3"/>
<path d="M156.13 236.275H157.522V214.89H153.164V236.275H154.557V272.792L137.576 289.128V306.801C135.374 307.179 133.69 309.09 133.69 311.402C133.69 313.974 135.783 316.074 138.362 316.074C140.934 316.074 143.034 313.982 143.034 311.402C143.034 309.098 141.351 307.179 139.149 306.801V289.797L156.13 273.461V236.275ZM138.362 308.295C140.069 308.295 141.461 309.688 141.461 311.394C141.461 313.101 140.069 314.493 138.362 314.493C136.656 314.493 135.263 313.101 135.263 311.394C135.263 309.688 136.648 308.295 138.362 308.295Z" fill="#3451A3"/>
<path d="M171.624 328.328C171.624 326.023 169.941 324.104 167.739 323.727V236.275H169.131V214.89H164.774V236.275H166.166V323.727C163.963 324.104 162.28 326.015 162.28 328.328C162.28 330.9 164.372 333 166.952 333C169.532 332.992 171.624 330.9 171.624 328.328ZM170.051 328.328C170.051 330.035 168.659 331.427 166.952 331.427C165.245 331.427 163.853 330.035 163.853 328.328C163.853 326.621 165.245 325.229 166.952 325.229C168.659 325.229 170.051 326.621 170.051 328.328Z" fill="#3451A3"/>
<path d="M216.424 273.925C216.424 271.353 214.332 269.253 211.753 269.253C210.762 269.253 209.841 269.568 209.086 270.095L191.044 252.438V236.267H192.365V214.882H188.008V236.267H189.471V253.098L207.969 271.196C207.419 271.967 207.089 272.903 207.089 273.917C207.089 276.489 209.181 278.589 211.76 278.589C214.324 278.597 216.424 276.497 216.424 273.925ZM214.851 273.925C214.851 275.632 213.459 277.024 211.753 277.024C210.046 277.024 208.654 275.632 208.654 273.925C208.654 272.218 210.046 270.826 211.753 270.826C213.459 270.834 214.851 272.218 214.851 273.925Z" fill="#3451A3"/>
<path d="M144.521 236.275H145.913V214.89H141.556V236.275H142.948V252.445L124.905 270.103C124.15 269.576 123.23 269.261 122.239 269.261C119.667 269.261 117.567 271.353 117.567 273.933C117.567 276.505 119.659 278.605 122.239 278.605C124.811 278.605 126.911 276.513 126.911 273.933C126.911 272.918 126.581 271.982 126.03 271.212L144.529 253.114V236.275H144.521ZM125.33 273.925C125.33 275.632 123.938 277.024 122.231 277.024C120.525 277.024 119.133 275.632 119.133 273.925C119.133 272.218 120.525 270.826 122.231 270.826C123.938 270.834 125.33 272.218 125.33 273.925Z" fill="#3451A3"/>
<path d="M141.558 214.895V236.28H145.915V214.895H141.558Z" fill="white"/>
<path d="M153.169 214.889V236.274H157.526V214.889H153.169Z" fill="white"/>
<path d="M164.781 214.892V236.277H169.139V214.892H164.781Z" fill="white"/>
<path d="M176.393 214.895V236.28H180.75V214.895H176.393Z" fill="white"/>
<path d="M188.004 214.89V236.275H192.361V214.89H188.004Z" fill="white"/>
<g opacity="0.15">
<path opacity="0.15" d="M241.851 76.6138L256.913 91.6754V115.766L241.851 130.828H217.76L202.699 115.766V91.6754L217.76 76.6138H241.851ZM243.157 73.4678H241.851H217.76H216.455L215.535 74.388L200.473 89.4496L199.553 90.3698V91.6754V115.766V117.072L200.473 117.992L215.535 133.054L216.455 133.974H217.76H241.851H243.157L244.077 133.054L259.139 117.992L260.059 117.072V115.766V91.6754V90.3698L259.139 89.4496L244.077 74.388L243.157 73.4678Z" fill="black"/>
</g>
<path d="M241.852 76.6133H217.761L202.691 91.6828V115.774L217.761 130.835H241.852L256.913 115.774V91.6828L241.852 76.6133Z" stroke="white" stroke-width="2" stroke-miterlimit="10"/>
<path d="M240.036 80.7119H219.579L206.79 93.5006V113.958L219.579 126.746H240.036L252.824 113.958V93.5006L240.036 80.7119Z" stroke="white" stroke-miterlimit="10"/>
<g opacity="0.15">
<path opacity="0.15" d="M248.854 83.5324L244.555 79.2334L205.402 118.386L209.701 122.685L248.854 83.5324Z" fill="white"/>
<path opacity="0.15" d="M212.194 125.185L214.696 127.688L253.849 88.5352L251.346 86.0326L212.194 125.185Z" fill="white"/>
</g>
<path d="M241.309 98.9155L240.664 100.531H240.035L239.603 98.6313L241.309 98.9155ZM228.213 100.087L228.349 100.06L228.801 100.361C227.84 100.843 226.759 101.032 225.692 100.906C224.624 100.78 223.617 100.344 222.795 99.6518L223.681 99.9053C225.156 100.324 226.709 100.386 228.213 100.087L228.213 100.087ZM221.308 101.786L225.304 103.638C225.839 103.884 226.27 104.312 226.52 104.846C226.77 105.38 226.822 105.985 226.668 106.554H224.409C224.308 105.664 223.945 104.823 223.365 104.139C222.786 103.456 222.016 102.959 221.154 102.714L221.308 101.786ZM222.38 106.554C222.206 105.717 221.618 105.026 220.82 104.72L220.988 103.709C221.615 103.911 222.173 104.284 222.598 104.787C223.024 105.29 223.3 105.902 223.394 106.554L222.38 106.554ZM221.335 107.558C221.217 107.892 220.985 108.174 220.679 108.353C220.374 108.532 220.015 108.598 219.665 108.539C219.316 108.479 218.999 108.298 218.771 108.028C218.542 107.757 218.416 107.415 218.415 107.06C218.414 106.706 218.539 106.363 218.766 106.092C218.994 105.82 219.31 105.638 219.659 105.577L219.328 107.558L221.335 107.558ZM220.514 106.554L220.649 105.746C220.968 105.923 221.211 106.211 221.334 106.554H220.514ZM219.921 110.57C218.665 110.57 217.506 109.9 216.878 108.813C216.25 107.726 216.25 106.386 216.878 105.299C217.506 104.212 218.665 103.542 219.921 103.542C219.946 103.542 219.971 103.546 219.997 103.546L219.828 104.556H219.828C219.199 104.58 218.601 104.841 218.155 105.286C217.709 105.73 217.447 106.327 217.421 106.957C217.395 107.586 217.607 108.202 218.015 108.683C218.423 109.163 218.998 109.471 219.623 109.547C220.249 109.623 220.88 109.46 221.391 109.092C221.902 108.723 222.255 108.176 222.38 107.558H223.394C223.273 108.393 222.856 109.157 222.218 109.71C221.58 110.263 220.765 110.568 219.921 110.57L219.921 110.57ZM236.022 102.847L234.025 107.635C233.912 107.909 233.719 108.144 233.472 108.309C233.224 108.474 232.934 108.562 232.637 108.562H226.797L227.319 107.622C227.793 106.769 227.891 105.756 227.588 104.828C227.286 103.899 226.611 103.139 225.725 102.728L221.063 100.57L217.65 99.1902L218.434 99.0336L221.089 99.3655L221.072 99.382L221.725 100.035H221.725C222.761 101.075 224.119 101.735 225.578 101.905C227.037 102.076 228.51 101.748 229.759 100.974L230.441 100.555C230.894 100.277 231.417 100.135 231.949 100.144C232.481 100.154 232.999 100.315 233.442 100.609C234.315 101.191 235.262 101.654 236.258 101.986L236.861 102.187L236.208 102.622C236.125 102.677 236.06 102.755 236.022 102.847L236.022 102.847ZM237.916 101.484L236.576 101.037C235.664 100.733 234.796 100.309 233.996 99.7756C233.394 99.3753 232.689 99.1555 231.965 99.1425C231.242 99.1295 230.53 99.3236 229.912 99.7018L229.762 99.7957L229.053 99.3234L229.254 98.721H229.254C229.31 98.5541 229.449 98.4284 229.621 98.3891L233.041 97.6297C233.307 97.5704 233.585 97.5847 233.844 97.671L234.788 97.9856L237.121 99.1522C237.365 99.2743 237.638 99.3276 237.91 99.3066C238.182 99.2853 238.443 99.1905 238.666 99.0323L239.051 100.729L237.916 101.484ZM241.003 110.57C239.902 110.567 238.866 110.048 238.205 109.168C237.543 108.289 237.332 107.15 237.634 106.091C237.936 105.033 238.717 104.178 239.743 103.78L239.97 104.775V104.775C239.216 105.122 238.684 105.82 238.549 106.638C238.414 107.457 238.694 108.289 239.297 108.859C239.899 109.429 240.745 109.663 241.555 109.484C242.364 109.304 243.032 108.735 243.337 107.963C243.642 107.192 243.545 106.32 243.077 105.635C242.609 104.95 241.832 104.543 241.003 104.546C240.984 104.546 240.967 104.551 240.948 104.552L240.722 103.557C240.815 103.55 240.908 103.542 241.003 103.542C242.258 103.542 243.418 104.212 244.045 105.299C244.673 106.386 244.673 107.726 244.045 108.813C243.418 109.9 242.258 110.57 241.003 110.57L241.003 110.57ZM240.513 107.167L241.492 106.945L241.179 105.568V105.568C241.652 105.626 242.068 105.904 242.303 106.318C242.538 106.731 242.562 107.232 242.369 107.667C242.177 108.102 241.789 108.419 241.325 108.523C240.86 108.627 240.375 108.504 240.015 108.193C239.656 107.881 239.465 107.418 239.501 106.943C239.538 106.469 239.797 106.04 240.199 105.787L240.513 107.167Z" fill="white"/>
<path d="M241.003 105.551C241.062 105.554 241.121 105.56 241.179 105.569L240.949 104.553C240.61 104.56 240.277 104.636 239.97 104.776L240.2 105.788C240.439 105.634 240.718 105.552 241.003 105.551L241.003 105.551Z" fill="white"/>
<path d="M240.498 102.569L240.263 101.535L240.035 100.531H239.497C239.398 100.531 239.301 100.561 239.219 100.616L239.05 100.728L239.288 101.776L239.52 102.795L239.744 103.78V103.781C240.057 103.659 240.387 103.584 240.722 103.557L240.498 102.569Z" fill="white"/>
<path d="M239.364 97.5738L238.984 95.9023C238.932 95.6737 238.728 95.5117 238.494 95.5117H236.486V96.5156H238.093L238.407 97.8996L238.664 99.031C238.733 98.9821 238.798 98.9279 238.858 98.8688L239.167 98.5591L239.603 98.6319L239.364 97.5738Z" fill="white"/>
<g opacity="0.15">
<path opacity="0.15" d="M117.497 76.6138L132.558 91.6754V115.766L117.497 130.828H93.406L78.3443 115.766V91.6754L93.406 76.6138H117.497ZM118.794 73.4678H117.489H93.3981H92.0925L91.1723 74.388L76.1106 89.4496L75.1904 90.3698V91.6754V115.766V117.072L76.1106 117.992L91.1723 133.054L92.0925 133.974H93.3981H117.489H118.794L119.715 133.054L134.776 117.992L135.697 117.072V115.766V91.6754V90.3698L134.776 89.4496L119.715 74.388L118.794 73.4678Z" fill="black"/>
</g>
<path d="M117.497 76.6133H93.3986L78.3369 91.6828V115.774L93.3986 130.835H117.497L132.559 115.774V91.6828L117.497 76.6133Z" stroke="white" stroke-width="2" stroke-miterlimit="10"/>
<path d="M115.672 80.7119H95.2232L82.4346 93.5006V113.958L95.2232 126.746H115.672L128.469 113.958V93.5006L115.672 80.7119Z" stroke="white" stroke-miterlimit="10"/>
<g opacity="0.15">
<path opacity="0.15" d="M124.498 83.5353L120.199 79.2363L81.0469 118.389L85.3459 122.688L124.498 83.5353Z" fill="white"/>
<path opacity="0.15" d="M87.8382 125.181L90.3408 127.684L129.493 88.5313L126.99 86.0287L87.8382 125.181Z" fill="white"/>
</g>
<path d="M97.8653 96.0096C97.8653 96.2559 97.7674 96.492 97.5933 96.6662C97.4192 96.8403 97.183 96.9381 96.9367 96.9381H95.2137C94.9674 96.9381 94.7313 96.8403 94.5571 96.6662C94.383 96.492 94.2852 96.2559 94.2852 96.0096C94.2852 95.7633 94.383 95.5272 94.5571 95.353C94.7313 95.1789 94.9674 95.0811 95.2137 95.0811H96.9367C97.183 95.0811 97.4192 95.1789 97.5933 95.353C97.7674 95.5272 97.8653 95.7633 97.8653 96.0096Z" fill="white"/>
<path d="M104.311 98.8002C104.419 98.8003 104.525 98.7752 104.621 98.7271C104.717 98.6789 104.8 98.609 104.865 98.5228C104.929 98.4366 104.972 98.3367 104.99 98.2308C105.009 98.125 105.003 98.0163 104.972 97.9134C104.929 97.7714 104.842 97.6468 104.723 97.5583C104.604 97.4697 104.46 97.4219 104.311 97.4219H99.5428C99.2619 97.422 98.9926 97.5337 98.7942 97.7324C98.6959 97.8306 98.5791 97.9086 98.4507 97.9618C98.3222 98.0149 98.1845 98.0423 98.0455 98.0423H94.7956C94.6464 98.0427 94.5013 98.0911 94.3817 98.1802C94.2621 98.2693 94.1742 98.3945 94.1311 98.5373C94.1007 98.6403 94.0944 98.7489 94.113 98.8547C94.1315 98.9605 94.1742 99.0606 94.2379 99.1472C94.3015 99.2337 94.3842 99.3044 94.4797 99.3536C94.5751 99.4028 94.6807 99.4293 94.7881 99.431L99.5086 99.4838C99.664 99.4856 99.8182 99.4563 99.9621 99.3976C100.106 99.3389 100.237 99.252 100.347 99.142C100.565 98.9232 100.862 98.8003 101.172 98.8002H104.311Z" fill="white"/>
<path d="M113.781 102.065C113.693 102.002 113.588 101.969 113.48 101.969H105.509C105.38 101.969 105.253 101.931 105.145 101.859C105.037 101.787 104.953 101.685 104.903 101.565C104.853 101.446 104.84 101.314 104.866 101.187C104.891 101.06 104.953 100.943 105.045 100.851C105.106 100.79 105.178 100.742 105.258 100.709C105.338 100.676 105.423 100.659 105.509 100.659H110.345C110.433 100.659 110.518 100.631 110.589 100.579C110.66 100.528 110.712 100.455 110.739 100.371C110.766 100.287 110.765 100.197 110.737 100.114C110.709 100.031 110.655 99.9586 110.583 99.9081C110.514 99.8586 110.43 99.832 110.345 99.832H101.587C101.277 99.8323 100.98 99.9554 100.761 100.174C100.651 100.284 100.52 100.371 100.376 100.43C100.233 100.489 100.078 100.518 99.9229 100.517L93.252 100.455C93.1636 100.454 93.0761 100.472 92.9953 100.508C92.9146 100.544 92.8424 100.597 92.7836 100.662C92.7042 100.752 92.6523 100.862 92.6343 100.98C92.6161 101.098 92.6327 101.219 92.6817 101.328C92.7308 101.437 92.8104 101.53 92.9108 101.594C93.0113 101.659 93.1284 101.693 93.2478 101.693H100.697C100.871 101.693 101.038 101.762 101.161 101.885C101.252 101.976 101.315 102.093 101.34 102.22C101.365 102.348 101.352 102.479 101.302 102.599C101.253 102.719 101.169 102.821 101.061 102.893C100.953 102.965 100.826 103.003 100.697 103.003H92.1075C92.0125 103.003 91.9184 103.022 91.8306 103.058C91.7428 103.094 91.663 103.147 91.5958 103.215C91.5286 103.282 91.4753 103.362 91.4389 103.449C91.4025 103.537 91.3838 103.631 91.3838 103.726C91.3838 103.918 91.46 104.102 91.5958 104.238C91.7315 104.374 91.9156 104.45 92.1075 104.45H104.846C105.283 104.45 105.713 104.339 106.096 104.127L107.666 103.257C107.971 103.088 108.314 103 108.662 103H113.479C113.589 103 113.695 102.965 113.784 102.901C113.872 102.836 113.938 102.745 113.972 102.641C114.005 102.537 114.004 102.424 113.97 102.32C113.936 102.216 113.869 102.126 113.78 102.062L113.781 102.065Z" fill="white"/>
<path d="M115.3 109.07C115.396 109.07 115.541 109.149 115.623 109.102L121.926 105.463C122.471 105.148 122.248 104.315 121.619 104.314H108.637C108.533 104.314 108.43 104.341 108.339 104.391L105.998 105.685C105.907 105.736 105.805 105.762 105.7 105.762H90.3283C90.2294 105.762 90.1319 105.786 90.0441 105.831C89.9564 105.877 89.8809 105.943 89.824 106.024L88.4393 108.003C88.3452 108.141 88.3083 108.31 88.3363 108.475C88.3643 108.639 88.4552 108.786 88.5896 108.885L88.8014 109.044C88.8247 109.061 88.8461 109.08 88.8682 109.102C88.918 109.16 88.9803 109.206 89.0504 109.236C89.1204 109.267 89.1965 109.281 89.2729 109.278C89.3492 109.275 89.424 109.255 89.4915 109.22C89.5591 109.184 89.6178 109.134 89.6633 109.072C90.5593 108.383 91.5244 107.969 92.558 107.969C93.5916 107.969 94.5561 108.383 95.4527 109.072C95.5903 109.21 95.7278 109.279 95.8659 109.279C96.0218 109.255 96.1663 109.182 96.2792 109.072C97.1752 108.383 98.1403 107.969 99.1739 107.969C100.207 107.969 101.173 108.383 102.069 109.072C102.206 109.21 102.344 109.279 102.482 109.279C102.638 109.255 102.783 109.183 102.896 109.072C103.792 108.383 104.756 107.969 105.79 107.969C106.823 107.969 107.788 108.383 108.685 109.072C108.754 109.141 108.96 109.279 109.098 109.279C109.236 109.279 109.442 109.141 109.512 109.072C110.408 108.383 111.373 107.969 112.406 107.969C113.44 107.969 114.404 108.383 115.3 109.072V109.07Z" fill="white"/>
<g opacity="0.15">
<path opacity="0.15" d="M241.782 202.125L256.843 217.186V241.277L241.782 256.339H217.691L202.629 241.277V217.186L217.691 202.125H241.782ZM243.087 198.979H241.782H217.691H216.385L215.465 199.899L200.404 214.96L199.483 215.881V217.186V241.277V242.583L200.404 243.503L215.465 258.564L216.385 259.485H217.691H241.782H243.087L244.008 258.564L259.069 243.503L259.989 242.583V241.277V217.186V215.881L259.069 214.96L244.008 199.899L243.087 198.979Z" fill="black"/>
</g>
<path d="M241.782 202.125H217.692L202.63 217.187V241.285L217.692 256.347H241.782L256.852 241.285V217.187L241.782 202.125Z" stroke="white" stroke-width="2" stroke-miterlimit="10"/>
<path d="M239.965 206.215H219.508L206.72 219.011V239.461L219.508 252.249H239.965L252.754 239.461V219.011L239.965 206.215Z" stroke="white" stroke-miterlimit="10"/>
<g opacity="0.15">
<path opacity="0.15" d="M248.784 209.045L244.485 204.746L205.333 243.898L209.632 248.197L248.784 209.045Z" fill="white"/>
<path opacity="0.15" d="M212.122 250.69L214.625 253.192L253.777 214.04L251.275 211.537L212.122 250.69Z" fill="white"/>
</g>
<path fill-rule="evenodd" clip-rule="evenodd" d="M244.929 219.555C244.81 219.695 237.837 225.711 237.64 225.89C237.444 226.07 237.599 226.05 237.638 226.229C237.677 226.408 237.281 226.768 237.202 226.885C237.186 226.913 237.179 226.945 237.181 226.978C237.484 227.41 238.449 228.931 238.208 230.433C238.864 229.645 239.31 228.335 239.347 226.837C239.351 226.938 239.356 227.04 239.356 227.143C239.356 229.857 238.163 232.057 236.692 232.057C235.856 232.057 235.11 231.346 234.622 230.233L232.617 231.839C232.84 232.282 232.876 232.707 232.685 232.813C232.483 232.927 232.105 232.636 231.839 232.162C231.664 231.85 231.585 231.54 231.608 231.33L231.52 231.113C227.498 233.158 217.471 238.689 216.965 238.903C216.35 239.161 214.506 239.639 214.129 239.639C213.753 239.639 226.259 232.155 226.556 231.917C226.68 231.818 226.594 231.786 226.413 231.786C226.159 231.786 225.713 231.849 225.389 231.876C225.174 231.893 224.592 231.937 223.661 232.056C223.322 232.09 222.982 232.105 222.641 232.1C222.304 232.1 221.936 232.092 221.585 232.079C221.615 232.122 221.642 232.168 221.665 232.215C221.801 232.494 221.797 232.775 221.658 232.843C221.52 232.911 221.296 232.74 221.161 232.461C221.097 232.336 221.063 232.198 221.062 232.058C220.451 232.029 219.963 231.993 219.874 231.977C219.725 231.95 219.715 231.886 219.66 231.886C219.615 231.892 219.572 231.91 219.536 231.937C219.337 232.057 217.811 233.151 217.315 233.27C216.909 233.368 216.209 233.56 216.003 233.56C215.957 233.56 215.936 233.551 215.947 233.529C216.006 233.41 219.085 231.159 219.258 230.904C219.419 230.668 218.258 226.556 218.406 226.23C218.493 226.037 219.514 225.691 219.76 225.691C219.794 225.691 219.813 225.697 219.813 225.712C219.813 225.831 221.459 229.232 221.717 229.312C221.724 229.313 221.731 229.313 221.739 229.312C222.097 229.312 224.617 227.736 224.869 227.599C225.082 227.484 226.281 227.057 226.515 227.06C226.564 227.06 226.577 227.088 226.515 227.124C225.993 227.426 224.823 228.202 225.299 228.13C225.308 228.13 225.596 228.133 225.617 228.126C225.829 228.051 227.347 226.97 228.982 226.16C229.964 225.674 231.051 225.289 231.254 225.254C231.411 225.227 231.571 225.213 231.73 225.213C232.599 225.213 233.351 225.592 233.653 225.79C233.685 225.798 233.719 225.801 233.753 225.799C233.84 225.799 233.977 225.792 234.135 225.78C234.455 223.729 235.478 222.227 236.693 222.227C236.715 222.227 236.734 222.232 236.758 222.233C235.596 222.336 234.643 223.829 234.382 225.758C234.838 225.717 235.361 225.648 235.477 225.589C235.509 225.574 235.678 225.454 235.942 225.264C235.664 224.738 235.451 224.105 235.52 223.453C236.027 222.366 236.972 222.033 237.067 222.283C236.468 222.796 236.43 223.879 236.542 224.829C238.537 223.375 242.656 220.32 243.006 220.03C243.345 219.75 244.416 219.418 244.813 219.418C244.952 219.418 245.01 219.456 244.93 219.552L244.929 219.555ZM231.684 231.138C231.695 231.123 231.709 231.11 231.725 231.099C231.914 230.993 232.255 231.243 232.515 231.66L233.062 230.383C232.851 230.454 232.344 230.696 231.634 231.056L231.684 231.138ZM228.269 228.638C228.239 228.571 228.103 227.799 228.09 227.705C228.07 227.552 227.883 227.562 227.859 227.564C227.745 227.58 226.932 227.99 226.952 228.168C226.992 228.451 227.054 228.73 227.138 229.003C227.152 229.042 227.176 229.075 227.208 229.1C227.241 229.126 227.279 229.141 227.32 229.144C227.334 229.145 227.348 229.142 227.362 229.137C227.445 229.108 228.046 228.93 228.209 228.876C228.373 228.822 228.298 228.705 228.269 228.638ZM229.698 227.02C229.496 227.02 228.357 227.219 228.421 227.564C228.462 227.793 228.617 228.573 228.67 228.656C228.676 228.666 228.704 228.67 228.749 228.67C229.068 228.67 230.184 228.324 230.262 228.212C230.351 228.085 229.798 227.078 229.732 227.026C229.722 227.021 229.71 227.019 229.698 227.02H229.698ZM232.589 225.528C232.423 225.484 232.013 225.439 231.682 225.439C231.507 225.439 231.355 225.452 231.273 225.481C231.035 225.57 230.891 225.635 230.782 225.734C230.478 226.012 230.157 226.42 230.15 226.682C230.142 226.943 230.67 227.942 230.782 227.987C230.839 228.01 230.899 228.022 230.96 228.024C231.008 228.025 231.056 228.014 231.098 227.99C231.14 227.967 231.175 227.932 231.198 227.89C231.303 227.711 233.221 226.055 233.377 226.011C233.533 225.966 232.842 225.593 232.589 225.525V225.528ZM234.499 229.929C234.127 230.071 233.749 230.195 233.365 230.298L232.767 231.495L234.554 230.063C234.536 230.018 234.516 229.975 234.499 229.929ZM234.936 229.744L234.941 229.754L234.974 229.727C234.962 229.732 234.948 229.738 234.935 229.744H234.936ZM235.022 229.913C235.468 230.717 236.088 231.215 236.78 231.215C236.829 231.213 236.878 231.209 236.927 231.202C237.459 230.26 237.334 228.545 237.206 227.574C237.204 227.604 237.206 227.629 237.202 227.661C237.178 227.831 236.959 228.11 236.676 228.403C236.853 228.773 236.883 229.141 236.746 229.232C236.633 229.305 236.44 229.166 236.272 228.914L235.022 229.913Z" fill="white"/>
<g opacity="0.15">
<path opacity="0.15" d="M117.497 202.125L132.558 217.186V241.277L117.497 256.339H93.406L78.3443 241.277V217.186L93.406 202.125H117.497ZM118.794 198.979H117.489H93.3981H92.0925L91.1723 199.899L76.1106 214.96L75.1904 215.881V217.186V241.277V242.583L76.1106 243.503L91.1723 258.564L92.0925 259.485H93.3981H117.489H118.794L119.715 258.564L134.776 243.503L135.697 242.583V241.277V217.186V215.881L134.776 214.96L119.715 199.899L118.794 198.979Z" fill="black"/>
</g>
<path d="M117.497 202.125H93.3986L78.3369 217.187V241.285L93.3986 256.347H117.497L132.559 241.285V217.187L117.497 202.125Z" stroke="white" stroke-width="2" stroke-miterlimit="10"/>
<path d="M115.672 206.215H95.2232L82.4346 219.011V239.461L95.2232 252.249H115.672L128.469 239.461V219.011L115.672 206.215Z" stroke="white" stroke-miterlimit="10"/>
<g opacity="0.15">
<path opacity="0.15" d="M124.493 209.044L120.194 204.745L81.0421 243.897L85.341 248.196L124.493 209.044Z" fill="white"/>
<path opacity="0.15" d="M87.8343 250.691L90.3369 253.193L129.489 214.041L126.987 211.538L87.8343 250.691Z" fill="white"/>
</g>
<path d="M100.524 233.918C100.524 233.918 99.581 233.133 97.5387 232.426C95.4977 231.797 93.846 231.64 94.2388 230.54C94.2388 230.54 93.846 231.169 95.8099 231.561C97.6955 232.032 99.1097 232.189 100.68 233.289H110.187C111.836 232.189 113.172 232.032 115.136 231.561C117.1 231.168 116.708 230.54 116.708 230.54C117.022 231.64 115.294 231.875 113.251 232.504C111.208 233.133 110.421 233.918 110.421 233.918H100.524Z" fill="white"/>
<path d="M105.788 228.576H105.159C104.217 228.576 102.41 228.655 101.309 228.812C101.309 228.812 100.131 228.891 101.231 230.541C101.231 230.541 100.76 229.676 101.074 229.284C101.074 229.284 101.153 229.048 101.702 228.969C101.702 228.969 103.667 228.812 105.159 228.812H105.709C107.202 228.812 109.166 228.969 109.166 228.969C109.795 229.048 109.795 229.284 109.795 229.284C110.109 229.676 109.637 230.541 109.637 230.541C110.737 228.891 109.559 228.812 109.559 228.812C108.459 228.655 106.652 228.576 105.787 228.576H105.788Z" fill="white"/>
<path d="M116.866 232.426L112.23 233.446V234.782C112.23 234.782 112.152 235.646 112.544 235.567H116.551C116.551 235.567 116.866 235.567 116.866 234.861V232.426Z" fill="white"/>
<path d="M94.1602 232.425L98.7959 233.445V234.781C98.7959 234.781 98.8743 235.645 98.4814 235.566H94.4747C94.4747 235.566 94.1602 235.566 94.1602 234.86V232.425Z" fill="white"/>
<path d="M111.602 223.391C112.822 223.932 113.821 224.875 114.432 226.062H114.9V225.198C115.608 225.198 116.941 225.198 117.257 225.433C117.571 225.59 117.493 226.219 117.493 226.219L114.586 226.455L114.664 226.612C115.33 226.754 115.986 226.938 116.629 227.162C116.472 227.397 115.922 227.711 115.843 227.79C115.436 227.957 115.016 228.088 114.586 228.183C113.643 228.34 112.622 228.497 112.15 229.126C112.15 229.126 114.507 230.069 116.158 229.126C116.158 229.126 116.472 228.497 116.236 227.79C116.393 227.633 116.551 227.555 116.707 227.397C117.1 228.654 116.707 229.362 116.707 229.362C116.314 230.069 115.529 230.069 113.251 230.697C110.972 231.326 109.872 232.662 109.872 232.662H108.929C109.48 232.033 110.815 230.304 110.97 229.047C110.97 229.047 111.285 228.419 109.635 228.261C106.835 228.104 104.029 228.104 101.229 228.261C99.5787 228.419 99.8927 229.047 99.8927 229.047C100.05 230.304 101.464 232.033 101.934 232.662H100.991C100.991 232.662 99.9707 231.326 97.6913 230.697C95.334 230.069 94.5482 230.069 94.1553 229.362C94.1553 229.362 93.8413 228.654 94.2342 227.397C94.3126 227.555 94.4698 227.633 94.6271 227.79C94.3914 228.497 94.7054 229.126 94.7054 229.126C96.3554 230.069 98.7911 229.126 98.7911 229.126C98.241 228.497 97.22 228.34 96.277 228.183C95.8698 228.1 95.4741 227.968 95.0983 227.79C94.9416 227.711 94.3914 227.397 94.3126 227.162C94.9308 226.944 95.5604 226.761 96.1986 226.612L96.277 226.455L93.37 226.219C93.37 226.219 93.2916 225.59 93.6057 225.433C93.9202 225.198 95.2556 225.198 95.9625 225.198V226.062H96.5126C97.1119 224.894 98.0779 223.956 99.2624 223.391C103.344 222.684 107.516 222.684 111.598 223.391H111.602ZM105.474 227.869L105.71 226.06C107.438 226.139 110.66 226.296 112.466 226.374C111.367 227.317 110.895 228.338 110.895 228.338C111.367 227.632 112.781 226.846 113.567 226.453C113.252 224.882 111.445 223.86 111.445 223.86C107.831 223.075 103.039 223.075 99.5031 223.86C99.5031 223.86 97.694 224.881 97.303 226.453C98.1676 226.846 99.503 227.632 100.053 228.338C100.053 228.338 99.5031 227.318 98.4033 226.374C100.21 226.296 103.431 226.139 105.16 226.06L105.474 227.869Z" fill="white"/>
<path d="M208.74 120.776L211.249 121.791L212.271 124.3L201.803 134.768L199.294 133.746L198.279 131.237L208.74 120.776Z" fill="#5BEDFC"/>
<path d="M211.249 121.791L212.271 124.3L201.803 134.768L199.294 133.746" fill="url(#paint0_linear_630_792)"/>
<path d="M132.543 196.981L135.052 197.996L136.066 200.505L125.598 210.966L123.089 209.951L122.074 207.442L132.543 196.981Z" fill="#5BEDFC"/>
<path d="M135.052 197.996L136.066 200.505L125.598 210.966L123.089 209.951" fill="url(#paint1_linear_630_792)"/>
<path d="M136.381 132.07L135.366 134.579L132.857 135.594L122.396 125.133L123.411 122.624L125.92 121.609L136.381 132.07Z" fill="#5BEDFC"/>
<path d="M135.366 134.579L132.857 135.594L122.396 125.133L123.411 122.624" fill="url(#paint2_linear_630_792)"/>
<path d="M211.304 208.007L210.289 210.516L207.78 211.531L197.312 201.07L198.326 198.562L200.835 197.539L211.304 208.007Z" fill="#5BEDFC"/>
<path d="M210.289 210.516L207.78 211.531L197.312 201.07L198.326 198.562" fill="url(#paint3_linear_630_792)"/>
<g opacity="0.15">
<path opacity="0.15" d="M117.497 202.125L132.558 217.186V241.277L117.497 256.339H93.406L78.3443 241.277V217.186L93.406 202.125H117.497ZM118.794 198.979H117.489H93.3981H92.0925L91.1723 199.899L76.1106 214.96L75.1904 215.881V217.186V241.277V242.583L76.1106 243.503L91.1723 258.564L92.0925 259.485H93.3981H117.489H118.794L119.715 258.564L134.776 243.503L135.697 242.583V241.277V217.186V215.881L134.776 214.96L119.715 199.899L118.794 198.979Z" fill="black"/>
</g>
<g opacity="0.15">
<path opacity="0.15" d="M124.493 209.044L120.194 204.745L81.0421 243.897L85.341 248.196L124.493 209.044Z" fill="white"/>
<path opacity="0.15" d="M87.8343 250.691L90.3369 253.193L129.489 214.041L126.987 211.538L87.8343 250.691Z" fill="white"/>
</g>
<g opacity="0.15">
<path opacity="0.15" d="M117.497 202.125L132.558 217.186V241.277L117.497 256.339H93.406L78.3443 241.277V217.186L93.406 202.125H117.497ZM118.794 198.979H117.489H93.3981H92.0925L91.1723 199.899L76.1106 214.96L75.1904 215.881V217.186V241.277V242.583L76.1106 243.503L91.1723 258.564L92.0925 259.485H93.3981H117.489H118.794L119.715 258.564L134.776 243.503L135.697 242.583V241.277V217.186V215.881L134.776 214.96L119.715 199.899L118.794 198.979Z" fill="black"/>
</g>
<g opacity="0.15">
<path opacity="0.15" d="M124.493 209.044L120.194 204.745L81.0421 243.897L85.341 248.196L124.493 209.044Z" fill="white"/>
<path opacity="0.15" d="M87.8343 250.691L90.3369 253.193L129.489 214.041L126.987 211.538L87.8343 250.691Z" fill="white"/>
</g>
<g opacity="0.15">
<path opacity="0.15" d="M192.861 123.018L210.463 140.62V192.364L192.861 209.966H141.117L123.515 192.364V140.62L141.117 123.018H192.861ZM193.844 120.658H192.869H141.125H140.149L139.457 121.35L121.855 138.952L121.163 139.645V140.62V192.364V193.339L121.855 194.032L139.457 211.634L140.149 212.326H141.125H192.869H193.844L194.536 211.634L212.139 194.032L212.831 193.339V192.364V140.62V139.645L212.139 138.952L194.536 121.35L193.844 120.658Z" fill="black"/>
</g>
<path d="M191.563 126.164L207.325 141.925V191.066L191.563 206.828H142.422L126.661 191.066V141.925L142.422 126.164H191.563ZM192.861 123.018H141.117L123.515 140.62V192.364L141.117 209.966H192.861L210.463 192.364V140.62L192.861 123.018Z" fill="white"/>
<path d="M138.772 135.814C137.719 135.814 136.869 136.664 136.869 137.718C136.869 138.772 137.719 139.621 138.772 139.621C139.826 139.621 140.676 138.772 140.676 137.718C140.676 136.672 139.826 135.814 138.772 135.814Z" fill="white"/>
<path d="M195.205 135.814C194.151 135.814 193.302 136.664 193.302 137.718C193.302 138.772 194.151 139.621 195.205 139.621C196.259 139.621 197.108 138.772 197.108 137.718C197.108 136.672 196.259 135.814 195.205 135.814Z" fill="white"/>
<path d="M138.772 193.363C137.719 193.363 136.869 194.213 136.869 195.267C136.869 196.321 137.719 197.17 138.772 197.17C139.826 197.17 140.676 196.321 140.676 195.267C140.676 194.221 139.826 193.363 138.772 193.363Z" fill="white"/>
<path d="M195.205 193.363C194.151 193.363 193.302 194.213 193.302 195.267C193.302 196.321 194.151 197.17 195.205 197.17C196.259 197.17 197.108 196.321 197.108 195.267C197.108 194.221 196.259 193.363 195.205 193.363Z" fill="white"/>
<g opacity="0.25">
<path opacity="0.25" d="M199.761 132.522L192.209 124.97L124.972 192.207L132.524 199.759L199.761 132.522Z" fill="white"/>
<path opacity="0.25" d="M136.909 204.144L141.308 208.543L208.545 141.306L204.146 136.907L136.909 204.144Z" fill="white"/>
</g>
<path d="M208.74 120.777L211.249 121.792L212.271 124.301L201.803 134.769L199.294 133.747L198.279 131.238L208.74 120.777Z" fill="white"/>
<path d="M211.249 121.792L212.271 124.301L201.803 134.769L199.294 133.747" fill="url(#paint4_linear_630_792)"/>
<path d="M132.543 196.982L135.052 197.997L136.066 200.506L125.598 210.967L123.089 209.952L122.074 207.443L132.543 196.982Z" fill="white"/>
<path d="M135.052 197.997L136.066 200.506L125.598 210.967L123.089 209.952" fill="url(#paint5_linear_630_792)"/>
<path d="M136.381 132.071L135.366 134.58L132.857 135.594L122.396 125.134L123.411 122.625L125.92 121.61L136.381 132.071Z" fill="white"/>
<path d="M135.366 134.58L132.857 135.595L122.396 125.134L123.411 122.625" fill="url(#paint6_linear_630_792)"/>
<path d="M211.304 208.008L210.289 210.517L207.78 211.532L197.312 201.071L198.326 198.562L200.835 197.54L211.304 208.008Z" fill="white"/>
<path d="M210.289 210.517L207.78 211.532L197.312 201.071L198.326 198.562" fill="url(#paint7_linear_630_792)"/>
<path d="M158.426 177.536H153.884L143.598 162.082V177.536H139.056V154.984H143.598L153.884 170.471V154.984H158.426V177.536Z" fill="white"/>
<path d="M176.251 155.017V158.662H166.809V164.437H174.045V168.019H166.809V177.536H162.267V155.017H176.251Z" fill="white"/>
<path d="M194.236 155.017V158.662H188.201V177.536H183.658V158.662H177.623V155.017H194.236Z" fill="white"/>
<defs>
<linearGradient id="paint0_linear_630_792" x1="198.002" y1="126.711" x2="212.231" y2="124.095" gradientUnits="userSpaceOnUse">
<stop offset="0.8257" stop-color="#29AFD9"/>
<stop offset="0.9436" stop-color="#29AFD9"/>
</linearGradient>
<linearGradient id="paint1_linear_630_792" x1="121.799" y1="202.914" x2="136.028" y2="200.298" gradientUnits="userSpaceOnUse">
<stop offset="0.8257" stop-color="#29AFD9"/>
<stop offset="0.9436" stop-color="#29AFD9"/>
</linearGradient>
<linearGradient id="paint2_linear_630_792" x1="130.448" y1="121.329" x2="133.063" y2="135.558" gradientUnits="userSpaceOnUse">
<stop offset="0.8257" stop-color="#29AFD9"/>
<stop offset="0.9436" stop-color="#29AFD9"/>
</linearGradient>
<linearGradient id="paint3_linear_630_792" x1="205.367" y1="197.265" x2="207.983" y2="211.495" gradientUnits="userSpaceOnUse">
<stop offset="0.8257" stop-color="#29AFD9"/>
<stop offset="0.9436" stop-color="#29AFD9"/>
</linearGradient>
<linearGradient id="paint4_linear_630_792" x1="198.002" y1="126.712" x2="212.231" y2="124.096" gradientUnits="userSpaceOnUse">
<stop offset="0.8257" stop-color="#4D4F9F"/>
</linearGradient>
<linearGradient id="paint5_linear_630_792" x1="121.797" y1="202.914" x2="136.026" y2="200.297" gradientUnits="userSpaceOnUse">
<stop offset="0.8257" stop-color="#4D4F9F"/>
</linearGradient>
<linearGradient id="paint6_linear_630_792" x1="121.105" y1="127.542" x2="135.326" y2="124.928" gradientUnits="userSpaceOnUse">
<stop offset="0.8257" stop-color="#4D4F9F"/>
</linearGradient>
<linearGradient id="paint7_linear_630_792" x1="196.019" y1="203.48" x2="210.248" y2="200.862" gradientUnits="userSpaceOnUse">
<stop offset="0.8257" stop-color="#4D4F9F"/>
</linearGradient>
</defs>
</svg>
