<svg width="56" height="14" viewBox="0 0 56 14" fill="none" xmlns="http://www.w3.org/2000/svg">
<path d="M41.0745 3.58522C41.7788 3.39918 42.4788 3.35739 43.1745 3.45986C43.8836 3.55875 44.532 3.78104 45.1195 4.12673C45.7034 4.45906 46.2161 4.90322 46.6576 5.45922C47.0954 6.00187 47.4087 6.62034 47.5974 7.31466L47.8315 8.17587L39.4 10.403C39.5928 10.7385 39.8326 11.0329 40.1192 11.2863C40.4194 11.5362 40.7425 11.737 41.0887 11.8889C41.4447 12.0238 41.8152 12.1049 42.2 12.132C42.5848 12.1592 42.9736 12.1209 43.3664 12.0171C43.9759 11.8561 44.4864 11.571 44.8977 11.1618C45.3227 10.7491 45.5261 10.5585 45.7168 9.97861L47.0664 9.61904C47.4476 9.51749 47.7907 9.87515 47.6411 10.2387C47.3375 10.9765 46.8783 11.805 46.1648 12.4586C45.4933 13.0736 44.734 13.5234 43.84 13.7596C43.1357 13.9456 42.429 13.9892 41.7198 13.8903C41.0241 13.7878 40.3776 13.5722 39.7801 13.2435C39.1926 12.8978 38.6799 12.4536 38.2421 11.911C37.8006 11.355 37.4855 10.7298 37.2968 10.0355C37.1081 9.34119 37.0657 8.65115 37.1696 7.9654C37.27 7.26629 37.4887 6.62893 37.8258 6.05332C38.1728 5.46077 38.6216 4.94869 39.172 4.51707C39.7361 4.08188 40.3702 3.77126 41.0745 3.58522ZM45.4942 6.94716C45.3014 6.6117 45.0549 6.31904 44.7547 6.06918C44.4681 5.81575 44.1535 5.61978 43.811 5.48128C43.4649 5.32942 43.0926 5.24171 42.6943 5.21814C42.3094 5.19099 41.9274 5.2275 41.5481 5.32768C41.1554 5.43143 40.7992 5.5899 40.4797 5.80309C40.1602 6.01628 39.8823 6.27573 39.646 6.58142C39.4197 6.87019 39.2399 7.19674 39.1066 7.56109C38.9869 7.92185 38.9287 8.29501 38.9319 8.68056L45.4942 6.94716Z" fill="white"/>
<path fill-rule="evenodd" clip-rule="evenodd" d="M6.47342 0.48336V8.0527C6.47342 8.61945 6.36124 9.15164 6.13689 9.64927C5.92655 10.1469 5.63208 10.5823 5.25348 10.9556C4.8889 11.3288 4.4542 11.626 3.9494 11.8472C3.44459 12.0545 2.90473 12.1582 2.32981 12.1582H0V13.9414H2.32981C3.14311 13.9414 3.91434 13.7893 4.6435 13.4852C5.37267 13.1673 6.00367 12.7457 6.53652 12.2204C7.0834 11.6813 7.51108 11.0592 7.81957 10.3543C8.14208 9.63545 8.30334 8.86827 8.30334 8.0527V0L6.47342 0.48336Z" fill="white"/>
<path d="M12.6497 3.58522C13.354 3.39918 14.054 3.35739 14.7497 3.45986C15.4588 3.55875 16.1072 3.78104 16.6947 4.12673C17.2786 4.45906 17.7913 4.90322 18.2328 5.45922C18.6706 6.00187 18.9839 6.62034 19.1726 7.31466L19.4067 8.17587L10.9752 10.403C11.168 10.7385 11.4078 11.0329 11.6944 11.2863C11.9946 11.5362 12.3177 11.737 12.6639 11.8889C13.0199 12.0238 13.3904 12.1049 13.7752 12.132C14.16 12.1592 14.5488 12.1209 14.9416 12.0171C15.5511 11.8561 16.0616 11.571 16.4729 11.1618C16.8979 10.7491 17.1012 10.5585 17.292 9.97861L18.6416 9.61904C19.0228 9.51749 19.3659 9.87515 19.2163 10.2387C18.9127 10.9765 18.4535 11.805 17.74 12.4586C17.0685 13.0736 16.3092 13.5234 15.4152 13.7596C14.7109 13.9456 14.0042 13.9892 13.295 13.8903C12.5993 13.7878 11.9528 13.5722 11.3553 13.2435C10.7678 12.8978 10.2551 12.4536 9.81727 11.911C9.37581 11.355 9.06072 10.7298 8.87199 10.0355C8.68327 9.34119 8.64088 8.65115 8.74483 7.9654C8.84515 7.26629 9.06387 6.62893 9.40099 6.05332C9.74802 5.46077 10.1968 4.94869 10.7472 4.51707C11.3112 4.08188 11.9454 3.77126 12.6497 3.58522ZM17.0694 6.94716C16.8766 6.6117 16.6301 6.31904 16.3299 6.06918C16.0433 5.81575 15.7287 5.61978 15.3862 5.48128C15.0401 5.32942 14.6678 5.24171 14.2694 5.21814C13.8846 5.19099 13.5026 5.2275 13.1233 5.32768C12.7306 5.43143 12.3744 5.5899 12.0549 5.80309C11.7354 6.01628 11.4575 6.27573 11.2212 6.58142C10.9949 6.87019 10.8151 7.19674 10.6818 7.56109C10.5621 7.92185 10.5039 8.29501 10.5071 8.68056L17.0694 6.94716Z" fill="white"/>
<path fill-rule="evenodd" clip-rule="evenodd" d="M29.2887 3.95282C29.2887 4.53064 29.4751 4.97057 29.8478 5.27261C30.2205 5.56152 30.6829 5.7979 31.2351 5.98175C31.801 6.15247 32.4084 6.31006 33.0572 6.45451C33.706 6.59897 34.3064 6.80908 34.8586 7.08486C35.4246 7.3475 35.8939 7.72177 36.2666 8.20767C36.6393 8.68043 36.8257 9.34361 36.8257 10.1972C36.8257 10.8013 36.7014 11.3397 36.453 11.8125C36.2183 12.2852 35.9008 12.6858 35.5005 13.0141C35.1002 13.3292 34.6308 13.5722 34.0925 13.7429C33.5541 13.9136 32.9882 13.999 32.3946 13.999C31.7734 13.999 31.173 13.9136 30.5932 13.7429C30.0134 13.5591 29.4958 13.2964 29.0402 12.955C28.5985 12.6135 28.2396 12.1933 27.9635 11.6943C27.7901 11.3808 27.6658 11.0415 27.5904 10.6763L29.3225 10.2187C29.3714 10.5145 29.4637 10.7766 29.5993 11.0048C29.7788 11.2937 30.0065 11.5367 30.2826 11.7337C30.5725 11.9175 30.8969 12.0554 31.2558 12.1473C31.6285 12.2393 32.015 12.2852 32.4153 12.2852C32.7328 12.2852 33.0503 12.2458 33.3678 12.167C33.6853 12.0882 33.9682 11.9635 34.2167 11.7928C34.4652 11.6221 34.6653 11.4119 34.8172 11.1624C34.969 10.9129 35.045 10.6109 35.045 10.2563C35.045 9.8098 34.9345 9.45523 34.7137 9.19258C34.5066 8.91681 34.2236 8.69356 33.8647 8.52284C33.5058 8.33899 33.0986 8.19453 32.6431 8.08948C32.2013 7.97129 31.7389 7.8531 31.2558 7.73491C30.7864 7.60358 30.324 7.45913 29.8685 7.30154C29.4268 7.13082 29.0264 6.90757 28.6675 6.6318C28.3086 6.34289 28.0188 5.98832 27.7979 5.56808C27.5908 5.13472 27.4873 4.58973 27.4873 3.93312C27.4873 3.34217 27.6046 2.81688 27.8393 2.35725C28.0878 1.88449 28.4122 1.49052 28.8125 1.17535C29.2266 0.847042 29.7028 0.604095 30.2412 0.446509C30.7795 0.275789 31.3386 0.19043 31.9184 0.19043C32.5533 0.19043 33.1607 0.282355 33.7405 0.466207C34.3202 0.636926 34.831 0.893005 35.2727 1.23444C35.5033 1.4127 35.7114 1.61243 35.8968 1.83363L33.8725 2.36833C33.6166 2.21544 33.331 2.10012 33.0158 2.02238C32.6569 1.93045 32.2842 1.88449 31.8977 1.88449C31.5664 1.88449 31.242 1.93045 30.9245 2.02238C30.607 2.10117 30.324 2.22593 30.0755 2.39665C29.8409 2.55423 29.6476 2.76435 29.4958 3.02699C29.3577 3.28964 29.2887 3.59825 29.2887 3.95282Z" fill="white"/>
<path fill-rule="evenodd" clip-rule="evenodd" d="M21.001 3.34596V1.69945L22.8023 1.22363V3.34596V5.15295V5.43202L26.3882 4.48484V6.32865L22.8023 7.27583V10.5109C22.8023 10.735 22.8442 10.9522 22.928 11.1623C23.0258 11.3584 23.1514 11.5335 23.305 11.6876C23.4586 11.8416 23.6332 11.9677 23.8287 12.0658C24.0382 12.1498 24.2546 12.1918 24.478 12.1918C24.883 12.1918 25.2321 12.0658 25.5253 11.8136C25.6325 11.7372 25.8348 11.4771 25.7866 11.0477L27.5338 10.6913C27.823 11.8758 27.0231 13.0286 26.6774 13.2214C26.035 13.7397 25.3019 13.9988 24.478 13.9988C23.9893 13.9988 23.5354 13.9078 23.1165 13.7257C22.6976 13.5436 22.3276 13.2984 22.0064 12.9903C21.6992 12.6681 21.4548 12.2969 21.2733 11.8767C21.0917 11.4564 21.001 11.0012 21.001 10.5109V7.75165L20.002 8.01553V6.17172L21.001 5.90784V5.15295V3.34596Z" fill="white"/>
<path fill-rule="evenodd" clip-rule="evenodd" d="M49.4056 3.34693V1.70043L51.207 1.22461V3.34693V5.15393V5.44205L54.8267 4.48594V6.32975L51.207 7.28586V10.5119C51.207 10.736 51.2489 10.9531 51.3327 11.1632C51.4304 11.3594 51.5561 11.5344 51.7097 11.6885C51.8633 11.8426 52.0379 11.9687 52.2334 12.0667C52.4428 12.1508 52.6593 12.1928 52.8827 12.1928C53.2876 12.1928 53.6367 12.0667 53.93 11.8146C54.0372 11.7382 54.2394 11.4781 54.1912 11.0487L55.9385 10.6923C56.2277 11.8768 55.4278 13.0296 55.082 13.2224C54.4397 13.7407 53.7066 13.9998 52.8827 13.9998C52.3939 13.9998 51.9401 13.9088 51.5212 13.7267C51.1023 13.5446 50.7322 13.2994 50.4111 12.9913C50.1038 12.6691 49.8595 12.2979 49.6779 11.8776C49.4964 11.4574 49.4056 11.0022 49.4056 10.5119V7.76167L48.4404 8.01663V6.17282L49.4056 5.91786V5.15393V3.34693Z" fill="white"/>
</svg>
