<svg width="180" height="45" fill="none" xmlns="http://www.w3.org/2000/svg"><path d="M6.76 36.603a2.787 2.787 0 01-1.98-.822l-3.968-4.01A2.84 2.84 0 010 29.715V.614h4.626v30.232a1.163 1.163 0 00.352.811 1.138 1.138 0 00.817.32h5.03v4.626H6.76zm80.12-3.851h16.325l-6.852-6.928 2.623-2.654 6.217 6.285a1.5 1.5 0 01.424 1.026v4.792a1.2 1.2 0 01-.424.9c-.283.277-.664.43-1.058.426H86.881v-3.847zM105.829 15v3.851H89.46l6.893 6.973-2.62 2.65-6.218-6.286a1.501 1.501 0 01-.434-1.027v-4.835a1.214 1.214 0 01.434-.897 1.49 1.49 0 011.056-.44l17.257.011zm7.841 2.864c.404.409.652.66 1.254.66h9.009v-3.685h-9.455a.896.896 0 01-.65-.252.908.908 0 01-.28-.646V0h-3.676v13.041a2.27 2.27 0 00.651 1.636l3.147 3.187zm.67.956v17.63h-4.303V18.82m24.771-4.57c3.27 0 5.967 1.074 8.09 3.22 2.152 2.12 3.227 4.818 3.227 8.096 0 3.279-1.075 5.978-3.227 8.098-2.122 2.147-4.819 3.22-8.09 3.22s-5.968-1.073-8.09-3.22c-2.152-2.116-3.227-4.815-3.227-8.098 0-3.282 1.075-5.98 3.227-8.095 2.124-2.149 4.82-3.222 8.09-3.22zm0 18.412c2.038 0 3.717-.667 5.035-2 1.318-1.334 1.978-3.032 1.98-5.096 0-2.06-.66-3.757-1.98-5.09-1.32-1.334-2.998-2.004-5.035-2.012-2.035 0-3.714.669-5.035 2.005-1.321 1.336-1.98 3.033-1.977 5.09 0 2.063.659 3.761 1.977 5.096s2.997 2.004 5.035 2.007zM79.151 13.628v25.879a1.11 1.11 0 01-.336.775 1.085 1.085 0 01-.78.304H62.128V45h14.984a2.66 2.66 0 001.892-.785l3.788-3.827a2.697 2.697 0 00.778-1.96l-.08-24.8" fill="#000"/><path d="M71.448 14.25c3.27 0 5.966 1.074 8.09 3.22 2.151 2.12 3.227 4.818 3.227 8.096 0 3.279-1.077 5.978-3.231 8.098-2.123 2.147-4.82 3.22-8.09 3.22-3.272 0-5.969-1.073-8.091-3.22-2.151-2.116-3.227-4.815-3.227-8.098 0-3.282 1.076-5.98 3.227-8.095 2.125-2.149 4.824-3.222 8.095-3.22zm0 18.412c2.037 0 3.715-.667 5.035-2 1.32-1.334 1.98-3.032 1.98-5.096 0-2.06-.66-3.757-1.98-5.09-1.32-1.334-2.999-2.004-5.035-2.012-2.039 0-3.717.669-5.035 2.005-1.319 1.336-1.979 3.033-1.98 5.09 0 2.063.66 3.761 1.98 5.096 1.32 1.335 2.998 2.004 5.035 2.007zm-36.846-17.24v21.102h-4.18v-2.783c-2.003 2.138-4.507 3.207-7.512 3.207-2.977 0-5.453-1.04-7.427-3.123-2.004-2.11-3.006-4.727-3.006-7.85 0-3.123 1.005-5.74 3.012-7.852 1.976-2.08 4.452-3.122 7.428-3.123 3.006 0 5.51 1.07 7.512 3.21v-2.788h4.173zm-11.06 17.517c2.029 0 3.684-.647 4.966-1.941s1.92-2.968 1.915-5.023c0-2.051-.64-3.726-1.921-5.023-1.28-1.296-2.936-1.944-4.966-1.943-2.028 0-3.683.648-4.965 1.944-1.282 1.295-1.922 2.97-1.919 5.022 0 2.052.64 3.726 1.919 5.023 1.279 1.297 2.936 1.944 4.972 1.94zM48.78 15c2.708 0 4.907.913 6.598 2.739 1.664 1.802 2.497 4.096 2.497 6.88v12.2h-4.231v-11.76c0-1.856-.535-3.31-1.606-4.364-1.043-1.083-2.482-1.625-4.316-1.626-1.834-.002-3.272.54-4.313 1.626-1.071 1.055-1.606 2.51-1.606 4.364v11.76h-4.231v-21.39h4.23v2.736C43.523 16.055 45.849 15 48.78 15zm111.894 0c2.706 0 4.905.913 6.597 2.739 1.662 1.802 2.494 4.096 2.495 6.88v12.2h-4.229v-11.76c0-1.856-.536-3.31-1.608-4.364-1.043-1.083-2.481-1.625-4.313-1.626-1.833-.002-3.271.54-4.314 1.626-1.07 1.055-1.606 2.51-1.608 4.364v11.76h-4.229v-21.39h4.229v2.736c1.721-2.11 4.048-3.165 6.98-3.165zm16.289 15.79c.534 0 1.059.143 1.521.415.465.263.849.652 1.108 1.123.265.469.405.999.407 1.538a3.107 3.107 0 01-.411 1.54 2.93 2.93 0 01-1.117 1.122 3.047 3.047 0 01-3.055-.01 2.854 2.854 0 01-1.106-1.133 3.103 3.103 0 01.013-3.09 2.856 2.856 0 011.13-1.121 3.088 3.088 0 011.51-.385zm0 .511c-.447 0-.886.119-1.273.345-.389.22-.708.545-.924.939a2.607 2.607 0 00-.346 1.288 2.55 2.55 0 00.346 1.288c.221.393.543.717.932.939.386.221.821.339 1.265.34.45.002.892-.12 1.28-.349a2.46 2.46 0 00.926-.943c.215-.39.328-.829.33-1.275a2.6 2.6 0 00-.346-1.303 2.397 2.397 0 00-.945-.937 2.583 2.583 0 00-1.245-.332zm-1.336 4.273V32.26h1.125c.229-.007.459.009.685.048a.883.883 0 01.441 1.508 1.06 1.06 0 01-.652.277.905.905 0 01.278.178c.186.2.348.422.485.66l.4.659h-.652l-.292-.523a2.63 2.63 0 00-.558-.776.68.68 0 00-.435-.119h-.308v1.411l-.517-.009zm.53-1.864h.639c.532 0 .799-.169.799-.507a.435.435 0 00-.306-.44 1.595 1.595 0 00-.532-.06h-.6v1.007z" fill="#000"/></svg>