<?xml version="1.0" encoding="utf-8"?><svg xmlns="http://www.w3.org/2000/svg" xmlns:xlink="http://www.w3.org/1999/xlink"><symbol viewBox="0 0 20 20" id="arrow-left" xmlns="http://www.w3.org/2000/svg"><path fill-rule="evenodd" clip-rule="evenodd" d="M13.352 15.658a.75.75 0 01-1.06.045l-5.6-5.148a.75.75 0 010-1.105l5.6-5.148a.75.75 0 011.015 1.105l-4.999 4.595 5 4.596a.75.75 0 01.044 1.06z"/></symbol><symbol viewBox="0 0 20 20" id="arrow-right" xmlns="http://www.w3.org/2000/svg"><path fill-rule="evenodd" clip-rule="evenodd" d="M6.648 4.342a.75.75 0 011.06-.045l5.6 5.148a.75.75 0 010 1.105l-5.6 5.148a.75.75 0 11-1.015-1.105l4.999-4.595-5-4.596a.75.75 0 01-.044-1.06z"/></symbol><symbol viewBox="0 0 24 24" id="arrow-right-bold" xmlns="http://www.w3.org/2000/svg"><path fill-rule="evenodd" clip-rule="evenodd" d="M7.16 4.03a1.965 1.965 0 00-.116 2.827L11.915 12l-4.87 5.143a1.965 1.965 0 00.115 2.827 2.09 2.09 0 002.9-.113L17.5 12l-7.44-7.857a2.09 2.09 0 00-2.9-.113z"/></symbol><symbol viewBox="0 0 32 32" id="google" xmlns="http://www.w3.org/2000/svg"><path d="M17.891 23.05c-.43.129-1.083.325-1.891.325a7.175 7.175 0 01-3.997-1.18c-1.203-.789-2.115-1.814-2.73-3.08L2.462 7.18l-.46.824C.673 10.378 0 13.067 0 15.996c0 3.98 1.315 7.502 3.908 10.468 2.59 2.962 5.86 4.76 9.716 5.34l.36.054 5.335-9.228-1.428.42z"/><path d="M8.784 13.995c.402-1.572 1.303-2.91 2.68-3.976C12.756 9.018 14.24 8.531 16 8.531h14.223l-.471-.803c-1.343-2.29-3.235-4.122-5.781-5.602C21.543.715 18.86 0 16 0c-2.49 0-4.846.536-7.002 1.595-2.3 1.127-4.253 2.717-5.647 4.601l-.214.289 5.333 8.735.313-1.225z"/><path d="M30.785 9.969l-.144-.305H20.029l.91.91c1.575 1.575 2.443 3.5 2.443 5.421 0 1.536-.437 2.96-1.319 4.264L15.25 32l.937-.01c4.355-.04 8.12-1.639 11.19-4.748C30.443 24.132 32 20.348 32 15.995c0-1.581-.211-3.91-1.215-6.026z"/><path d="M9.6 15.995c0 3.469 2.93 6.398 6.4 6.398s6.4-2.93 6.4-6.398c0-3.468-2.93-6.398-6.4-6.398s-6.4 2.93-6.4 6.398z"/></symbol><symbol viewBox="0 0 48 48" id="jeto-wallet" xmlns="http://www.w3.org/2000/svg"><path fill-rule="evenodd" clip-rule="evenodd" d="M34.835 24.9v4.247a4.354 4.354 0 11-8.708 0v-4.138a8.709 8.709 0 00-17.418 0v4.137a4.355 4.355 0 01-8.709 0V24.9C0 15.4 7.798 7.698 17.418 7.698c9.619 0 17.417 7.7 17.417 17.2z"/><path fill-rule="evenodd" clip-rule="evenodd" d="M47.823 30.777V26.53a4.354 4.354 0 00-8.709 0v4.138a8.709 8.709 0 11-17.417 0V26.53a4.355 4.355 0 00-8.709 0v4.247c0 9.5 7.798 17.201 17.418 17.201s17.417-7.7 17.417-17.2z"/><path d="M48 0h-8.784v24.866H48V0z"/><path fill-rule="evenodd" clip-rule="evenodd" d="M17.57 8.136c.206-.157.106-.489-.152-.489-9.62 0-17.418 7.7-17.418 17.2v4.247a4.354 4.354 0 108.709 0v-4.14c0-1.815.556-3.501 1.507-4.896.47-.69.851-1.446 1.045-2.259.928-3.9 3.201-7.289 6.31-9.663zM31.208 47.982a17.93 17.93 0 01-.802.017c-9.62 0-17.418-7.7-17.418-17.2v-8.602h8.71v8.493c0 2.275.872 4.347 2.3 5.898.75 4.702 3.428 8.772 7.21 11.394z"/></symbol><symbol viewBox="0 0 48 48" id="smartplace" xmlns="http://www.w3.org/2000/svg"><path fill-rule="evenodd" clip-rule="evenodd" d="M22.908 41.64a3.272 3.272 0 102.181 0V33.82a1.092 1.092 0 00-2.181 0v7.821zm1.091 4.178a1.091 1.091 0 11-.003-2.183A1.091 1.091 0 0124 45.818zM5.453 32.913a3.273 3.273 0 102.181 0v-2.368h7.638a1.092 1.092 0 000-2.182H7.634a2.183 2.183 0 00-2.016 1.347 2.18 2.18 0 00-.165.835v2.368zm34.91 0a3.272 3.272 0 102.181 0v-2.368a2.18 2.18 0 00-2.181-2.182h-7.636a1.091 1.091 0 100 2.182h7.636v2.37-.002zM6.543 37.09a1.092 1.092 0 110-2.184 1.092 1.092 0 010 2.184zm34.91 0a1.092 1.092 0 110-2.184 1.092 1.092 0 010 2.184zM24.558 16.519a1.081 1.081 0 00-1.12 0l-5.455 3.272a1.09 1.09 0 00-.53.935v6.546a1.084 1.084 0 00.53.935l5.454 3.274a1.082 1.082 0 001.121 0l5.456-3.274a1.086 1.086 0 00.53-.935v-6.546a1.09 1.09 0 00-.53-.935l-5.456-3.272zM6.36 25.09h8.915a1.091 1.091 0 100-2.182H6.36a3.273 3.273 0 100 2.182zm35.285-2.182h-8.92a1.092 1.092 0 000 2.184h8.915a3.274 3.274 0 100-2.184h.005zm-38.371 0a1.091 1.091 0 11-.01 0h.01zm41.456 0a1.093 1.093 0 11-.005 0h.005zm-4.364-7.821v2.37h-7.64a1.09 1.09 0 100 2.18h7.635a2.177 2.177 0 002.182-2.18v-2.369a3.273 3.273 0 10-2.182 0l.005-.001zm-34.91 0v2.37a2.18 2.18 0 002.182 2.18h7.637a1.092 1.092 0 000-2.18H7.638v-2.37a3.273 3.273 0 10-2.182 0zM22.91 6.36v7.82a1.091 1.091 0 102.183 0V6.36a3.273 3.273 0 10-2.183 0zM6.548 10.91a1.092 1.092 0 11-.005-.001l.005.002zm34.91 0a1.092 1.092 0 11-.005-.001l.005.002zM24.003 2.184a1.092 1.092 0 11-.005-.001l.005.001z"/></symbol></svg>