<svg width="63" height="62" viewBox="0 0 63 62" fill="none" xmlns="http://www.w3.org/2000/svg">
<path d="M49.0473 0H6.912C3.36919 0 0.486328 2.87121 0.486328 6.40083V47.0197C0.486328 50.5493 3.36869 53.421 6.912 53.421H41.7115C43.3937 57.249 46.4989 60.4358 50.5859 61.874C50.9958 62.0278 51.5186 62.052 52.0247 61.8838C57.9395 59.8234 62.4403 53.8161 62.4764 46.2425L62.4863 40.8675V40.8581C62.4863 39.7347 61.5917 38.7853 60.4639 38.6981C58.4648 38.5393 56.7959 38.051 55.4719 37.4908L55.4724 6.40138C55.4724 2.87227 52.5896 0.00106147 49.0468 0.00106147L49.0473 0ZM43.7459 6.97931C43.7459 8.03222 42.8889 8.88596 41.8315 8.88596C40.7745 8.88596 39.9174 8.03228 39.9174 6.97931C39.9174 5.9264 40.7744 5.07266 41.8315 5.07266C42.889 5.07266 43.7459 5.92633 43.7459 6.97931ZM37.6841 6.97931C37.6841 8.03222 36.8271 8.88596 35.7697 8.88596C34.7127 8.88596 33.8556 8.03228 33.8556 6.97931C33.8556 5.9264 34.7126 5.07266 35.7697 5.07266C36.8272 5.07266 37.6841 5.92633 37.6841 6.97931ZM8.04431 5.10233H23.6513C24.6919 5.10233 25.5355 5.94268 25.5355 6.97931C25.5355 8.01595 24.6919 8.85629 23.6513 8.85629H8.04431C7.00365 8.85629 6.16005 8.01593 6.16005 6.97931C6.16005 5.94267 7.00366 5.10233 8.04431 5.10233ZM47.8932 5.07274C48.9502 5.07274 49.8076 5.92641 49.8076 6.97939C49.8076 8.0323 48.9506 8.88604 47.8932 8.88604C46.8362 8.88604 45.9791 8.03236 45.9791 6.97939C45.9791 5.92648 46.8361 5.07274 47.8932 5.07274ZM54.2416 47.0075C54.2223 47.9372 53.7069 48.819 52.8708 49.3225L53.2406 51.8889C53.2877 52.3826 52.8931 52.7022 52.5307 52.7022H50.1776C49.7627 52.7022 49.3988 52.3012 49.4776 51.8889L49.8474 49.3323C49.0112 48.8091 48.4859 47.9278 48.4665 46.9499C48.4566 45.2741 49.7597 43.976 51.3543 43.976C52.9584 43.976 54.2515 45.2735 54.2515 46.872C54.2515 46.8912 54.2416 46.9878 54.2416 47.0075Z" fill="white"/>
<path d="M30.2654 33.0654C29.9535 32.8775 29.494 32.696 28.8975 32.5254V35.4015C30.1297 35.2792 30.7293 34.7703 30.7293 33.8495C30.7298 33.5107 30.5778 33.2548 30.2654 33.0654L30.2654 33.0654Z" fill="#1D2760"/>
<path d="M25.9902 29.0632C25.9902 29.4577 26.1353 29.7526 26.4343 29.9657C26.723 30.1718 27.1438 30.3543 27.6874 30.5087V27.5674C27.1893 27.6537 26.7829 27.8189 26.4779 28.0596C26.1497 28.3175 25.9902 28.6459 25.9902 29.0632L25.9902 29.0632Z" fill="#1D2760"/>
<path d="M28.43 17.9492C21.0072 17.9492 14.9688 23.9757 14.9688 31.3698C14.9688 38.7638 21.0068 44.7663 28.43 44.7663C35.8404 44.7663 41.8785 38.7639 41.8785 31.3698C41.8785 23.9756 35.8404 17.9492 28.43 17.9492ZM19.865 32.7737C19.0754 32.7737 18.456 32.1572 18.456 31.3701C18.456 30.5954 19.0754 29.942 19.865 29.942C20.6547 29.942 21.2864 30.5954 21.2864 31.3701C21.2864 32.1567 20.6542 32.7737 19.865 32.7737ZM28.8974 36.9858V37.9154C28.8974 38.0841 28.84 38.2276 28.7271 38.3405C28.6132 38.4535 28.4642 38.5112 28.2845 38.5112C28.1162 38.5112 27.9736 38.4574 27.8607 38.3514C27.7453 38.2429 27.6869 38.0964 27.6869 37.9154V36.9858C26.6413 36.9044 25.6481 36.6672 24.7332 36.2786C24.5876 36.2184 24.4649 36.1173 24.3693 35.9802C24.2718 35.8421 24.2228 35.6902 24.2228 35.53C24.2228 35.3228 24.2941 35.1414 24.4347 34.989C24.655 34.7493 25.0194 34.6896 25.3313 34.8262C26.0783 35.1571 26.8705 35.3519 27.6874 35.4062V32.2198C25.8803 31.7316 24.3282 31.0515 24.3282 29.1676C24.3282 27.3527 25.7749 26.178 27.6874 25.9743V25.056C27.6874 24.8888 27.7438 24.7438 27.8552 24.626C28.0805 24.3883 28.482 24.3863 28.7196 24.623C28.838 24.7414 28.8979 24.8869 28.8979 25.0555V25.9521C29.837 26.0024 30.6861 26.1696 31.4243 26.4507C31.761 26.5701 31.9402 26.825 31.9402 27.1865C31.9402 27.3804 31.8729 27.5584 31.7402 27.7152C31.6006 27.8789 31.4164 27.9623 31.1916 27.9623C31.1119 27.9623 31.0149 27.9391 30.8966 27.8913C30.2792 27.6748 29.6063 27.5441 28.8975 27.5036V30.8084C30.862 31.2848 32.3769 31.922 32.3769 33.9391C32.3769 35.4067 31.2501 36.7984 28.8975 36.9859L28.8974 36.9858ZM36.9702 32.7737C36.1929 32.7737 35.5612 32.1572 35.5612 31.3701C35.5612 30.5954 36.193 29.942 36.9702 29.942C37.7722 29.942 38.3916 30.5954 38.3916 31.3701C38.3916 32.1567 37.7723 32.7737 36.9702 32.7737Z" fill="#1D2760"/>
</svg>
