<svg width="62" height="62" viewBox="0 0 62 62" fill="none" xmlns="http://www.w3.org/2000/svg">
<path d="M4.19599 25.8996C5.57815 24.5131 4.68977 23.0278 3.20843 22.9282C0.74023 22.7299 -0.641963 20.155 1.33242 17.9761C3.50444 15.9955 6.17027 17.382 6.26882 19.8581C6.3673 21.3434 7.84863 22.2353 9.23084 20.8488L12.4889 17.5804C13.4764 16.5897 15.0556 16.5897 16.0431 17.5804L19.3011 20.8488C20.6833 22.2353 22.1639 21.3441 22.1639 19.8581C22.3615 17.382 24.9282 15.9954 27.1003 18.0757C29.0746 20.2546 27.6925 22.9289 25.2242 23.0278C23.7436 23.1266 22.8546 24.6126 24.2367 25.8996L27.5933 29.2669C28.5808 30.2576 28.5808 31.8418 27.5933 32.8324L25.2241 35.209C24.928 34.4166 24.5327 33.7237 23.9405 33.1288C21.8668 31.0486 18.8064 31.1482 16.5359 33.2276L16.3389 33.4252C14.2653 35.703 14.1669 38.8727 16.2404 40.8533C16.8327 41.4475 17.5241 41.844 18.3141 42.1411L16.0435 44.4189C15.0559 45.4096 13.3777 45.4096 12.3907 44.4189L9.13271 41.1505C7.75055 39.764 6.36833 40.5564 6.26995 42.1412C6.0723 44.6173 3.50557 46.0038 1.33355 43.9236C-0.640833 41.7447 0.741289 39.0704 3.1103 38.9715C4.59094 38.8727 5.38087 37.4862 3.9987 36.0996L0.740672 32.8313C-0.246891 31.8406 -0.246891 30.2564 0.740672 29.2658L4.19599 25.8996ZM17.8199 12.2317C16.8324 13.2224 16.8324 14.906 17.8199 15.8961L20.0905 18.1738C20.3866 17.3814 20.7819 16.6885 21.3742 16.0936C23.3486 14.1129 26.5082 14.1129 28.7788 16.1924L28.9757 16.39C31.0494 18.6678 31.1477 21.8375 29.0742 23.8181C28.482 24.4123 27.7905 24.8088 27.0006 25.1059L29.3702 27.4831C30.3578 28.4738 31.937 28.4738 32.9244 27.4831L36.281 24.1158C37.6632 22.7293 39.0454 23.6205 39.1438 25.1065C39.3414 27.5826 41.9081 28.9692 44.0802 26.9885C46.0545 24.8096 44.6724 22.2347 42.3034 22.0364C40.8228 21.9376 39.9338 20.4516 41.3158 19.1645L44.5739 15.8962C45.5614 14.9055 45.5614 13.3212 44.5739 12.3307L41.3158 9.06226C39.9337 7.67571 40.8221 6.1904 42.3034 6.09083C44.7716 5.89255 46.1538 3.31766 44.1794 1.13874C42.0074 -0.841926 39.3416 0.54459 39.243 3.02071C39.1445 4.50605 37.6632 5.39789 36.281 4.01141L33.023 0.743027C32.0354 -0.247676 30.4562 -0.247676 29.4688 0.743027L26.2107 4.01141C24.8286 5.39796 23.4464 4.60556 23.348 3.12019C23.1503 0.644144 20.5836 -0.742443 18.4116 1.33779C16.4372 3.51671 17.8193 6.09163 20.1883 6.28989C21.669 6.38868 22.4589 7.77523 21.1759 9.16175L17.8199 12.2317ZM45.9574 21.0464C47.9318 23.0271 47.9318 26.1968 45.8589 28.4746L45.662 28.6721C43.3914 30.7524 40.2317 30.8511 38.2574 28.7709C37.6651 28.1768 37.2698 27.4832 36.9737 26.6907L34.604 29.0679C33.6165 30.0586 33.6165 31.6428 34.604 32.6334L37.9606 36.0006C39.3428 37.3872 38.4544 38.7738 36.9731 38.8725C34.5049 39.0708 33.1227 41.6457 35.097 43.8246C37.2691 45.8053 39.8358 44.4187 40.0334 42.0422C40.1319 40.5569 41.6133 39.665 42.8962 41.0515L46.1542 44.3199C47.1418 45.3106 48.721 45.3106 49.7084 44.3199L52.9665 41.0515C54.3486 39.6649 55.8292 40.5561 55.9285 42.0422C56.1261 44.5182 58.6929 45.9048 60.8649 43.9242C62.8393 41.7452 61.4571 39.0709 58.9889 38.9721C57.5082 38.8733 56.6192 37.3872 58.0013 36.0006L61.2593 32.7323C62.2469 31.7416 62.2469 30.1573 61.2593 29.1667L58.0013 25.8984C56.6191 24.5118 57.409 23.1252 58.8897 23.0265C61.3579 22.8282 62.7401 20.2533 60.6664 18.0744C58.4944 16.0937 55.9277 17.4803 55.7301 19.8568C55.6316 21.3422 54.2494 22.1346 52.8673 20.8475L49.6093 17.5791C48.6217 16.5884 46.9434 16.5884 45.9565 17.5791L43.6859 19.8569C44.6735 20.0559 45.3649 20.4524 45.9572 21.0466L45.9574 21.0464ZM19.9919 55.9092C17.5237 56.1074 16.1415 58.6823 18.1159 60.8613C20.2879 62.8419 22.9538 61.4554 23.0523 58.9793C23.1508 57.4939 24.6321 56.6021 26.0144 57.9886L29.2724 61.257C30.2599 62.2477 31.8391 62.2477 32.8266 61.257L36.0846 57.9886C37.4668 56.602 38.849 57.3944 38.9474 58.8798C39.145 61.3559 41.7117 62.7424 43.8838 60.6622C45.8581 58.4833 44.476 55.9084 42.107 55.7101C40.6264 55.6113 39.8364 54.2248 41.1194 52.8382L44.3775 49.5699C45.365 48.5792 45.365 46.8956 44.3775 45.9055L42.1069 43.6277C41.8108 44.4201 41.4155 45.113 40.8232 45.7079C38.8489 47.6886 35.6892 47.6886 33.4186 45.6091L33.2217 45.4116C31.148 43.1338 31.0497 39.9641 33.1232 37.9834C33.7155 37.3893 34.4069 36.9927 35.1968 36.6957L32.8272 34.3185C31.8396 33.3278 30.2604 33.3278 29.273 34.3185L25.9164 37.6857C24.5342 39.0723 23.152 38.1811 23.0536 36.695C22.856 34.219 20.2893 32.8324 18.1172 34.813C16.1429 36.992 17.525 39.5669 19.894 39.7651C21.3746 39.8639 22.2636 41.35 20.8816 42.637L17.6235 45.9054C16.636 46.8961 16.636 48.4803 17.6235 49.4709L20.8816 52.7393C22.3615 54.3241 21.4731 55.8094 19.9918 55.909L19.9919 55.9092Z" fill="white"/>
</svg>
